<svg width="373" height="226" viewBox="0 0 373 226" fill="none" xmlns="http://www.w3.org/2000/svg">
<rect width="373" height="226" fill="white"/>
<path d="M238.707 35.7071C239.098 35.3166 239.098 34.6834 238.707 34.2929L232.343 27.9289C231.953 27.5384 231.319 27.5384 230.929 27.9289C230.538 28.3195 230.538 28.9526 230.929 29.3431L236.586 35L230.929 40.6569C230.538 41.0474 230.538 41.6805 230.929 42.0711C231.319 42.4616 231.953 42.4616 232.343 42.0711L238.707 35.7071ZM142 36H238V34H142V36Z" fill="black"/>
<path d="M255.293 124.202C255.683 124.592 256.317 124.592 256.707 124.202L263.071 117.838C263.462 117.447 263.462 116.814 263.071 116.424C262.681 116.033 262.047 116.033 261.657 116.424L256 122.081L250.343 116.424C249.953 116.033 249.319 116.033 248.929 116.424C248.538 116.814 248.538 117.447 248.929 117.838L255.293 124.202ZM255 58.4948V123.495H257V58.4948H255Z" fill="black"/>
<path d="M122.707 57.2929C122.317 56.9024 121.683 56.9024 121.293 57.2929L114.929 63.6569C114.538 64.0474 114.538 64.6805 114.929 65.0711C115.319 65.4616 115.953 65.4616 116.343 65.0711L122 59.4142L127.657 65.0711C128.047 65.4616 128.681 65.4616 129.071 65.0711C129.462 64.6805 129.462 64.0474 129.071 63.6569L122.707 57.2929ZM123 123V58H121V123H123Z" fill="black"/>
<path d="M238.707 151.707C239.098 151.317 239.098 150.683 238.707 150.293L232.343 143.929C231.953 143.538 231.319 143.538 230.929 143.929C230.538 144.319 230.538 144.953 230.929 145.343L236.586 151L230.929 156.657C230.538 157.047 230.538 157.681 230.929 158.071C231.319 158.462 231.953 158.462 232.343 158.071L238.707 151.707ZM142 152H143V150H142V152ZM145 152H147V150H145V152ZM149 152H151V150H149V152ZM153 152H155V150H153V152ZM157 152H159V150H157V152ZM161 152H163V150H161V152ZM165 152H167V150H165V152ZM169 152H171V150H169V152ZM173 152H175V150H173V152ZM177 152H179V150H177V152ZM181 152H183V150H181V152ZM185 152H187V150H185V152ZM189 152H191V150H189V152ZM193 152H195V150H193V152ZM197 152H199V150H197V152ZM201 152H203V150H201V152ZM205 152H207V150H205V152ZM209 152H211V150H209V152ZM213 152H215V150H213V152ZM217 152H219V150H217V152ZM221 152H223V150H221V152ZM225 152H227V150H225V152ZM229 152H231V150H229V152ZM233 152H235V150H233V152ZM237 152H238V150H237V152Z" fill="black"/>
<path d="M253.539 151.077H254.188L256.889 155.256C257.07 155.544 257.502 156.246 257.7 156.517C257.826 156.733 257.88 156.733 258.294 156.733H260.78C261.104 156.733 261.375 156.733 261.375 156.409C261.375 156.264 261.266 156.138 261.104 156.102C260.438 155.958 259.555 154.769 259.123 154.193C258.997 154.013 258.096 152.824 256.889 150.879C258.493 150.591 260.042 149.906 260.042 147.763C260.042 145.259 257.394 144.394 255.268 144.394H249.612C249.288 144.394 249 144.394 249 144.719C249 145.025 249.342 145.025 249.486 145.025C250.513 145.025 250.603 145.151 250.603 146.051V155.076C250.603 155.976 250.513 156.102 249.486 156.102C249.342 156.102 249 156.102 249 156.409C249 156.733 249.288 156.733 249.612 156.733H254.548C254.872 156.733 255.142 156.733 255.142 156.409C255.142 156.102 254.836 156.102 254.638 156.102C253.611 156.102 253.539 155.958 253.539 155.076V151.077ZM257.016 150.194C257.52 149.528 257.574 148.573 257.574 147.781C257.574 146.916 257.466 145.961 256.889 145.223C257.628 145.385 259.411 145.943 259.411 147.763C259.411 148.933 258.871 149.852 257.016 150.194ZM253.539 145.997C253.539 145.619 253.539 145.025 254.656 145.025C256.187 145.025 256.943 145.655 256.943 147.781C256.943 150.104 256.385 150.446 253.539 150.446V145.997ZM251.089 156.102C251.234 155.778 251.234 155.274 251.234 155.112V146.015C251.234 145.835 251.234 145.349 251.089 145.025H253.143C252.909 145.313 252.909 145.673 252.909 145.943V155.112C252.909 155.292 252.909 155.778 253.053 156.102H251.089ZM254.926 151.077C255.052 151.059 255.124 151.041 255.268 151.041C255.539 151.041 255.935 151.005 256.205 150.969C256.475 151.401 258.421 154.607 259.916 156.102H258.168L254.926 151.077Z" fill="black"/>
<path d="M264.122 147.326C264.159 147.146 264.279 146.69 264.315 146.51C264.351 146.39 264.423 146.101 264.447 145.981C264.471 145.921 264.867 145.141 265.395 144.745C265.804 144.432 266.2 144.336 266.536 144.336C266.98 144.336 267.221 144.6 267.221 145.153C267.221 145.441 267.149 145.717 267.016 146.258C266.932 146.57 266.728 147.374 266.656 147.699L266.476 148.419C266.416 148.623 266.332 148.983 266.332 149.043C266.332 149.32 266.56 149.416 266.716 149.416C266.932 149.416 267.113 149.272 267.197 149.128C267.233 149.055 267.329 148.647 267.389 148.395L267.665 147.326C267.701 147.146 267.821 146.69 267.857 146.51C268.025 145.861 268.025 145.849 268.301 145.453C268.698 144.865 269.262 144.336 270.067 144.336C270.499 144.336 270.751 144.588 270.751 145.153C270.751 145.813 270.247 147.194 270.019 147.771C269.898 148.083 269.862 148.167 269.862 148.395C269.862 149.08 270.427 149.416 270.943 149.416C272.12 149.416 272.612 147.735 272.612 147.578C272.612 147.458 272.516 147.422 272.432 147.422C272.288 147.422 272.264 147.506 272.228 147.627C271.94 148.623 271.436 149.08 270.979 149.08C270.787 149.08 270.691 148.959 270.691 148.683C270.691 148.407 270.787 148.143 270.907 147.843C271.087 147.386 271.616 146.005 271.616 145.333C271.616 144.432 270.991 144 270.127 144C269.298 144 268.614 144.432 268.073 145.177C267.977 144.216 267.209 144 266.584 144C266.032 144 265.299 144.192 264.639 145.057C264.555 144.336 263.978 144 263.414 144C262.994 144 262.694 144.252 262.489 144.66C262.201 145.225 262.081 145.813 262.081 145.837C262.081 145.945 262.165 145.993 262.261 145.993C262.417 145.993 262.429 145.945 262.513 145.633C262.657 145.045 262.874 144.336 263.378 144.336C263.69 144.336 263.762 144.636 263.762 144.901C263.762 145.117 263.702 145.345 263.606 145.741C263.582 145.837 263.402 146.546 263.354 146.714L262.91 148.515C262.862 148.695 262.79 148.995 262.79 149.043C262.79 149.32 263.018 149.416 263.174 149.416C263.39 149.416 263.57 149.272 263.654 149.128C263.69 149.055 263.786 148.647 263.846 148.395L264.122 147.326Z" fill="black"/>
<path d="M120.539 151.077H121.188L123.889 155.256C124.07 155.544 124.502 156.246 124.7 156.517C124.826 156.733 124.88 156.733 125.294 156.733H127.78C128.104 156.733 128.375 156.733 128.375 156.409C128.375 156.264 128.266 156.138 128.104 156.102C127.438 155.958 126.555 154.769 126.123 154.193C125.997 154.013 125.096 152.824 123.889 150.879C125.493 150.591 127.042 149.906 127.042 147.763C127.042 145.259 124.394 144.394 122.268 144.394H116.612C116.288 144.394 116 144.394 116 144.719C116 145.025 116.342 145.025 116.486 145.025C117.513 145.025 117.603 145.151 117.603 146.051V155.076C117.603 155.976 117.513 156.102 116.486 156.102C116.342 156.102 116 156.102 116 156.409C116 156.733 116.288 156.733 116.612 156.733H121.548C121.872 156.733 122.142 156.733 122.142 156.409C122.142 156.102 121.836 156.102 121.638 156.102C120.611 156.102 120.539 155.958 120.539 155.076V151.077ZM124.016 150.194C124.52 149.528 124.574 148.573 124.574 147.781C124.574 146.916 124.466 145.961 123.889 145.223C124.628 145.385 126.411 145.943 126.411 147.763C126.411 148.933 125.871 149.852 124.016 150.194ZM120.539 145.997C120.539 145.619 120.539 145.025 121.656 145.025C123.187 145.025 123.943 145.655 123.943 147.781C123.943 150.104 123.385 150.446 120.539 150.446V145.997ZM118.089 156.102C118.234 155.778 118.234 155.274 118.234 155.112V146.015C118.234 145.835 118.234 145.349 118.089 145.025H120.143C119.909 145.313 119.909 145.673 119.909 145.943V155.112C119.909 155.292 119.909 155.778 120.053 156.102H118.089ZM121.926 151.077C122.052 151.059 122.124 151.041 122.268 151.041C122.539 151.041 122.935 151.005 123.205 150.969C123.475 151.401 125.421 154.607 126.916 156.102H125.168L121.926 151.077Z" fill="black"/>
<path d="M131.122 147.326C131.159 147.146 131.279 146.69 131.315 146.51C131.483 145.861 131.483 145.849 131.759 145.453C132.155 144.865 132.72 144.336 133.524 144.336C133.956 144.336 134.209 144.588 134.209 145.153C134.209 145.813 133.704 147.182 133.476 147.771C133.32 148.167 133.32 148.239 133.32 148.395C133.32 149.08 133.884 149.416 134.401 149.416C135.578 149.416 136.07 147.735 136.07 147.578C136.07 147.458 135.974 147.422 135.89 147.422C135.746 147.422 135.722 147.506 135.686 147.627C135.397 148.611 134.893 149.08 134.437 149.08C134.245 149.08 134.149 148.959 134.149 148.683C134.149 148.407 134.245 148.143 134.365 147.843C134.545 147.386 135.073 146.005 135.073 145.333C135.073 144.432 134.449 144 133.584 144C132.612 144 131.987 144.588 131.639 145.045C131.555 144.384 131.026 144 130.414 144C129.982 144 129.682 144.276 129.489 144.648C129.201 145.213 129.081 145.813 129.081 145.837C129.081 145.945 129.165 145.993 129.261 145.993C129.417 145.993 129.429 145.945 129.513 145.633C129.657 145.045 129.874 144.336 130.378 144.336C130.69 144.336 130.762 144.636 130.762 144.901C130.762 145.117 130.702 145.345 130.606 145.741C130.582 145.837 130.402 146.546 130.354 146.714L129.91 148.515C129.862 148.695 129.79 148.995 129.79 149.043C129.79 149.32 130.018 149.416 130.174 149.416C130.39 149.416 130.57 149.272 130.654 149.128C130.69 149.055 130.786 148.647 130.846 148.395L131.122 147.326Z" fill="black"/>
<path d="M127.456 30.5491C127.546 30.3329 127.816 29.7025 128.573 29.6304C128.681 29.6304 128.951 29.5944 128.951 29.3242C128.951 29 128.681 29 128.357 29H125.457C125.132 29 124.862 29 124.862 29.3242C124.862 29.5944 125.132 29.6124 125.24 29.6304C125.511 29.6665 125.889 29.7385 125.889 30.6752C125.889 31.7379 125.312 33.4491 125.006 34.3137C124.88 34.6739 124.88 34.7099 123.565 38.0062C123.241 37.3398 120.485 31.3596 120.485 30.1888C120.485 30.0627 120.899 29.6845 121.566 29.6304C121.854 29.6124 121.908 29.4143 121.908 29.3242C121.908 29 121.638 29 121.314 29H116.594C116.27 29 116 29 116 29.3242C116 29.5764 116.234 29.6124 116.378 29.6304C116.973 29.7205 117.351 30.5671 117.387 30.6211L122.232 41.3025C122.358 41.5727 122.448 41.6808 122.611 41.6808C122.809 41.6808 122.863 41.5907 122.971 41.3025L127.456 30.5491ZM127.276 29.6304C127.06 29.8646 126.97 30.0807 126.843 30.3689C126.771 30.5671 126.573 31.0354 126.483 31.2335C126.501 31.0714 126.519 30.8373 126.519 30.6752C126.519 30.441 126.501 29.9547 126.303 29.6304H127.276ZM118.035 30.513C117.873 30.1708 117.549 29.6665 117.513 29.6304H120.071C119.981 29.7025 119.837 29.7925 119.837 30.1708C119.837 31.3957 122.142 36.4391 123.277 38.9429L122.611 40.582L118.035 30.513Z" fill="black"/>
<path d="M278.089 102.886C278.089 102.832 278.089 102.796 277.783 102.49C275.981 100.671 274.973 97.6988 274.973 94.0242C274.973 90.5298 275.819 87.5217 277.909 85.3963C278.089 85.2342 278.089 85.1981 278.089 85.1441C278.089 85.036 277.999 85 277.927 85C277.693 85 276.216 86.2969 275.333 88.0621C274.414 89.8814 274 91.8087 274 94.0242C274 95.6273 274.252 97.7708 275.189 99.6982C276.252 101.86 277.729 103.03 277.927 103.03C277.999 103.03 278.089 102.994 278.089 102.886Z" fill="black"/>
<path d="M283.2 94.1504C283.2 93.0876 283.633 91.5025 285.452 90.1516C285.956 89.7733 286.425 89.215 286.425 88.2783C286.425 87.1795 285.668 85.8286 283.074 85.8286C281.129 85.8286 280.066 87.0895 280.066 88.2423C280.066 88.8907 280.553 89.0348 280.823 89.0348C281.129 89.0348 281.561 88.8187 281.561 88.2783C281.561 87.864 281.255 87.5398 280.805 87.5398C280.697 87.5398 280.661 87.5398 280.625 87.5578C281.021 86.6212 282.066 86.1889 283.02 86.1889C285.056 86.1889 285.056 87.5038 285.056 88.1882C285.056 89.251 284.732 89.5932 284.425 89.9174C283.2 91.2323 282.804 92.9075 282.804 94.0063V94.8709C282.804 95.1951 282.804 95.2671 283.002 95.2671C283.2 95.2671 283.2 95.1411 283.2 94.8168V94.1504ZM283.867 97.6268C283.867 97.1584 283.471 96.7622 283.002 96.7622C282.462 96.7622 282.12 97.1945 282.12 97.6268C282.12 98.1671 282.552 98.5094 282.984 98.5094C283.489 98.5094 283.867 98.1131 283.867 97.6268Z" fill="black"/>
<path d="M292.502 94.0242C292.502 92.6553 292.322 90.4217 291.313 88.3323C290.25 86.1708 288.773 85 288.575 85C288.503 85 288.413 85.036 288.413 85.1441C288.413 85.1981 288.413 85.2342 288.719 85.5404C290.52 87.3596 291.529 90.3317 291.529 94.0062C291.529 97.5006 290.682 100.509 288.593 102.634C288.413 102.796 288.413 102.832 288.413 102.886C288.413 102.994 288.503 103.03 288.575 103.03C288.809 103.03 290.286 101.734 291.169 99.9684C292.087 98.1311 292.502 96.1857 292.502 94.0242Z" fill="black"/>
<path d="M306.013 94.4505C306.554 93.5499 306.962 93.4418 307.358 93.4058C307.466 93.3938 307.61 93.3818 307.61 93.1776C307.61 93.0936 307.538 93.0095 307.442 93.0095C307.238 93.0095 307.43 93.0455 306.481 93.0455C305.689 93.0455 305.341 93.0095 305.281 93.0095C305.089 93.0095 305.052 93.1416 305.052 93.2377C305.052 93.3938 305.221 93.4058 305.257 93.4058C305.593 93.4178 305.893 93.5379 305.893 93.8381C305.893 93.9942 305.773 94.1983 305.713 94.2944L302.387 99.8903L301.822 93.9222C301.81 93.8981 301.798 93.8141 301.798 93.7781C301.798 93.5979 302.026 93.4058 302.615 93.4058C302.795 93.4058 302.939 93.4058 302.939 93.1776C302.939 93.0816 302.867 93.0095 302.747 93.0095C302.627 93.0095 302.183 93.0335 302.062 93.0455H301.342C300.273 93.0455 300.141 93.0095 300.045 93.0095C299.997 93.0095 299.805 93.0095 299.805 93.2377C299.805 93.4058 299.961 93.4058 300.141 93.4058C300.645 93.4058 300.681 93.5019 300.705 93.67C300.705 93.694 300.778 94.3905 300.778 94.4265C300.778 94.4625 300.778 94.5226 300.693 94.6547L297.571 99.8903L297.007 93.9822C297.007 93.9222 296.995 93.8261 296.995 93.766C296.995 93.67 297.091 93.4058 297.823 93.4058C297.956 93.4058 298.124 93.4058 298.124 93.1776C298.124 93.0816 298.04 93.0095 297.932 93.0095C297.811 93.0095 297.367 93.0335 297.247 93.0455H296.527C295.422 93.0455 295.374 93.0095 295.23 93.0095C295.038 93.0095 295.002 93.1416 295.002 93.2377C295.002 93.4058 295.17 93.4058 295.302 93.4058C295.866 93.4058 295.878 93.4899 295.902 93.7901L296.599 101.115C296.623 101.343 296.635 101.463 296.839 101.463C296.935 101.463 297.055 101.427 297.187 101.211L300.838 95.0629L301.414 101.127C301.438 101.343 301.45 101.463 301.642 101.463C301.846 101.463 301.918 101.331 301.99 101.211L306.013 94.4505Z" fill="black"/>
<path d="M308.841 102.832H294.281V103.373H308.841V102.832Z" fill="black"/>
<path d="M263.68 30.477C263.896 29.8646 264.076 29.6665 264.418 29.6304C264.652 29.5944 264.724 29.4503 264.724 29.3242C264.724 29 264.454 29 264.13 29H261.572C261.248 29 260.978 29 260.978 29.3242C260.978 29.4863 261.104 29.6124 261.266 29.6304C261.68 29.6665 262.112 29.7025 262.112 30.9273C262.112 32.4764 261.32 34.8 260.419 37.4298C260.275 37.1056 258.114 31.5938 258.06 30.0627C258.132 29.9727 258.474 29.6665 258.924 29.6304C259.014 29.6304 259.303 29.5944 259.303 29.3242C259.303 29 259.032 29 258.708 29H254.367C254.043 29 253.755 29 253.755 29.3242C253.755 29.3783 253.791 29.5764 254.043 29.6304C254.367 29.6845 254.691 29.7205 255.07 30.6752C255.304 31.2155 255.538 31.864 255.754 32.4764L253.412 37.8621L252.134 34.1876C251.719 32.9627 251.017 30.7292 251.017 30.0988C251.017 29.9006 251.377 29.6665 251.683 29.6304C251.737 29.6304 252.025 29.5944 252.025 29.3242C252.025 29 251.737 29 251.413 29H247.594C247.27 29 247 29 247 29.3242C247 29.5764 247.252 29.6124 247.342 29.6304C247.757 29.6845 247.973 30.2429 248.045 30.441L251.899 41.2665C251.989 41.5367 252.043 41.6808 252.26 41.6808C252.458 41.6808 252.512 41.5547 252.62 41.3205L256.096 33.359L259.086 41.2485C259.194 41.5547 259.248 41.6808 259.465 41.6808C259.681 41.6808 259.735 41.5367 259.825 41.2665L263.68 30.477ZM263.373 29.6304C263.193 29.9186 262.941 30.6571 262.743 31.1795C262.743 30.513 262.743 30.0988 262.473 29.6304H263.373ZM255.7 30.513C255.574 30.2068 255.43 29.9006 255.232 29.6304H257.609C257.429 29.7745 257.429 30.0807 257.429 30.1708C257.429 31.5758 259.843 37.7541 260.149 38.5106C259.861 39.3031 259.609 39.9876 259.465 40.4559L255.7 30.513ZM248.711 30.459C248.657 30.2789 248.531 29.9366 248.351 29.6304H250.494C250.44 29.7205 250.386 29.7925 250.386 30.0807C250.386 31.3957 252.566 37.4118 253.052 38.7447L252.296 40.4919L248.711 30.459Z" fill="black"/>
<path d="M87.1497 88.3777C87.7621 87.405 88.3205 86.9727 89.2392 86.9007C89.4193 86.8826 89.5634 86.8826 89.5634 86.5584C89.5634 86.4864 89.5274 86.3783 89.3652 86.3783C89.041 86.3783 88.2665 86.4143 87.9423 86.4143C87.4199 86.4143 86.8795 86.3783 86.3752 86.3783C86.2311 86.3783 86.0509 86.3783 86.0509 86.7205C86.0509 86.8826 86.2131 86.9007 86.2851 86.9007C86.9516 86.9547 87.0236 87.2789 87.0236 87.4951C87.0236 87.7653 86.7714 88.1795 86.7534 88.1976L81.0975 97.1678L79.8367 87.459C79.8367 86.9367 80.7733 86.9007 80.9714 86.9007C81.2416 86.9007 81.4037 86.9007 81.4037 86.5584C81.4037 86.3783 81.2056 86.3783 81.1516 86.3783C80.8453 86.3783 80.4851 86.4143 80.1789 86.4143H79.1702C77.8553 86.4143 77.3149 86.3783 77.2969 86.3783C77.1888 86.3783 76.9727 86.3783 76.9727 86.7025C76.9727 86.9007 77.0988 86.9007 77.387 86.9007C78.3056 86.9007 78.3596 87.0628 78.4137 87.5131L79.8547 98.6268C79.9087 99.005 79.9087 99.0591 80.1609 99.0591C80.377 99.0591 80.4671 99.005 80.6472 98.7168L87.1497 88.3777Z" fill="black"/>
<path d="M90.2013 100.842H76V101.563H90.2013V100.842Z" fill="black"/>
<path d="M93.6597 94.1777C93.6597 93.6553 93.2274 93.223 92.7051 93.223C92.1827 93.223 91.7504 93.6553 91.7504 94.1777C91.7504 94.7 92.1827 95.1323 92.7051 95.1323C93.2274 95.1323 93.6597 94.7 93.6597 94.1777Z" fill="black"/>
<path d="M99.3116 94.3218C99.3116 93.259 99.7439 91.6739 101.563 90.323C102.068 89.9447 102.536 89.3863 102.536 88.4497C102.536 87.3509 101.779 86 99.1856 86C97.2402 86 96.1775 87.2609 96.1775 88.4137C96.1775 89.0621 96.6638 89.2062 96.934 89.2062C97.2402 89.2062 97.6725 88.9901 97.6725 88.4497C97.6725 88.0354 97.3663 87.7112 96.916 87.7112C96.8079 87.7112 96.7719 87.7112 96.7359 87.7292C97.1321 86.7925 98.1769 86.3602 99.1315 86.3602C101.167 86.3602 101.167 87.6752 101.167 88.3596C101.167 89.4224 100.843 89.7646 100.536 90.0888C99.3116 91.4037 98.9154 93.0789 98.9154 94.1777V95.0423C98.9154 95.3665 98.9154 95.4385 99.1135 95.4385C99.3116 95.4385 99.3116 95.3124 99.3116 94.9882V94.3218ZM99.9781 97.7982C99.9781 97.3298 99.5818 96.9336 99.1135 96.9336C98.5731 96.9336 98.2309 97.3659 98.2309 97.7982C98.2309 98.3385 98.6632 98.6808 99.0955 98.6808C99.5998 98.6808 99.9781 98.2845 99.9781 97.7982Z" fill="black"/>
<path d="M31.0888 201.485C31.0888 201.431 31.0888 201.395 30.7826 201.089C28.9814 199.269 27.9727 196.297 27.9727 192.623C27.9727 189.128 28.8193 186.12 30.9087 183.995C31.0888 183.833 31.0888 183.797 31.0888 183.743C31.0888 183.635 30.9988 183.599 30.9267 183.599C30.6926 183.599 29.2155 184.895 28.3329 186.661C27.4143 188.48 27 190.407 27 192.623C27 194.226 27.2522 196.369 28.1888 198.297C29.2516 200.458 30.7286 201.629 30.9267 201.629C30.9988 201.629 31.0888 201.593 31.0888 201.485Z" fill="black"/>
<path d="M37.4433 191.236H39.1725C40.5415 191.236 40.6495 191.542 40.6495 192.064C40.6495 192.298 40.6135 192.551 40.5234 192.947C40.4874 193.019 40.4694 193.109 40.4694 193.145C40.4694 193.271 40.5415 193.343 40.6675 193.343C40.8116 193.343 40.8297 193.271 40.9017 192.983L41.9464 188.786C41.9464 188.714 41.8924 188.606 41.7663 188.606C41.6042 188.606 41.5862 188.678 41.5141 188.984C41.1359 190.335 40.7756 190.713 39.2085 190.713H37.5694L38.7402 186.048C38.9023 185.418 38.9383 185.364 39.6769 185.364H42.0905C44.3421 185.364 44.6663 186.03 44.6663 187.309C44.6663 187.417 44.6663 187.813 44.6123 188.282C44.5943 188.354 44.5582 188.588 44.5582 188.66C44.5582 188.804 44.6483 188.858 44.7564 188.858C44.8825 188.858 44.9545 188.786 44.9905 188.462L45.3688 185.31C45.3688 185.256 45.4048 185.075 45.4048 185.039C45.4048 184.841 45.2427 184.841 44.9185 184.841H36.3806C36.0383 184.841 35.8582 184.841 35.8582 185.166C35.8582 185.364 35.9843 185.364 36.2905 185.364C37.4073 185.364 37.4073 185.49 37.4073 185.688C37.4073 185.778 37.3893 185.85 37.3352 186.048L34.9036 195.775C34.7414 196.405 34.7054 196.585 33.4445 196.585C33.1023 196.585 32.9222 196.585 32.9222 196.91C32.9222 197.108 33.0843 197.108 33.1924 197.108C33.5346 197.108 33.8949 197.072 34.2371 197.072H36.5787C36.975 197.072 37.4073 197.108 37.8036 197.108C37.9657 197.108 38.1818 197.108 38.1818 196.784C38.1818 196.585 38.0737 196.585 37.6775 196.585C36.2545 196.585 36.2185 196.459 36.2185 196.189C36.2185 196.099 36.2545 195.955 36.2905 195.829L37.4433 191.236Z" fill="black"/>
<path d="M51.0399 192.623C51.0399 191.254 50.8598 189.02 49.8511 186.931C48.7884 184.769 47.3113 183.599 47.1132 183.599C47.0411 183.599 46.9511 183.635 46.9511 183.743C46.9511 183.797 46.9511 183.833 47.2573 184.139C49.0585 185.958 50.0672 188.93 50.0672 192.605C50.0672 196.099 49.2206 199.107 47.1312 201.233C46.9511 201.395 46.9511 201.431 46.9511 201.485C46.9511 201.593 47.0411 201.629 47.1132 201.629C47.3474 201.629 48.8244 200.332 49.707 198.567C50.6256 196.73 51.0399 194.784 51.0399 192.623Z" fill="black"/>
<path d="M60.8648 181.429C61.4652 180.516 61.9215 180.42 62.4019 180.396C62.5339 180.384 62.582 180.264 62.582 180.168C62.582 180.132 62.558 180 62.4139 180C62.2698 180 62.3178 180.036 61.4412 180.036C60.6727 180.036 60.3484 180 60.3004 180C60.2404 180 60.0602 180 60.0602 180.228C60.0602 180.384 60.2163 180.396 60.2764 180.396C60.6006 180.42 60.7567 180.54 60.7567 180.757C60.7567 180.949 60.6486 181.105 60.5886 181.201L56.6859 187.109L55.6892 180.937C55.6772 180.829 55.6652 180.769 55.6652 180.733C55.6652 180.576 55.8453 180.396 56.4577 180.396C56.6018 180.396 56.758 180.396 56.758 180.168C56.758 180.12 56.7219 180 56.5658 180C56.4577 180 55.9774 180.024 55.8813 180.036H55.1248C54.0441 180.036 53.888 180 53.7799 180C53.7319 180 53.5517 180 53.5517 180.228C53.5517 180.396 53.7078 180.396 53.888 180.396C54.5004 180.396 54.5124 180.504 54.5604 180.805L55.7372 188.118C55.7733 188.358 55.7853 188.454 56.0134 188.454C56.2176 188.454 56.2896 188.346 56.3737 188.214L60.8648 181.429Z" fill="black"/>
<path d="M63.8353 189.823H52.8192V190.363H63.8353V189.823Z" fill="black"/>
<path d="M64.5513 195.23C65.0917 194.33 65.5 194.222 65.8963 194.186C66.0043 194.174 66.1484 194.162 66.1484 193.958C66.1484 193.873 66.0764 193.789 65.9803 193.789C65.7762 193.789 65.9683 193.825 65.0197 193.825C64.2271 193.825 63.8789 193.789 63.8188 193.789C63.6267 193.789 63.5907 193.922 63.5907 194.018C63.5907 194.174 63.7588 194.186 63.7948 194.186C64.131 194.198 64.4312 194.318 64.4312 194.618C64.4312 194.774 64.3112 194.978 64.2511 195.074L60.9248 200.67L60.3604 194.702C60.3484 194.678 60.3364 194.594 60.3364 194.558C60.3364 194.378 60.5646 194.186 61.153 194.186C61.3331 194.186 61.4772 194.186 61.4772 193.958C61.4772 193.861 61.4052 193.789 61.2851 193.789C61.165 193.789 60.7207 193.813 60.6006 193.825H59.8801C58.8114 193.825 58.6793 193.789 58.5832 193.789C58.5352 193.789 58.343 193.789 58.343 194.018C58.343 194.186 58.4991 194.186 58.6793 194.186C59.1836 194.186 59.2196 194.282 59.2437 194.45C59.2437 194.474 59.3157 195.17 59.3157 195.206C59.3157 195.242 59.3157 195.302 59.2317 195.435L56.1095 200.67L55.5451 194.762C55.5451 194.702 55.5331 194.606 55.5331 194.546C55.5331 194.45 55.6292 194.186 56.3617 194.186C56.4938 194.186 56.6619 194.186 56.6619 193.958C56.6619 193.861 56.5778 193.789 56.4697 193.789C56.3497 193.789 55.9054 193.813 55.7853 193.825H55.0648C53.96 193.825 53.912 193.789 53.7679 193.789C53.5757 193.789 53.5397 193.922 53.5397 194.018C53.5397 194.186 53.7078 194.186 53.8399 194.186C54.4043 194.186 54.4163 194.27 54.4403 194.57L55.1368 201.895C55.1608 202.123 55.1728 202.243 55.377 202.243C55.4731 202.243 55.5931 202.207 55.7252 201.991L59.3758 195.843L59.9522 201.907C59.9762 202.123 59.9882 202.243 60.1803 202.243C60.3845 202.243 60.4565 202.111 60.5286 201.991L64.5513 195.23Z" fill="black"/>
<path d="M67.3795 203.612H52.8192V204.153H67.3795V203.612Z" fill="black"/>
<path d="M73.2336 201.485C73.2336 201.431 73.2336 201.395 72.9273 201.089C71.1261 199.269 70.1174 196.297 70.1174 192.623C70.1174 189.128 70.964 186.12 73.0534 183.995C73.2336 183.833 73.2336 183.797 73.2336 183.743C73.2336 183.635 73.1435 183.599 73.0714 183.599C72.8373 183.599 71.3603 184.895 70.4777 186.661C69.559 188.48 69.1447 190.407 69.1447 192.623C69.1447 194.226 69.3969 196.369 70.3336 198.297C71.3963 200.458 72.8733 201.629 73.0714 201.629C73.1435 201.629 73.2336 201.593 73.2336 201.485Z" fill="black"/>
<path d="M82.7942 189.795L81.1011 185.85C81.3352 185.418 81.8756 185.346 82.0918 185.328C82.1998 185.328 82.398 185.31 82.398 185.003C82.398 184.805 82.2359 184.805 82.1278 184.805C81.8216 184.805 81.4613 184.841 81.1551 184.841H80.1104C79.0116 184.841 78.2191 184.805 78.2011 184.805C78.057 184.805 77.8768 184.805 77.8768 185.148C77.8768 185.328 78.039 185.328 78.2731 185.328C79.3178 185.328 79.3899 185.508 79.57 185.94L81.7135 190.948L77.8048 195.126C77.1564 195.829 76.3818 196.513 75.0489 196.585C74.8327 196.603 74.6886 196.603 74.6886 196.928C74.6886 196.982 74.7067 197.108 74.9048 197.108C75.157 197.108 75.4272 197.072 75.6793 197.072H76.5259C77.1023 197.072 77.7328 197.108 78.2911 197.108C78.4172 197.108 78.6334 197.108 78.6334 196.784C78.6334 196.603 78.5073 196.585 78.3992 196.585C78.039 196.549 77.8048 196.351 77.8048 196.063C77.8048 195.757 78.0209 195.541 78.5433 195L80.1464 193.253C80.5427 192.839 81.4974 191.794 81.8936 191.398L83.7849 195.829C83.8029 195.865 83.875 196.045 83.875 196.063C83.875 196.225 83.4787 196.549 82.9023 196.585C82.7942 196.585 82.5961 196.603 82.5961 196.928C82.5961 197.108 82.7762 197.108 82.8663 197.108C83.1725 197.108 83.5328 197.072 83.839 197.072H85.8203C86.1446 197.072 86.4868 197.108 86.793 197.108C86.9191 197.108 87.1172 197.108 87.1172 196.766C87.1172 196.585 86.9371 196.585 86.775 196.585C85.6943 196.567 85.6582 196.477 85.352 195.811L82.9744 190.227L85.262 187.777C85.4421 187.597 85.8564 187.147 86.0185 186.967C86.793 186.156 87.5135 185.418 88.9725 185.328C89.1526 185.31 89.3328 185.31 89.3328 185.003C89.3328 184.805 89.1707 184.805 89.0986 184.805C88.8464 184.805 88.5762 184.841 88.3241 184.841H87.4955C86.9191 184.841 86.2887 184.805 85.7303 184.805C85.6042 184.805 85.388 184.805 85.388 185.13C85.388 185.31 85.5141 185.328 85.6222 185.328C85.9104 185.364 86.2166 185.508 86.2166 185.85L86.1986 185.886C86.1806 186.012 86.1446 186.192 85.9464 186.408L82.7942 189.795Z" fill="black"/>
<path d="M95.3715 192.623C95.3715 191.254 95.1914 189.02 94.1827 186.931C93.12 184.769 91.643 183.599 91.4448 183.599C91.3728 183.599 91.2827 183.635 91.2827 183.743C91.2827 183.797 91.2827 183.833 91.5889 184.139C93.3902 185.958 94.3989 188.93 94.3989 192.605C94.3989 196.099 93.5523 199.107 91.4628 201.233C91.2827 201.395 91.2827 201.431 91.2827 201.485C91.2827 201.593 91.3728 201.629 91.4448 201.629C91.679 201.629 93.156 200.332 94.0386 198.567C94.9573 196.73 95.3715 194.784 95.3715 192.623Z" fill="black"/>
<path d="M105.196 193.037C105.797 192.124 106.253 192.028 106.733 192.004C106.866 191.992 106.914 191.872 106.914 191.776C106.914 191.74 106.89 191.608 106.746 191.608C106.601 191.608 106.649 191.644 105.773 191.644C105.004 191.644 104.68 191.608 104.632 191.608C104.572 191.608 104.392 191.608 104.392 191.836C104.392 191.992 104.548 192.004 104.608 192.004C104.932 192.028 105.088 192.148 105.088 192.365C105.088 192.557 104.98 192.713 104.92 192.809L101.018 198.717L100.021 192.545C100.009 192.437 99.9968 192.377 99.9968 192.341C99.9968 192.184 100.177 192.004 100.789 192.004C100.933 192.004 101.09 192.004 101.09 191.776C101.09 191.728 101.054 191.608 100.897 191.608C100.789 191.608 100.309 191.632 100.213 191.644H99.4565C98.3757 191.644 98.2196 191.608 98.1115 191.608C98.0635 191.608 97.8834 191.608 97.8834 191.836C97.8834 192.004 98.0395 192.004 98.2196 192.004C98.832 192.004 98.844 192.112 98.8921 192.413L100.069 199.726C100.105 199.966 100.117 200.062 100.345 200.062C100.549 200.062 100.621 199.954 100.705 199.822L105.196 193.037Z" fill="black"/>
<path d="M108.167 201.431H97.1509V201.971H108.167V201.431Z" fill="black"/>
<path d="M125.329 191.272C125.581 191.272 125.905 191.272 125.905 190.948C125.905 190.605 125.599 190.605 125.329 190.605H114.719C114.467 190.605 114.143 190.605 114.143 190.93C114.143 191.272 114.449 191.272 114.719 191.272H125.329ZM125.329 194.622C125.581 194.622 125.905 194.622 125.905 194.298C125.905 193.956 125.599 193.956 125.329 193.956H114.719C114.467 193.956 114.143 193.956 114.143 194.28C114.143 194.622 114.449 194.622 114.719 194.622H125.329Z" fill="black"/>
<path d="M137.745 201.485C137.745 201.431 137.745 201.395 137.439 201.089C135.638 199.269 134.629 196.297 134.629 192.623C134.629 189.128 135.476 186.12 137.565 183.995C137.745 183.833 137.745 183.797 137.745 183.743C137.745 183.635 137.655 183.599 137.583 183.599C137.349 183.599 135.872 184.895 134.99 186.661C134.071 188.48 133.657 190.407 133.657 192.623C133.657 194.226 133.909 196.369 134.845 198.297C135.908 200.458 137.385 201.629 137.583 201.629C137.655 201.629 137.745 201.593 137.745 201.485Z" fill="black"/>
<path d="M144.1 191.236H145.829C147.198 191.236 147.306 191.542 147.306 192.064C147.306 192.298 147.27 192.551 147.18 192.947C147.144 193.019 147.126 193.109 147.126 193.145C147.126 193.271 147.198 193.343 147.324 193.343C147.468 193.343 147.486 193.271 147.558 192.983L148.603 188.786C148.603 188.714 148.549 188.606 148.423 188.606C148.261 188.606 148.243 188.678 148.171 188.984C147.793 190.335 147.432 190.713 145.865 190.713H144.226L145.397 186.048C145.559 185.418 145.595 185.364 146.333 185.364H148.747C150.999 185.364 151.323 186.03 151.323 187.309C151.323 187.417 151.323 187.813 151.269 188.282C151.251 188.354 151.215 188.588 151.215 188.66C151.215 188.804 151.305 188.858 151.413 188.858C151.539 188.858 151.611 188.786 151.647 188.462L152.025 185.31C152.025 185.256 152.061 185.075 152.061 185.039C152.061 184.841 151.899 184.841 151.575 184.841H143.037C142.695 184.841 142.515 184.841 142.515 185.166C142.515 185.364 142.641 185.364 142.947 185.364C144.064 185.364 144.064 185.49 144.064 185.688C144.064 185.778 144.046 185.85 143.992 186.048L141.56 195.775C141.398 196.405 141.362 196.585 140.101 196.585C139.759 196.585 139.579 196.585 139.579 196.91C139.579 197.108 139.741 197.108 139.849 197.108C140.191 197.108 140.551 197.072 140.894 197.072H143.235C143.632 197.072 144.064 197.108 144.46 197.108C144.622 197.108 144.838 197.108 144.838 196.784C144.838 196.585 144.73 196.585 144.334 196.585C142.911 196.585 142.875 196.459 142.875 196.189C142.875 196.099 142.911 195.955 142.947 195.829L144.1 191.236Z" fill="black"/>
<path d="M158.471 201.485C158.471 201.431 158.471 201.395 158.165 201.089C156.364 199.269 155.355 196.297 155.355 192.623C155.355 189.128 156.202 186.12 158.291 183.995C158.471 183.833 158.471 183.797 158.471 183.743C158.471 183.635 158.381 183.599 158.309 183.599C158.075 183.599 156.598 184.895 155.715 186.661C154.797 188.48 154.382 190.407 154.382 192.623C154.382 194.226 154.634 196.369 155.571 198.297C156.634 200.458 158.111 201.629 158.309 201.629C158.381 201.629 158.471 201.593 158.471 201.485Z" fill="black"/>
<path d="M170.626 186.805C171.238 185.832 171.796 185.4 172.715 185.328C172.895 185.31 173.039 185.31 173.039 184.985C173.039 184.913 173.003 184.805 172.841 184.805C172.517 184.805 171.742 184.841 171.418 184.841C170.896 184.841 170.355 184.805 169.851 184.805C169.707 184.805 169.527 184.805 169.527 185.148C169.527 185.31 169.689 185.328 169.761 185.328C170.427 185.382 170.499 185.706 170.499 185.922C170.499 186.192 170.247 186.607 170.229 186.625L164.573 195.595L163.313 185.886C163.313 185.364 164.249 185.328 164.447 185.328C164.717 185.328 164.88 185.328 164.88 184.985C164.88 184.805 164.681 184.805 164.627 184.805C164.321 184.805 163.961 184.841 163.655 184.841H162.646C161.331 184.841 160.791 184.805 160.773 184.805C160.665 184.805 160.449 184.805 160.449 185.13C160.449 185.328 160.575 185.328 160.863 185.328C161.781 185.328 161.836 185.49 161.89 185.94L163.331 197.054C163.385 197.432 163.385 197.486 163.637 197.486C163.853 197.486 163.943 197.432 164.123 197.144L170.626 186.805Z" fill="black"/>
<path d="M173.677 199.269H159.476V199.99H173.677V199.269Z" fill="black"/>
<path d="M179.531 201.485C179.531 201.431 179.531 201.395 179.225 201.089C177.424 199.269 176.415 196.297 176.415 192.623C176.415 189.128 177.262 186.12 179.351 183.995C179.531 183.833 179.531 183.797 179.531 183.743C179.531 183.635 179.441 183.599 179.369 183.599C179.135 183.599 177.658 184.895 176.775 186.661C175.857 188.48 175.442 190.407 175.442 192.623C175.442 194.226 175.695 196.369 176.631 198.297C177.694 200.458 179.171 201.629 179.369 201.629C179.441 201.629 179.531 201.593 179.531 201.485Z" fill="black"/>
<path d="M189.092 189.795L187.399 185.85C187.633 185.418 188.173 185.346 188.389 185.328C188.498 185.328 188.696 185.31 188.696 185.003C188.696 184.805 188.534 184.805 188.426 184.805C188.119 184.805 187.759 184.841 187.453 184.841H186.408C185.309 184.841 184.517 184.805 184.499 184.805C184.355 184.805 184.175 184.805 184.175 185.148C184.175 185.328 184.337 185.328 184.571 185.328C185.616 185.328 185.688 185.508 185.868 185.94L188.011 190.948L184.103 195.126C183.454 195.829 182.68 196.513 181.347 196.585C181.13 196.603 180.986 196.603 180.986 196.928C180.986 196.982 181.004 197.108 181.203 197.108C181.455 197.108 181.725 197.072 181.977 197.072H182.824C183.4 197.072 184.03 197.108 184.589 197.108C184.715 197.108 184.931 197.108 184.931 196.784C184.931 196.603 184.805 196.585 184.697 196.585C184.337 196.549 184.103 196.351 184.103 196.063C184.103 195.757 184.319 195.541 184.841 195L186.444 193.253C186.84 192.839 187.795 191.794 188.191 191.398L190.083 195.829C190.101 195.865 190.173 196.045 190.173 196.063C190.173 196.225 189.776 196.549 189.2 196.585C189.092 196.585 188.894 196.603 188.894 196.928C188.894 197.108 189.074 197.108 189.164 197.108C189.47 197.108 189.83 197.072 190.137 197.072H192.118C192.442 197.072 192.785 197.108 193.091 197.108C193.217 197.108 193.415 197.108 193.415 196.766C193.415 196.585 193.235 196.585 193.073 196.585C191.992 196.567 191.956 196.477 191.65 195.811L189.272 190.227L191.56 187.777C191.74 187.597 192.154 187.147 192.316 186.967C193.091 186.156 193.811 185.418 195.27 185.328C195.45 185.31 195.63 185.31 195.63 185.003C195.63 184.805 195.468 184.805 195.396 184.805C195.144 184.805 194.874 184.841 194.622 184.841H193.793C193.217 184.841 192.586 184.805 192.028 184.805C191.902 184.805 191.686 184.805 191.686 185.13C191.686 185.31 191.812 185.328 191.92 185.328C192.208 185.364 192.514 185.508 192.514 185.85L192.496 185.886C192.478 186.012 192.442 186.192 192.244 186.408L189.092 189.795Z" fill="black"/>
<path d="M201.669 192.623C201.669 191.254 201.489 189.02 200.48 186.931C199.418 184.769 197.941 183.599 197.743 183.599C197.67 183.599 197.58 183.635 197.58 183.743C197.58 183.797 197.58 183.833 197.887 184.139C199.688 185.958 200.697 188.93 200.697 192.605C200.697 196.099 199.85 199.107 197.761 201.233C197.58 201.395 197.58 201.431 197.58 201.485C197.58 201.593 197.67 201.629 197.743 201.629C197.977 201.629 199.454 200.332 200.336 198.567C201.255 196.73 201.669 194.784 201.669 192.623Z" fill="black"/>
<path d="M211.494 193.037C212.095 192.124 212.551 192.028 213.031 192.004C213.163 191.992 213.211 191.872 213.211 191.776C213.211 191.74 213.187 191.608 213.043 191.608C212.899 191.608 212.947 191.644 212.071 191.644C211.302 191.644 210.978 191.608 210.93 191.608C210.87 191.608 210.69 191.608 210.69 191.836C210.69 191.992 210.846 192.004 210.906 192.004C211.23 192.028 211.386 192.148 211.386 192.365C211.386 192.557 211.278 192.713 211.218 192.809L207.315 198.717L206.319 192.545C206.307 192.437 206.295 192.377 206.295 192.341C206.295 192.184 206.475 192.004 207.087 192.004C207.231 192.004 207.387 192.004 207.387 191.776C207.387 191.728 207.351 191.608 207.195 191.608C207.087 191.608 206.607 191.632 206.511 191.644H205.754C204.673 191.644 204.517 191.608 204.409 191.608C204.361 191.608 204.181 191.608 204.181 191.836C204.181 192.004 204.337 192.004 204.517 192.004C205.13 192.004 205.142 192.112 205.19 192.413L206.367 199.726C206.403 199.966 206.415 200.062 206.643 200.062C206.847 200.062 206.919 199.954 207.003 199.822L211.494 193.037Z" fill="black"/>
<path d="M214.465 201.431H203.449V201.971H214.465V201.431Z" fill="black"/>
<path d="M219.544 192.623C219.544 191.254 219.364 189.02 218.355 186.931C217.293 184.769 215.816 183.599 215.617 183.599C215.545 183.599 215.455 183.635 215.455 183.743C215.455 183.797 215.455 183.833 215.762 184.139C217.563 185.958 218.572 188.93 218.572 192.605C218.572 196.099 217.725 199.107 215.635 201.233C215.455 201.395 215.455 201.431 215.455 201.485C215.455 201.593 215.545 201.629 215.617 201.629C215.852 201.629 217.329 200.332 218.211 198.567C219.13 196.73 219.544 194.784 219.544 192.623Z" fill="black"/>
<path d="M226.403 192.623C226.403 191.254 226.223 189.02 225.214 186.931C224.151 184.769 222.674 183.599 222.476 183.599C222.404 183.599 222.314 183.635 222.314 183.743C222.314 183.797 222.314 183.833 222.62 184.139C224.422 185.958 225.43 188.93 225.43 192.605C225.43 196.099 224.584 199.107 222.494 201.233C222.314 201.395 222.314 201.431 222.314 201.485C222.314 201.593 222.404 201.629 222.476 201.629C222.71 201.629 224.187 200.332 225.07 198.567C225.989 196.73 226.403 194.784 226.403 192.623Z" fill="black"/>
<path d="M244.448 186.805C244.862 186.102 245.258 185.436 246.339 185.328C246.501 185.31 246.663 185.292 246.663 185.003C246.663 184.805 246.501 184.805 246.447 184.805C246.411 184.805 246.285 184.841 245.096 184.841C244.556 184.841 243.997 184.805 243.475 184.805C243.367 184.805 243.151 184.805 243.151 185.148C243.151 185.31 243.295 185.328 243.403 185.328C243.763 185.346 244.34 185.454 244.34 186.012C244.34 186.246 244.267 186.372 244.087 186.679L239.17 195.289L238.522 185.904C238.522 185.688 238.72 185.346 239.728 185.328C239.963 185.328 240.143 185.328 240.143 184.985C240.143 184.805 239.963 184.805 239.872 184.805C239.242 184.805 238.576 184.841 237.927 184.841H236.99C236.72 184.841 236.396 184.805 236.126 184.805C236.018 184.805 235.802 184.805 235.802 185.148C235.802 185.328 235.928 185.328 236.234 185.328C237.063 185.328 237.063 185.346 237.135 186.444L237.189 187.093L232.523 195.289L231.857 185.994C231.857 185.796 231.857 185.346 233.082 185.328C233.28 185.328 233.478 185.328 233.478 185.003C233.478 184.805 233.316 184.805 233.208 184.805C232.577 184.805 231.911 184.841 231.263 184.841H230.326C230.056 184.841 229.731 184.805 229.461 184.805C229.353 184.805 229.137 184.805 229.137 185.148C229.137 185.328 229.281 185.328 229.533 185.328C230.38 185.328 230.398 185.436 230.434 186.012L231.226 197.072C231.244 197.378 231.263 197.486 231.479 197.486C231.659 197.486 231.695 197.414 231.857 197.144L237.225 187.759L237.891 197.072C237.909 197.378 237.927 197.486 238.143 197.486C238.323 197.486 238.377 197.396 238.522 197.144L244.448 186.805Z" fill="black"/>
<path d="M247.283 199.269H228.182V199.99H247.283V199.269Z" fill="black"/>
<path d="M264.445 191.272C264.697 191.272 265.021 191.272 265.021 190.948C265.021 190.605 264.715 190.605 264.445 190.605H253.835C253.583 190.605 253.259 190.605 253.259 190.93C253.259 191.272 253.565 191.272 253.835 191.272H264.445ZM264.445 194.622C264.697 194.622 265.021 194.622 265.021 194.298C265.021 193.956 264.715 193.956 264.445 193.956H253.835C253.583 193.956 253.259 193.956 253.259 194.28C253.259 194.622 253.565 194.622 253.835 194.622H264.445Z" fill="black"/>
<path d="M276.861 201.485C276.861 201.431 276.861 201.395 276.555 201.089C274.754 199.269 273.745 196.297 273.745 192.623C273.745 189.128 274.592 186.12 276.681 183.995C276.861 183.833 276.861 183.797 276.861 183.743C276.861 183.635 276.771 183.599 276.699 183.599C276.465 183.599 274.988 184.895 274.105 186.661C273.187 188.48 272.773 190.407 272.773 192.623C272.773 194.226 273.025 196.369 273.961 198.297C275.024 200.458 276.501 201.629 276.699 201.629C276.771 201.629 276.861 201.593 276.861 201.485Z" fill="black"/>
<path d="M283.216 191.236H284.945C286.314 191.236 286.422 191.542 286.422 192.064C286.422 192.298 286.386 192.551 286.296 192.947C286.26 193.019 286.242 193.109 286.242 193.145C286.242 193.271 286.314 193.343 286.44 193.343C286.584 193.343 286.602 193.271 286.674 192.983L287.719 188.786C287.719 188.714 287.665 188.606 287.539 188.606C287.377 188.606 287.359 188.678 287.287 188.984C286.908 190.335 286.548 190.713 284.981 190.713H283.342L284.513 186.048C284.675 185.418 284.711 185.364 285.449 185.364H287.863C290.115 185.364 290.439 186.03 290.439 187.309C290.439 187.417 290.439 187.813 290.385 188.282C290.367 188.354 290.331 188.588 290.331 188.66C290.331 188.804 290.421 188.858 290.529 188.858C290.655 188.858 290.727 188.786 290.763 188.462L291.141 185.31C291.141 185.256 291.177 185.075 291.177 185.039C291.177 184.841 291.015 184.841 290.691 184.841H282.153C281.811 184.841 281.631 184.841 281.631 185.166C281.631 185.364 281.757 185.364 282.063 185.364C283.18 185.364 283.18 185.49 283.18 185.688C283.18 185.778 283.162 185.85 283.108 186.048L280.676 195.775C280.514 196.405 280.478 196.585 279.217 196.585C278.875 196.585 278.695 196.585 278.695 196.91C278.695 197.108 278.857 197.108 278.965 197.108C279.307 197.108 279.667 197.072 280.01 197.072H282.351C282.748 197.072 283.18 197.108 283.576 197.108C283.738 197.108 283.954 197.108 283.954 196.784C283.954 196.585 283.846 196.585 283.45 196.585C282.027 196.585 281.991 196.459 281.991 196.189C281.991 196.099 282.027 195.955 282.063 195.829L283.216 191.236Z" fill="black"/>
<path d="M297.587 201.485C297.587 201.431 297.587 201.395 297.281 201.089C295.48 199.269 294.471 196.297 294.471 192.623C294.471 189.128 295.317 186.12 297.407 183.995C297.587 183.833 297.587 183.797 297.587 183.743C297.587 183.635 297.497 183.599 297.425 183.599C297.191 183.599 295.714 184.895 294.831 186.661C293.912 188.48 293.498 190.407 293.498 192.623C293.498 194.226 293.75 196.369 294.687 198.297C295.75 200.458 297.227 201.629 297.425 201.629C297.497 201.629 297.587 201.593 297.587 201.485Z" fill="black"/>
<path d="M307.148 189.795L305.454 185.85C305.689 185.418 306.229 185.346 306.445 185.328C306.553 185.328 306.751 185.31 306.751 185.003C306.751 184.805 306.589 184.805 306.481 184.805C306.175 184.805 305.815 184.841 305.509 184.841H304.464C303.365 184.841 302.572 184.805 302.554 184.805C302.41 184.805 302.23 184.805 302.23 185.148C302.23 185.328 302.392 185.328 302.627 185.328C303.671 185.328 303.743 185.508 303.923 185.94L306.067 190.948L302.158 195.126C301.51 195.829 300.735 196.513 299.402 196.585C299.186 196.603 299.042 196.603 299.042 196.928C299.042 196.982 299.06 197.108 299.258 197.108C299.51 197.108 299.781 197.072 300.033 197.072H300.879C301.456 197.072 302.086 197.108 302.645 197.108C302.771 197.108 302.987 197.108 302.987 196.784C302.987 196.603 302.861 196.585 302.753 196.585C302.392 196.549 302.158 196.351 302.158 196.063C302.158 195.757 302.374 195.541 302.897 195L304.5 193.253C304.896 192.839 305.851 191.794 306.247 191.398L308.138 195.829C308.156 195.865 308.228 196.045 308.228 196.063C308.228 196.225 307.832 196.549 307.256 196.585C307.148 196.585 306.95 196.603 306.95 196.928C306.95 197.108 307.13 197.108 307.22 197.108C307.526 197.108 307.886 197.072 308.192 197.072H310.174C310.498 197.072 310.84 197.108 311.146 197.108C311.273 197.108 311.471 197.108 311.471 196.766C311.471 196.585 311.291 196.585 311.128 196.585C310.048 196.567 310.012 196.477 309.705 195.811L307.328 190.227L309.615 187.777C309.795 187.597 310.21 187.147 310.372 186.967C311.146 186.156 311.867 185.418 313.326 185.328C313.506 185.31 313.686 185.31 313.686 185.003C313.686 184.805 313.524 184.805 313.452 184.805C313.2 184.805 312.93 184.841 312.677 184.841H311.849C311.273 184.841 310.642 184.805 310.084 184.805C309.958 184.805 309.741 184.805 309.741 185.13C309.741 185.31 309.868 185.328 309.976 185.328C310.264 185.364 310.57 185.508 310.57 185.85L310.552 185.886C310.534 186.012 310.498 186.192 310.3 186.408L307.148 189.795Z" fill="black"/>
<path d="M319.725 192.623C319.725 191.254 319.545 189.02 318.536 186.931C317.473 184.769 315.996 183.599 315.798 183.599C315.726 183.599 315.636 183.635 315.636 183.743C315.636 183.797 315.636 183.833 315.942 184.139C317.744 185.958 318.752 188.93 318.752 192.605C318.752 196.099 317.906 199.107 315.816 201.233C315.636 201.395 315.636 201.431 315.636 201.485C315.636 201.593 315.726 201.629 315.798 201.629C316.032 201.629 317.509 200.332 318.392 198.567C319.311 196.73 319.725 194.784 319.725 192.623Z" fill="black"/>
<path d="M326.584 192.623C326.584 191.254 326.404 189.02 325.395 186.931C324.332 184.769 322.855 183.599 322.657 183.599C322.585 183.599 322.495 183.635 322.495 183.743C322.495 183.797 322.495 183.833 322.801 184.139C324.602 185.958 325.611 188.93 325.611 192.605C325.611 196.099 324.765 199.107 322.675 201.233C322.495 201.395 322.495 201.431 322.495 201.485C322.495 201.593 322.585 201.629 322.657 201.629C322.891 201.629 324.368 200.332 325.251 198.567C326.17 196.73 326.584 194.784 326.584 192.623Z" fill="black"/>
<path d="M340.095 193.049C340.636 192.148 341.044 192.04 341.44 192.004C341.548 191.992 341.692 191.98 341.692 191.776C341.692 191.692 341.62 191.608 341.524 191.608C341.32 191.608 341.512 191.644 340.564 191.644C339.771 191.644 339.423 191.608 339.363 191.608C339.171 191.608 339.135 191.74 339.135 191.836C339.135 191.992 339.303 192.004 339.339 192.004C339.675 192.016 339.975 192.136 339.975 192.437C339.975 192.593 339.855 192.797 339.795 192.893L336.469 198.489L335.904 192.521C335.892 192.497 335.88 192.413 335.88 192.377C335.88 192.196 336.109 192.004 336.697 192.004C336.877 192.004 337.021 192.004 337.021 191.776C337.021 191.68 336.949 191.608 336.829 191.608C336.709 191.608 336.265 191.632 336.145 191.644H335.424C334.355 191.644 334.223 191.608 334.127 191.608C334.079 191.608 333.887 191.608 333.887 191.836C333.887 192.004 334.043 192.004 334.223 192.004C334.728 192.004 334.764 192.1 334.788 192.268C334.788 192.293 334.86 192.989 334.86 193.025C334.86 193.061 334.86 193.121 334.776 193.253L331.653 198.489L331.089 192.581C331.089 192.521 331.077 192.425 331.077 192.365C331.077 192.268 331.173 192.004 331.906 192.004C332.038 192.004 332.206 192.004 332.206 191.776C332.206 191.68 332.122 191.608 332.014 191.608C331.894 191.608 331.449 191.632 331.329 191.644H330.609C329.504 191.644 329.456 191.608 329.312 191.608C329.12 191.608 329.084 191.74 329.084 191.836C329.084 192.004 329.252 192.004 329.384 192.004C329.948 192.004 329.96 192.088 329.984 192.389L330.681 199.714C330.705 199.942 330.717 200.062 330.921 200.062C331.017 200.062 331.137 200.026 331.269 199.81L334.92 193.661L335.496 199.726C335.52 199.942 335.532 200.062 335.724 200.062C335.928 200.062 336 199.93 336.073 199.81L340.095 193.049Z" fill="black"/>
<path d="M342.923 201.431H328.363V201.971H342.923V201.431Z" fill="black"/>
</svg>
