<svg width="327" height="160" viewBox="0 0 327 160" fill="none" xmlns="http://www.w3.org/2000/svg">
<rect width="327" height="160" fill="white"/>
<path d="M23.495 55.5845C23.8913 55.5845 23.9994 55.5845 23.9994 55.3324C24.0354 42.7056 25.4944 32.2224 31.7988 23.4143C31.9249 23.2522 31.9249 23.2161 31.9249 23.1801C31.9249 23 31.7988 23 31.5106 23C31.2224 23 31.1864 23 31.1503 23.036C31.0783 23.0901 28.7907 25.7199 26.9714 29.3404C24.5938 34.0957 23.0988 39.5534 22.4323 46.11C22.3783 46.6684 22 50.415 22 54.6839V55.3864C22.018 55.5845 22.1261 55.5845 22.5043 55.5845H23.495Z" fill="black"/>
<path d="M22.5043 55.2246C22.1261 55.2246 22.018 55.2246 22 55.4227V56.1252C22 67.1308 23.9634 73.5793 24.5217 75.3985C25.7466 79.3973 27.746 83.6122 30.7541 87.3228C31.0242 87.647 31.0963 87.7371 31.1683 87.7731C31.2044 87.7911 31.2224 87.8091 31.5106 87.8091C31.7988 87.8091 31.9249 87.8091 31.9249 87.629C31.9249 87.593 31.9249 87.5569 31.8168 87.3948C25.8186 79.0731 24.0174 69.0582 23.9994 55.4768C23.9994 55.2246 23.8913 55.2246 23.495 55.2246H22.5043Z" fill="black"/>
<path d="M40.751 31.256C40.751 30.1212 40.1746 30.0492 40.0305 30.0492C39.5982 30.0492 39.2019 30.4815 39.2019 30.8417C39.2019 31.0579 39.328 31.1839 39.4001 31.256C39.5802 31.4181 40.0485 31.9044 40.0485 32.8411C40.0485 33.5976 38.9678 37.8125 36.8063 37.8125C35.7075 37.8125 35.4914 36.8939 35.4914 36.2274C35.4914 35.3268 35.9057 34.0659 36.392 32.769C36.6802 32.0305 36.7523 31.8504 36.7523 31.4902C36.7523 30.7336 36.2119 30.0492 35.3293 30.0492C33.6721 30.0492 33.0057 32.661 33.0057 32.8051C33.0057 32.8771 33.0777 32.9672 33.2038 32.9672C33.3659 32.9672 33.3839 32.8951 33.456 32.643C33.8883 31.0939 34.5908 30.4094 35.2752 30.4094C35.4373 30.4094 35.7436 30.4094 35.7436 31.0038C35.7436 31.4721 35.5454 31.9945 35.2752 32.679C34.4106 34.9846 34.4106 35.543 34.4106 35.9753C34.4106 36.3715 34.4647 37.11 35.0231 37.6144C35.6715 38.1728 36.5721 38.1728 36.7342 38.1728C39.7243 38.1728 40.751 32.2827 40.751 31.256Z" fill="black"/>
<path d="M44.8166 33.0452C44.8166 32.721 44.7925 32.709 44.4683 32.709C43.976 33.1893 43.3395 33.4775 42.1988 33.4775V33.8738C42.523 33.8738 43.1714 33.8738 43.8679 33.5496V39.7098C43.8679 40.1541 43.8319 40.2982 42.6911 40.2982H42.2708V40.6945C42.7631 40.6585 43.7959 40.6585 44.3362 40.6585C44.8766 40.6585 45.9213 40.6585 46.4137 40.6945V40.2982H45.9934C44.8526 40.2982 44.8166 40.1541 44.8166 39.7098V33.0452Z" fill="black"/>
<path d="M40.751 53.021C40.751 51.8862 40.1746 51.8142 40.0305 51.8142C39.5982 51.8142 39.2019 52.2465 39.2019 52.6067C39.2019 52.8229 39.328 52.949 39.4001 53.021C39.5802 53.1831 40.0485 53.6695 40.0485 54.6061C40.0485 55.3626 38.9678 59.5775 36.8063 59.5775C35.7075 59.5775 35.4914 58.6589 35.4914 57.9925C35.4914 57.0918 35.9057 55.831 36.392 54.5341C36.6802 53.7955 36.7523 53.6154 36.7523 53.2552C36.7523 52.4987 36.2119 51.8142 35.3293 51.8142C33.6721 51.8142 33.0057 54.426 33.0057 54.5701C33.0057 54.6421 33.0777 54.7322 33.2038 54.7322C33.3659 54.7322 33.3839 54.6601 33.456 54.408C33.8883 52.8589 34.5908 52.1744 35.2752 52.1744C35.4373 52.1744 35.7436 52.1744 35.7436 52.7688C35.7436 53.2372 35.5454 53.7595 35.2752 54.444C34.4106 56.7496 34.4106 57.308 34.4106 57.7403C34.4106 58.1365 34.4647 58.8751 35.0231 59.3794C35.6715 59.9378 36.5721 59.9378 36.7342 59.9378C39.7243 59.9378 40.751 54.0477 40.751 53.021Z" fill="black"/>
<path d="M44.4323 60.0098C44.6244 59.8297 45.1288 59.4334 45.3209 59.2653C46.0654 58.5808 46.7739 57.9204 46.7739 56.8276C46.7739 55.3986 45.5731 54.474 44.072 54.474C42.6311 54.474 41.6824 55.5668 41.6824 56.6355C41.6824 57.2239 42.1507 57.308 42.3188 57.308C42.571 57.308 42.9433 57.1278 42.9433 56.6715C42.9433 56.0471 42.3429 56.0471 42.1988 56.0471C42.547 55.1705 43.3516 54.8703 43.94 54.8703C45.0567 54.8703 45.6331 55.8189 45.6331 56.8276C45.6331 58.0765 44.7565 58.9891 43.3395 60.4421L41.8265 62.0032C41.6824 62.1353 41.6824 62.1593 41.6824 62.4595H46.4257L46.7739 60.31H46.4017C46.3656 60.5502 46.2696 61.1506 46.1255 61.3788C46.0534 61.4748 45.1408 61.4748 44.9487 61.4748H42.8112L44.4323 60.0098Z" fill="black"/>
<path d="M40.751 74.786C40.751 73.6513 40.1746 73.5792 40.0305 73.5792C39.5982 73.5792 39.2019 74.0115 39.2019 74.3718C39.2019 74.5879 39.328 74.714 39.4001 74.786C39.5802 74.9482 40.0485 75.4345 40.0485 76.3711C40.0485 77.1277 38.9678 81.3426 36.8063 81.3426C35.7075 81.3426 35.4914 80.4239 35.4914 79.7575C35.4914 78.8569 35.9057 77.596 36.392 76.2991C36.6802 75.5606 36.7523 75.3805 36.7523 75.0202C36.7523 74.2637 36.2119 73.5792 35.3293 73.5792C33.6721 73.5792 33.0057 76.191 33.0057 76.3351C33.0057 76.4072 33.0777 76.4972 33.2038 76.4972C33.3659 76.4972 33.3839 76.4252 33.456 76.173C33.8883 74.6239 34.5908 73.9395 35.2752 73.9395C35.4373 73.9395 35.7436 73.9395 35.7436 74.5339C35.7436 75.0022 35.5454 75.5246 35.2752 76.209C34.4106 78.5146 34.4106 79.073 34.4106 79.5053C34.4106 79.9016 34.4647 80.6401 35.0231 81.1444C35.6715 81.7028 36.5721 81.7028 36.7342 81.7028C39.7243 81.7028 40.751 75.8128 40.751 74.786Z" fill="black"/>
<path d="M44.0841 80.2138C45.0327 80.2138 45.6331 80.9103 45.6331 82.1711C45.6331 83.6722 44.7805 84.1165 44.1441 84.1165C43.4836 84.1165 42.583 83.8763 42.1627 83.2399C42.595 83.2399 42.8952 82.9637 42.8952 82.5674C42.8952 82.1831 42.619 81.9069 42.2348 81.9069C41.9106 81.9069 41.5743 82.1111 41.5743 82.5914C41.5743 83.7322 42.7992 84.4767 44.1681 84.4767C45.7652 84.4767 46.882 83.372 46.882 82.1711C46.882 81.1744 46.0894 80.2618 44.8646 79.9976C45.8133 79.6614 46.5217 78.8448 46.5217 77.8842C46.5217 76.9235 45.441 76.239 44.1921 76.239C42.9072 76.239 41.9346 76.9355 41.9346 77.8481C41.9346 78.2924 42.2348 78.4846 42.547 78.4846C42.9193 78.4846 43.1594 78.2204 43.1594 77.8722C43.1594 77.4279 42.7752 77.2597 42.511 77.2477C43.0153 76.5873 43.94 76.5512 44.1561 76.5512C44.4683 76.5512 45.381 76.6473 45.381 77.8842C45.381 78.7247 45.0327 79.2291 44.8646 79.4212C44.5044 79.7935 44.2282 79.8175 43.4957 79.8655C43.2675 79.8775 43.1714 79.8896 43.1714 80.0457C43.1714 80.2138 43.2795 80.2138 43.4836 80.2138H44.0841Z" fill="black"/>
<path d="M58.6772 54.6839C58.6772 43.6783 56.7139 37.2298 56.1555 35.4106C54.9306 31.4118 52.9313 27.1969 49.9232 23.4863C49.653 23.1621 49.5809 23.0721 49.5089 23.036C49.4729 23.018 49.4549 23 49.1667 23C48.8965 23 48.7524 23 48.7524 23.1801C48.7524 23.2161 48.7524 23.2522 48.9865 23.5764C55.2549 32.3305 56.6598 43.1379 56.6778 55.3324C56.6778 55.5845 56.7859 55.5845 57.1822 55.5845H58.1729C58.5511 55.5845 58.6592 55.5845 58.6772 55.3864V54.6839Z" fill="black"/>
<path d="M58.6772 55.4227C58.6592 55.2246 58.5511 55.2246 58.1729 55.2246H57.1822C56.7859 55.2246 56.6778 55.2246 56.6778 55.4768C56.6778 57.3321 56.6598 61.619 56.1915 66.1041C55.2188 75.4166 52.8232 81.865 48.8785 87.3948C48.7524 87.5569 48.7524 87.593 48.7524 87.629C48.7524 87.8091 48.8965 87.8091 49.1667 87.8091C49.4549 87.8091 49.4909 87.8091 49.5269 87.7731C49.599 87.7191 51.8865 85.0892 53.7058 81.4687C56.0834 76.7135 57.5785 71.2557 58.2449 64.6991C58.299 64.1408 58.6772 60.3942 58.6772 56.1252V55.4227Z" fill="black"/>
<path d="M74.9464 54.9004L71.344 51.3159C71.1278 51.0998 71.0918 51.0637 70.9477 51.0637C70.7676 51.0637 70.5874 51.2258 70.5874 51.424C70.5874 51.5501 70.6235 51.5861 70.8216 51.7842L74.4241 55.4047L70.8216 59.0252C70.6235 59.2234 70.5874 59.2594 70.5874 59.3855C70.5874 59.5836 70.7676 59.7457 70.9477 59.7457C71.0918 59.7457 71.1278 59.7097 71.344 59.4936L74.9284 55.9091L78.657 59.6377C78.693 59.6557 78.8191 59.7457 78.9272 59.7457C79.1433 59.7457 79.2874 59.5836 79.2874 59.3855C79.2874 59.3495 79.2874 59.2774 79.2334 59.1874C79.2154 59.1513 76.3514 56.3234 75.4508 55.4047L78.7471 52.1085C78.8371 52.0004 79.1073 51.7662 79.1974 51.6581C79.2154 51.6221 79.2874 51.5501 79.2874 51.424C79.2874 51.2258 79.1433 51.0637 78.9272 51.0637C78.7831 51.0637 78.7111 51.1358 78.5129 51.3339L74.9464 54.9004Z" fill="black"/>
<path d="M92.6887 55.5845C93.085 55.5845 93.1931 55.5845 93.1931 55.3324C93.2291 42.7056 94.6881 32.2224 100.992 23.4143C101.119 23.2522 101.119 23.2161 101.119 23.1801C101.119 23 100.992 23 100.704 23C100.416 23 100.38 23 100.344 23.036C100.272 23.0901 97.9844 25.7199 96.1651 29.3404C93.7875 34.0957 92.2924 39.5534 91.626 46.11C91.5719 46.6684 91.1937 50.415 91.1937 54.6839V55.3864C91.2117 55.5845 91.3198 55.5845 91.698 55.5845H92.6887Z" fill="black"/>
<path d="M91.698 55.2246C91.3198 55.2246 91.2117 55.2246 91.1937 55.4227V56.1252C91.1937 67.1308 93.157 73.5793 93.7154 75.3985C94.9403 79.3973 96.9397 83.6122 99.9477 87.3228C100.218 87.647 100.29 87.7371 100.362 87.7731C100.398 87.7911 100.416 87.8091 100.704 87.8091C100.992 87.8091 101.119 87.8091 101.119 87.629C101.119 87.593 101.119 87.5569 101.01 87.3948C95.0123 79.0731 93.2111 69.0582 93.1931 55.4768C93.1931 55.2246 93.085 55.2246 92.6887 55.2246H91.698Z" fill="black"/>
<path d="M107.909 36.8939C108.306 37.9746 109.422 38.1728 110.107 38.1728C111.476 38.1728 112.286 36.984 112.791 35.7411C113.205 34.6964 113.871 32.3187 113.871 31.256C113.871 30.1572 113.313 30.0492 113.151 30.0492C112.719 30.0492 112.322 30.4815 112.322 30.8417C112.322 31.0579 112.448 31.1839 112.538 31.256C112.701 31.4181 113.169 31.9044 113.169 32.8411C113.169 33.4535 112.665 35.1467 112.286 35.9933C111.782 37.092 111.116 37.8125 110.179 37.8125C109.17 37.8125 108.846 37.056 108.846 36.2274C108.846 35.7051 109.008 35.0746 109.08 34.7684L109.837 31.7423C109.927 31.3821 110.089 30.7516 110.089 30.6796C110.089 30.4094 109.873 30.2293 109.602 30.2293C109.08 30.2293 108.954 30.6796 108.846 31.1119C108.666 31.8144 107.909 34.8585 107.837 35.2548C107.765 35.561 107.765 35.7591 107.765 36.1554C107.765 36.5877 107.189 37.2722 107.171 37.3082C106.973 37.5063 106.684 37.8125 106.126 37.8125C104.703 37.8125 104.703 36.4616 104.703 36.1554C104.703 35.579 104.829 34.7864 105.64 32.643C105.856 32.0846 105.946 31.8504 105.946 31.4902C105.946 30.7336 105.406 30.0492 104.523 30.0492C102.866 30.0492 102.199 32.661 102.199 32.8051C102.199 32.8771 102.271 32.9672 102.397 32.9672C102.56 32.9672 102.578 32.8951 102.65 32.643C103.1 31.0579 103.802 30.4094 104.469 30.4094C104.649 30.4094 104.937 30.4274 104.937 31.0038C104.937 31.0939 104.937 31.4721 104.631 32.2647C103.784 34.5163 103.604 35.2548 103.604 35.9392C103.604 37.8305 105.153 38.1728 106.072 38.1728C106.378 38.1728 107.189 38.1728 107.909 36.8939Z" fill="black"/>
<path d="M118.091 33.0452C118.091 32.721 118.067 32.709 117.743 32.709C117.251 33.1893 116.614 33.4775 115.473 33.4775V33.8738C115.798 33.8738 116.446 33.8738 117.142 33.5496V39.7098C117.142 40.1541 117.106 40.2982 115.966 40.2982H115.545V40.6945C116.038 40.6585 117.07 40.6585 117.611 40.6585C118.151 40.6585 119.196 40.6585 119.688 40.6945V40.2982H119.268C118.127 40.2982 118.091 40.1541 118.091 39.7098V33.0452Z" fill="black"/>
<path d="M107.909 58.6589C108.306 59.7397 109.422 59.9378 110.107 59.9378C111.476 59.9378 112.286 58.749 112.791 57.5061C113.205 56.4614 113.871 54.0837 113.871 53.021C113.871 51.9223 113.313 51.8142 113.151 51.8142C112.719 51.8142 112.322 52.2465 112.322 52.6067C112.322 52.8229 112.448 52.949 112.538 53.021C112.701 53.1831 113.169 53.6695 113.169 54.6061C113.169 55.2185 112.665 56.9117 112.286 57.7583C111.782 58.857 111.116 59.5775 110.179 59.5775C109.17 59.5775 108.846 58.821 108.846 57.9925C108.846 57.4701 109.008 56.8397 109.08 56.5334L109.837 53.5073C109.927 53.1471 110.089 52.5167 110.089 52.4446C110.089 52.1744 109.873 51.9943 109.602 51.9943C109.08 51.9943 108.954 52.4446 108.846 52.8769C108.666 53.5794 107.909 56.6235 107.837 57.0198C107.765 57.326 107.765 57.5241 107.765 57.9204C107.765 58.3527 107.189 59.0372 107.171 59.0732C106.973 59.2713 106.684 59.5775 106.126 59.5775C104.703 59.5775 104.703 58.2266 104.703 57.9204C104.703 57.344 104.829 56.5515 105.64 54.408C105.856 53.8496 105.946 53.6154 105.946 53.2552C105.946 52.4987 105.406 51.8142 104.523 51.8142C102.866 51.8142 102.199 54.426 102.199 54.5701C102.199 54.6421 102.271 54.7322 102.397 54.7322C102.56 54.7322 102.578 54.6601 102.65 54.408C103.1 52.8229 103.802 52.1744 104.469 52.1744C104.649 52.1744 104.937 52.1924 104.937 52.7688C104.937 52.8589 104.937 53.2372 104.631 54.0297C103.784 56.2813 103.604 57.0198 103.604 57.7043C103.604 59.5956 105.153 59.9378 106.072 59.9378C106.378 59.9378 107.189 59.9378 107.909 58.6589Z" fill="black"/>
<path d="M117.707 60.0098C117.899 59.8297 118.403 59.4334 118.596 59.2653C119.34 58.5808 120.049 57.9204 120.049 56.8276C120.049 55.3986 118.848 54.474 117.347 54.474C115.906 54.474 114.957 55.5668 114.957 56.6355C114.957 57.2239 115.425 57.308 115.593 57.308C115.846 57.308 116.218 57.1278 116.218 56.6715C116.218 56.0471 115.617 56.0471 115.473 56.0471C115.822 55.1705 116.626 54.8703 117.215 54.8703C118.331 54.8703 118.908 55.8189 118.908 56.8276C118.908 58.0765 118.031 58.9891 116.614 60.4421L115.101 62.0032C114.957 62.1353 114.957 62.1593 114.957 62.4595H119.7L120.049 60.31H119.676C119.64 60.5502 119.544 61.1506 119.4 61.3788C119.328 61.4748 118.415 61.4748 118.223 61.4748H116.086L117.707 60.0098Z" fill="black"/>
<path d="M107.909 80.4239C108.306 81.5047 109.422 81.7028 110.107 81.7028C111.476 81.7028 112.286 80.514 112.791 79.2711C113.205 78.2264 113.871 75.8488 113.871 74.786C113.871 73.6873 113.313 73.5792 113.151 73.5792C112.719 73.5792 112.322 74.0115 112.322 74.3718C112.322 74.5879 112.448 74.714 112.538 74.786C112.701 74.9482 113.169 75.4345 113.169 76.3711C113.169 76.9836 112.665 78.6767 112.286 79.5233C111.782 80.6221 111.116 81.3426 110.179 81.3426C109.17 81.3426 108.846 80.5861 108.846 79.7575C108.846 79.2351 109.008 78.6047 109.08 78.2985L109.837 75.2724C109.927 74.9121 110.089 74.2817 110.089 74.2096C110.089 73.9395 109.873 73.7593 109.602 73.7593C109.08 73.7593 108.954 74.2096 108.846 74.6419C108.666 75.3444 107.909 78.3885 107.837 78.7848C107.765 79.091 107.765 79.2892 107.765 79.6854C107.765 80.1177 107.189 80.8022 107.171 80.8382C106.973 81.0364 106.684 81.3426 106.126 81.3426C104.703 81.3426 104.703 79.9916 104.703 79.6854C104.703 79.109 104.829 78.3165 105.64 76.173C105.856 75.6146 105.946 75.3805 105.946 75.0202C105.946 74.2637 105.406 73.5792 104.523 73.5792C102.866 73.5792 102.199 76.191 102.199 76.3351C102.199 76.4072 102.271 76.4972 102.397 76.4972C102.56 76.4972 102.578 76.4252 102.65 76.173C103.1 74.5879 103.802 73.9395 104.469 73.9395C104.649 73.9395 104.937 73.9575 104.937 74.5339C104.937 74.6239 104.937 75.0022 104.631 75.7947C103.784 78.0463 103.604 78.7848 103.604 79.4693C103.604 81.3606 105.153 81.7028 106.072 81.7028C106.378 81.7028 107.189 81.7028 107.909 80.4239Z" fill="black"/>
<path d="M117.359 80.2138C118.307 80.2138 118.908 80.9103 118.908 82.1711C118.908 83.6722 118.055 84.1165 117.419 84.1165C116.758 84.1165 115.858 83.8763 115.437 83.2399C115.87 83.2399 116.17 82.9637 116.17 82.5674C116.17 82.1831 115.894 81.9069 115.509 81.9069C115.185 81.9069 114.849 82.1111 114.849 82.5914C114.849 83.7322 116.074 84.4767 117.443 84.4767C119.04 84.4767 120.157 83.372 120.157 82.1711C120.157 81.1744 119.364 80.2618 118.139 79.9976C119.088 79.6614 119.796 78.8448 119.796 77.8842C119.796 76.9235 118.716 76.239 117.467 76.239C116.182 76.239 115.209 76.9355 115.209 77.8481C115.209 78.2924 115.509 78.4846 115.822 78.4846C116.194 78.4846 116.434 78.2204 116.434 77.8722C116.434 77.4279 116.05 77.2597 115.786 77.2477C116.29 76.5873 117.215 76.5512 117.431 76.5512C117.743 76.5512 118.656 76.6473 118.656 77.8842C118.656 78.7247 118.307 79.2291 118.139 79.4212C117.779 79.7935 117.503 79.8175 116.77 79.8655C116.542 79.8775 116.446 79.8896 116.446 80.0457C116.446 80.2138 116.554 80.2138 116.758 80.2138H117.359Z" fill="black"/>
<path d="M131.952 54.6839C131.952 43.6783 129.988 37.2298 129.43 35.4106C128.205 31.4118 126.206 27.1969 123.198 23.4863C122.928 23.1621 122.856 23.0721 122.783 23.036C122.747 23.018 122.729 23 122.441 23C122.171 23 122.027 23 122.027 23.1801C122.027 23.2161 122.027 23.2522 122.261 23.5764C128.529 32.3305 129.934 43.1379 129.952 55.3324C129.952 55.5845 130.061 55.5845 130.457 55.5845H131.447C131.826 55.5845 131.934 55.5845 131.952 55.3864V54.6839Z" fill="black"/>
<path d="M131.952 55.4227C131.934 55.2246 131.826 55.2246 131.447 55.2246H130.457C130.061 55.2246 129.952 55.2246 129.952 55.4768C129.952 57.3321 129.934 61.619 129.466 66.1041C128.493 75.4166 126.098 81.865 122.153 87.3948C122.027 87.5569 122.027 87.593 122.027 87.629C122.027 87.8091 122.171 87.8091 122.441 87.8091C122.729 87.8091 122.765 87.8091 122.801 87.7731C122.874 87.7191 125.161 85.0892 126.98 81.4687C129.358 76.7135 130.853 71.2557 131.52 64.6991C131.574 64.1408 131.952 60.3942 131.952 56.1252V55.4227Z" fill="black"/>
<path d="M154.373 54.0718C154.625 54.0718 154.95 54.0718 154.95 53.7476C154.95 53.4054 154.643 53.4054 154.373 53.4054H143.764C143.512 53.4054 143.188 53.4054 143.188 53.7296C143.188 54.0718 143.494 54.0718 143.764 54.0718H154.373ZM154.373 57.4221C154.625 57.4221 154.95 57.4221 154.95 57.0979C154.95 56.7557 154.643 56.7557 154.373 56.7557H143.764C143.512 56.7557 143.188 56.7557 143.188 57.0799C143.188 57.4221 143.494 57.4221 143.764 57.4221H154.373Z" fill="black"/>
<path d="M167.673 55.5845C168.069 55.5845 168.177 55.5845 168.177 55.3324C168.213 42.7056 169.672 32.2224 175.976 23.4143C176.102 23.2522 176.102 23.2161 176.102 23.1801C176.102 23 175.976 23 175.688 23C175.4 23 175.364 23 175.328 23.036C175.256 23.0901 172.968 25.7199 171.149 29.3404C168.771 34.0957 167.276 39.5534 166.61 46.11C166.556 46.6684 166.178 50.415 166.178 54.6839V55.3864C166.196 55.5845 166.304 55.5845 166.682 55.5845H167.673Z" fill="black"/>
<path d="M166.682 55.2246C166.304 55.2246 166.196 55.2246 166.178 55.4227V56.1252C166.178 67.1308 168.141 73.5793 168.699 75.3985C169.924 79.3973 171.924 83.6122 174.932 87.3228C175.202 87.647 175.274 87.7371 175.346 87.7731C175.382 87.7911 175.4 87.8091 175.688 87.8091C175.976 87.8091 176.102 87.8091 176.102 87.629C176.102 87.593 176.102 87.5569 175.994 87.3948C169.996 79.0731 168.195 69.0582 168.177 55.4768C168.177 55.2246 168.069 55.2246 167.673 55.2246H166.682Z" fill="black"/>
<path d="M184.929 31.256C184.929 30.1212 184.352 30.0492 184.208 30.0492C183.776 30.0492 183.379 30.4815 183.379 30.8417C183.379 31.0579 183.506 31.1839 183.578 31.256C183.758 31.4181 184.226 31.9044 184.226 32.8411C184.226 33.5976 183.145 37.8125 180.984 37.8125C179.885 37.8125 179.669 36.8939 179.669 36.2274C179.669 35.3268 180.083 34.0659 180.57 32.769C180.858 32.0305 180.93 31.8504 180.93 31.4902C180.93 30.7336 180.389 30.0492 179.507 30.0492C177.85 30.0492 177.183 32.661 177.183 32.8051C177.183 32.8771 177.255 32.9672 177.381 32.9672C177.543 32.9672 177.561 32.8951 177.634 32.643C178.066 31.0939 178.768 30.4094 179.453 30.4094C179.615 30.4094 179.921 30.4094 179.921 31.0038C179.921 31.4721 179.723 31.9945 179.453 32.679C178.588 34.9846 178.588 35.543 178.588 35.9753C178.588 36.3715 178.642 37.11 179.201 37.6144C179.849 38.1728 180.75 38.1728 180.912 38.1728C183.902 38.1728 184.929 32.2827 184.929 31.256Z" fill="black"/>
<path d="M188.61 38.2448C188.802 38.0647 189.306 37.6684 189.498 37.5003C190.243 36.8158 190.951 36.1554 190.951 35.0626C190.951 33.6336 189.751 32.709 188.25 32.709C186.809 32.709 185.86 33.8017 185.86 34.8705C185.86 35.4589 186.328 35.5429 186.496 35.5429C186.749 35.5429 187.121 35.3628 187.121 34.9065C187.121 34.2821 186.52 34.2821 186.376 34.2821C186.725 33.4055 187.529 33.1053 188.118 33.1053C189.234 33.1053 189.811 34.0539 189.811 35.0626C189.811 36.3115 188.934 37.2241 187.517 38.6771L186.004 40.2382C185.86 40.3703 185.86 40.3943 185.86 40.6945H190.603L190.951 38.545H190.579C190.543 38.7852 190.447 39.3856 190.303 39.6138C190.231 39.7098 189.318 39.7098 189.126 39.7098H186.989L188.61 38.2448Z" fill="black"/>
<path d="M199.815 33.4895C199.815 32.9672 199.382 32.5349 198.86 32.5349C198.338 32.5349 197.905 32.9672 197.905 33.4895C197.905 34.0119 198.338 34.4442 198.86 34.4442C199.382 34.4442 199.815 34.0119 199.815 33.4895Z" fill="black"/>
<path d="M211.559 36.8939C211.955 37.9746 213.072 38.1728 213.756 38.1728C215.125 38.1728 215.936 36.984 216.44 35.7411C216.854 34.6964 217.521 32.3187 217.521 31.256C217.521 30.1572 216.962 30.0492 216.8 30.0492C216.368 30.0492 215.972 30.4815 215.972 30.8417C215.972 31.0579 216.098 31.1839 216.188 31.256C216.35 31.4181 216.818 31.9044 216.818 32.8411C216.818 33.4535 216.314 35.1467 215.936 35.9933C215.431 37.092 214.765 37.8125 213.828 37.8125C212.82 37.8125 212.495 37.056 212.495 36.2274C212.495 35.7051 212.657 35.0746 212.73 34.7684L213.486 31.7423C213.576 31.3821 213.738 30.7516 213.738 30.6796C213.738 30.4094 213.522 30.2293 213.252 30.2293C212.73 30.2293 212.603 30.6796 212.495 31.1119C212.315 31.8144 211.559 34.8585 211.487 35.2548C211.415 35.561 211.415 35.7591 211.415 36.1554C211.415 36.5877 210.838 37.2722 210.82 37.3082C210.622 37.5063 210.334 37.8125 209.775 37.8125C208.352 37.8125 208.352 36.4616 208.352 36.1554C208.352 35.579 208.479 34.7864 209.289 32.643C209.505 32.0846 209.595 31.8504 209.595 31.4902C209.595 30.7336 209.055 30.0492 208.172 30.0492C206.515 30.0492 205.849 32.661 205.849 32.8051C205.849 32.8771 205.921 32.9672 206.047 32.9672C206.209 32.9672 206.227 32.8951 206.299 32.643C206.749 31.0579 207.452 30.4094 208.118 30.4094C208.298 30.4094 208.587 30.4274 208.587 31.0038C208.587 31.0939 208.587 31.4721 208.28 32.2647C207.434 34.5163 207.254 35.2548 207.254 35.9392C207.254 37.8305 208.803 38.1728 209.721 38.1728C210.028 38.1728 210.838 38.1728 211.559 36.8939Z" fill="black"/>
<path d="M221.008 36.6837C221.957 36.6837 222.557 37.3802 222.557 38.6411C222.557 40.1421 221.705 40.5864 221.068 40.5864C220.408 40.5864 219.507 40.3463 219.087 39.7098C219.519 39.7098 219.819 39.4336 219.819 39.0374C219.819 38.6531 219.543 38.3769 219.159 38.3769C218.835 38.3769 218.498 38.581 218.498 39.0614C218.498 40.2022 219.723 40.9467 221.092 40.9467C222.689 40.9467 223.806 39.8419 223.806 38.6411C223.806 37.6444 223.013 36.7318 221.789 36.4676C222.737 36.1314 223.446 35.3148 223.446 34.3541C223.446 33.3935 222.365 32.709 221.116 32.709C219.831 32.709 218.859 33.4055 218.859 34.3181C218.859 34.7624 219.159 34.9545 219.471 34.9545C219.843 34.9545 220.083 34.6904 220.083 34.3421C220.083 33.8978 219.699 33.7297 219.435 33.7177C219.939 33.0572 220.864 33.0212 221.08 33.0212C221.392 33.0212 222.305 33.1173 222.305 34.3541C222.305 35.1947 221.957 35.6991 221.789 35.8912C221.428 36.2634 221.152 36.2875 220.42 36.3355C220.192 36.3475 220.095 36.3595 220.095 36.5156C220.095 36.6837 220.204 36.6837 220.408 36.6837H221.008Z" fill="black"/>
<path d="M240.973 33.8498C241.279 33.8498 241.603 33.8498 241.603 33.4895C241.603 33.1293 241.279 33.1293 240.973 33.1293H231.228C230.922 33.1293 230.598 33.1293 230.598 33.4895C230.598 33.8498 230.922 33.8498 231.228 33.8498H240.973Z" fill="black"/>
<path d="M255.347 31.256C255.347 30.1212 254.77 30.0492 254.626 30.0492C254.194 30.0492 253.798 30.4815 253.798 30.8417C253.798 31.0579 253.924 31.1839 253.996 31.256C254.176 31.4181 254.644 31.9044 254.644 32.8411C254.644 33.5976 253.564 37.8125 251.402 37.8125C250.303 37.8125 250.087 36.8939 250.087 36.2274C250.087 35.3268 250.502 34.0659 250.988 32.769C251.276 32.0305 251.348 31.8504 251.348 31.4902C251.348 30.7336 250.808 30.0492 249.925 30.0492C248.268 30.0492 247.602 32.661 247.602 32.8051C247.602 32.8771 247.674 32.9672 247.8 32.9672C247.962 32.9672 247.98 32.8951 248.052 32.643C248.484 31.0939 249.187 30.4094 249.871 30.4094C250.033 30.4094 250.339 30.4094 250.339 31.0038C250.339 31.4721 250.141 31.9945 249.871 32.679C249.006 34.9846 249.006 35.543 249.006 35.9753C249.006 36.3715 249.061 37.11 249.619 37.6144C250.267 38.1728 251.168 38.1728 251.33 38.1728C254.32 38.1728 255.347 32.2827 255.347 31.256Z" fill="black"/>
<path d="M258.68 36.6837C259.629 36.6837 260.229 37.3802 260.229 38.6411C260.229 40.1421 259.376 40.5864 258.74 40.5864C258.079 40.5864 257.179 40.3463 256.759 39.7098C257.191 39.7098 257.491 39.4336 257.491 39.0374C257.491 38.6531 257.215 38.3769 256.831 38.3769C256.506 38.3769 256.17 38.581 256.17 39.0614C256.17 40.2022 257.395 40.9467 258.764 40.9467C260.361 40.9467 261.478 39.8419 261.478 38.6411C261.478 37.6444 260.685 36.7318 259.46 36.4676C260.409 36.1314 261.118 35.3148 261.118 34.3541C261.118 33.3935 260.037 32.709 258.788 32.709C257.503 32.709 256.53 33.4055 256.53 34.3181C256.53 34.7624 256.831 34.9545 257.143 34.9545C257.515 34.9545 257.755 34.6904 257.755 34.3421C257.755 33.8978 257.371 33.7297 257.107 33.7177C257.611 33.0572 258.536 33.0212 258.752 33.0212C259.064 33.0212 259.977 33.1173 259.977 34.3541C259.977 35.1947 259.629 35.6991 259.46 35.8912C259.1 36.2634 258.824 36.2875 258.091 36.3355C257.863 36.3475 257.767 36.3595 257.767 36.5156C257.767 36.6837 257.875 36.6837 258.079 36.6837H258.68Z" fill="black"/>
<path d="M270.233 33.4895C270.233 32.9672 269.801 32.5349 269.278 32.5349C268.756 32.5349 268.324 32.9672 268.324 33.4895C268.324 34.0119 268.756 34.4442 269.278 34.4442C269.801 34.4442 270.233 34.0119 270.233 33.4895Z" fill="black"/>
<path d="M281.977 36.8939C282.373 37.9746 283.49 38.1728 284.174 38.1728C285.543 38.1728 286.354 36.984 286.858 35.7411C287.273 34.6964 287.939 32.3187 287.939 31.256C287.939 30.1572 287.381 30.0492 287.219 30.0492C286.786 30.0492 286.39 30.4815 286.39 30.8417C286.39 31.0579 286.516 31.1839 286.606 31.256C286.768 31.4181 287.237 31.9044 287.237 32.8411C287.237 33.4535 286.732 35.1467 286.354 35.9933C285.85 37.092 285.183 37.8125 284.247 37.8125C283.238 37.8125 282.914 37.056 282.914 36.2274C282.914 35.7051 283.076 35.0746 283.148 34.7684L283.904 31.7423C283.994 31.3821 284.156 30.7516 284.156 30.6796C284.156 30.4094 283.94 30.2293 283.67 30.2293C283.148 30.2293 283.022 30.6796 282.914 31.1119C282.733 31.8144 281.977 34.8585 281.905 35.2548C281.833 35.561 281.833 35.7591 281.833 36.1554C281.833 36.5877 281.256 37.2722 281.238 37.3082C281.04 37.5063 280.752 37.8125 280.194 37.8125C278.771 37.8125 278.771 36.4616 278.771 36.1554C278.771 35.579 278.897 34.7864 279.707 32.643C279.924 32.0846 280.014 31.8504 280.014 31.4902C280.014 30.7336 279.473 30.0492 278.591 30.0492C276.933 30.0492 276.267 32.661 276.267 32.8051C276.267 32.8771 276.339 32.9672 276.465 32.9672C276.627 32.9672 276.645 32.8951 276.717 32.643C277.168 31.0579 277.87 30.4094 278.537 30.4094C278.717 30.4094 279.005 30.4274 279.005 31.0038C279.005 31.0939 279.005 31.4721 278.699 32.2647C277.852 34.5163 277.672 35.2548 277.672 35.9392C277.672 37.8305 279.221 38.1728 280.14 38.1728C280.446 38.1728 281.256 38.1728 281.977 36.8939Z" fill="black"/>
<path d="M291.775 38.2448C291.967 38.0647 292.471 37.6684 292.663 37.5003C293.408 36.8158 294.116 36.1554 294.116 35.0626C294.116 33.6336 292.915 32.709 291.414 32.709C289.973 32.709 289.025 33.8017 289.025 34.8705C289.025 35.4589 289.493 35.5429 289.661 35.5429C289.913 35.5429 290.286 35.3628 290.286 34.9065C290.286 34.2821 289.685 34.2821 289.541 34.2821C289.889 33.4055 290.694 33.1053 291.282 33.1053C292.399 33.1053 292.975 34.0539 292.975 35.0626C292.975 36.3115 292.099 37.2241 290.682 38.6771L289.169 40.2382C289.025 40.3703 289.025 40.3943 289.025 40.6945H293.768L294.116 38.545H293.744C293.708 38.7852 293.612 39.3856 293.468 39.6138C293.396 39.7098 292.483 39.7098 292.291 39.7098H290.153L291.775 38.2448Z" fill="black"/>
<path d="M184.929 53.021C184.929 51.8862 184.352 51.8142 184.208 51.8142C183.776 51.8142 183.379 52.2465 183.379 52.6067C183.379 52.8229 183.506 52.949 183.578 53.021C183.758 53.1831 184.226 53.6695 184.226 54.6061C184.226 55.3626 183.145 59.5775 180.984 59.5775C179.885 59.5775 179.669 58.6589 179.669 57.9925C179.669 57.0918 180.083 55.831 180.57 54.5341C180.858 53.7955 180.93 53.6154 180.93 53.2552C180.93 52.4987 180.389 51.8142 179.507 51.8142C177.85 51.8142 177.183 54.426 177.183 54.5701C177.183 54.6421 177.255 54.7322 177.381 54.7322C177.543 54.7322 177.561 54.6601 177.634 54.408C178.066 52.8589 178.768 52.1744 179.453 52.1744C179.615 52.1744 179.921 52.1744 179.921 52.7688C179.921 53.2372 179.723 53.7595 179.453 54.444C178.588 56.7496 178.588 57.308 178.588 57.7403C178.588 58.1365 178.642 58.8751 179.201 59.3794C179.849 59.9378 180.75 59.9378 180.912 59.9378C183.902 59.9378 184.929 54.0477 184.929 53.021Z" fill="black"/>
<path d="M188.262 58.4487C189.21 58.4487 189.811 59.1452 189.811 60.4061C189.811 61.9071 188.958 62.3514 188.322 62.3514C187.661 62.3514 186.761 62.1113 186.34 61.4748C186.773 61.4748 187.073 61.1986 187.073 60.8024C187.073 60.4181 186.797 60.1419 186.412 60.1419C186.088 60.1419 185.752 60.3461 185.752 60.8264C185.752 61.9672 186.977 62.7117 188.346 62.7117C189.943 62.7117 191.06 61.6069 191.06 60.4061C191.06 59.4094 190.267 58.4968 189.042 58.2326C189.991 57.8964 190.699 57.0798 190.699 56.1191C190.699 55.1585 189.619 54.474 188.37 54.474C187.085 54.474 186.112 55.1705 186.112 56.0831C186.112 56.5274 186.412 56.7196 186.725 56.7196C187.097 56.7196 187.337 56.4554 187.337 56.1071C187.337 55.6628 186.953 55.4947 186.689 55.4827C187.193 54.8222 188.118 54.7862 188.334 54.7862C188.646 54.7862 189.559 54.8823 189.559 56.1191C189.559 56.9597 189.21 57.4641 189.042 57.6562C188.682 58.0285 188.406 58.0525 187.673 58.1005C187.445 58.1125 187.349 58.1245 187.349 58.2806C187.349 58.4487 187.457 58.4487 187.661 58.4487H188.262Z" fill="black"/>
<path d="M199.815 55.2546C199.815 54.7322 199.382 54.2999 198.86 54.2999C198.338 54.2999 197.905 54.7322 197.905 55.2546C197.905 55.7769 198.338 56.2092 198.86 56.2092C199.382 56.2092 199.815 55.7769 199.815 55.2546Z" fill="black"/>
<path d="M211.559 58.6589C211.955 59.7397 213.072 59.9378 213.756 59.9378C215.125 59.9378 215.936 58.749 216.44 57.5061C216.854 56.4614 217.521 54.0837 217.521 53.021C217.521 51.9223 216.962 51.8142 216.8 51.8142C216.368 51.8142 215.972 52.2465 215.972 52.6067C215.972 52.8229 216.098 52.949 216.188 53.021C216.35 53.1831 216.818 53.6695 216.818 54.6061C216.818 55.2185 216.314 56.9117 215.936 57.7583C215.431 58.857 214.765 59.5775 213.828 59.5775C212.82 59.5775 212.495 58.821 212.495 57.9925C212.495 57.4701 212.657 56.8397 212.73 56.5334L213.486 53.5073C213.576 53.1471 213.738 52.5167 213.738 52.4446C213.738 52.1744 213.522 51.9943 213.252 51.9943C212.73 51.9943 212.603 52.4446 212.495 52.8769C212.315 53.5794 211.559 56.6235 211.487 57.0198C211.415 57.326 211.415 57.5241 211.415 57.9204C211.415 58.3527 210.838 59.0372 210.82 59.0732C210.622 59.2713 210.334 59.5775 209.775 59.5775C208.352 59.5775 208.352 58.2266 208.352 57.9204C208.352 57.344 208.479 56.5515 209.289 54.408C209.505 53.8496 209.595 53.6154 209.595 53.2552C209.595 52.4987 209.055 51.8142 208.172 51.8142C206.515 51.8142 205.849 54.426 205.849 54.5701C205.849 54.6421 205.921 54.7322 206.047 54.7322C206.209 54.7322 206.227 54.6601 206.299 54.408C206.749 52.8229 207.452 52.1744 208.118 52.1744C208.298 52.1744 208.587 52.1924 208.587 52.7688C208.587 52.8589 208.587 53.2372 208.28 54.0297C207.434 56.2813 207.254 57.0198 207.254 57.7043C207.254 59.5956 208.803 59.9378 209.721 59.9378C210.028 59.9378 210.838 59.9378 211.559 58.6589Z" fill="black"/>
<path d="M221.741 54.8102C221.741 54.486 221.717 54.474 221.392 54.474C220.9 54.9543 220.264 55.2425 219.123 55.2425V55.6388C219.447 55.6388 220.095 55.6388 220.792 55.3146V61.4748C220.792 61.9191 220.756 62.0632 219.615 62.0632H219.195V62.4595C219.687 62.4235 220.72 62.4235 221.26 62.4235C221.801 62.4235 222.845 62.4235 223.338 62.4595V62.0632H222.917C221.777 62.0632 221.741 61.9191 221.741 61.4748V54.8102Z" fill="black"/>
<path d="M240.973 55.6148C241.279 55.6148 241.603 55.6148 241.603 55.2546C241.603 54.8943 241.279 54.8943 240.973 54.8943H231.228C230.922 54.8943 230.598 54.8943 230.598 55.2546C230.598 55.6148 230.922 55.6148 231.228 55.6148H240.973Z" fill="black"/>
<path d="M255.347 53.021C255.347 51.8862 254.77 51.8142 254.626 51.8142C254.194 51.8142 253.798 52.2465 253.798 52.6067C253.798 52.8229 253.924 52.949 253.996 53.021C254.176 53.1831 254.644 53.6695 254.644 54.6061C254.644 55.3626 253.564 59.5775 251.402 59.5775C250.303 59.5775 250.087 58.6589 250.087 57.9925C250.087 57.0918 250.502 55.831 250.988 54.5341C251.276 53.7955 251.348 53.6154 251.348 53.2552C251.348 52.4987 250.808 51.8142 249.925 51.8142C248.268 51.8142 247.602 54.426 247.602 54.5701C247.602 54.6421 247.674 54.7322 247.8 54.7322C247.962 54.7322 247.98 54.6601 248.052 54.408C248.484 52.8589 249.187 52.1744 249.871 52.1744C250.033 52.1744 250.339 52.1744 250.339 52.7688C250.339 53.2372 250.141 53.7595 249.871 54.444C249.006 56.7496 249.006 57.308 249.006 57.7403C249.006 58.1365 249.061 58.8751 249.619 59.3794C250.267 59.9378 251.168 59.9378 251.33 59.9378C254.32 59.9378 255.347 54.0477 255.347 53.021Z" fill="black"/>
<path d="M259.412 54.8102C259.412 54.486 259.388 54.474 259.064 54.474C258.572 54.9543 257.935 55.2425 256.795 55.2425V55.6388C257.119 55.6388 257.767 55.6388 258.464 55.3146V61.4748C258.464 61.9191 258.428 62.0632 257.287 62.0632H256.867V62.4595C257.359 62.4235 258.392 62.4235 258.932 62.4235C259.472 62.4235 260.517 62.4235 261.009 62.4595V62.0632H260.589C259.448 62.0632 259.412 61.9191 259.412 61.4748V54.8102Z" fill="black"/>
<path d="M270.233 55.2546C270.233 54.7322 269.801 54.2999 269.278 54.2999C268.756 54.2999 268.324 54.7322 268.324 55.2546C268.324 55.7769 268.756 56.2092 269.278 56.2092C269.801 56.2092 270.233 55.7769 270.233 55.2546Z" fill="black"/>
<path d="M281.977 58.6589C282.373 59.7397 283.49 59.9378 284.174 59.9378C285.543 59.9378 286.354 58.749 286.858 57.5061C287.273 56.4614 287.939 54.0837 287.939 53.021C287.939 51.9223 287.381 51.8142 287.219 51.8142C286.786 51.8142 286.39 52.2465 286.39 52.6067C286.39 52.8229 286.516 52.949 286.606 53.021C286.768 53.1831 287.237 53.6695 287.237 54.6061C287.237 55.2185 286.732 56.9117 286.354 57.7583C285.85 58.857 285.183 59.5775 284.247 59.5775C283.238 59.5775 282.914 58.821 282.914 57.9925C282.914 57.4701 283.076 56.8397 283.148 56.5334L283.904 53.5073C283.994 53.1471 284.156 52.5167 284.156 52.4446C284.156 52.1744 283.94 51.9943 283.67 51.9943C283.148 51.9943 283.022 52.4446 282.914 52.8769C282.733 53.5794 281.977 56.6235 281.905 57.0198C281.833 57.326 281.833 57.5241 281.833 57.9204C281.833 58.3527 281.256 59.0372 281.238 59.0732C281.04 59.2713 280.752 59.5775 280.194 59.5775C278.771 59.5775 278.771 58.2266 278.771 57.9204C278.771 57.344 278.897 56.5515 279.707 54.408C279.924 53.8496 280.014 53.6154 280.014 53.2552C280.014 52.4987 279.473 51.8142 278.591 51.8142C276.933 51.8142 276.267 54.426 276.267 54.5701C276.267 54.6421 276.339 54.7322 276.465 54.7322C276.627 54.7322 276.645 54.6601 276.717 54.408C277.168 52.8229 277.87 52.1744 278.537 52.1744C278.717 52.1744 279.005 52.1924 279.005 52.7688C279.005 52.8589 279.005 53.2372 278.699 54.0297C277.852 56.2813 277.672 57.0198 277.672 57.7043C277.672 59.5956 279.221 59.9378 280.14 59.9378C280.446 59.9378 281.256 59.9378 281.977 58.6589Z" fill="black"/>
<path d="M291.426 58.4487C292.375 58.4487 292.975 59.1452 292.975 60.4061C292.975 61.9071 292.123 62.3514 291.486 62.3514C290.826 62.3514 289.925 62.1113 289.505 61.4748C289.937 61.4748 290.238 61.1986 290.238 60.8024C290.238 60.4181 289.961 60.1419 289.577 60.1419C289.253 60.1419 288.917 60.3461 288.917 60.8264C288.917 61.9672 290.141 62.7117 291.51 62.7117C293.107 62.7117 294.224 61.6069 294.224 60.4061C294.224 59.4094 293.432 58.4968 292.207 58.2326C293.156 57.8964 293.864 57.0798 293.864 56.1191C293.864 55.1585 292.783 54.474 291.534 54.474C290.25 54.474 289.277 55.1705 289.277 56.0831C289.277 56.5274 289.577 56.7196 289.889 56.7196C290.262 56.7196 290.502 56.4554 290.502 56.1071C290.502 55.6628 290.117 55.4947 289.853 55.4827C290.358 54.8222 291.282 54.7862 291.498 54.7862C291.811 54.7862 292.723 54.8823 292.723 56.1191C292.723 56.9597 292.375 57.4641 292.207 57.6562C291.847 58.0285 291.57 58.0525 290.838 58.1005C290.61 58.1125 290.514 58.1245 290.514 58.2806C290.514 58.4487 290.622 58.4487 290.826 58.4487H291.426Z" fill="black"/>
<path d="M184.929 74.786C184.929 73.6513 184.352 73.5792 184.208 73.5792C183.776 73.5792 183.379 74.0115 183.379 74.3718C183.379 74.5879 183.506 74.714 183.578 74.786C183.758 74.9482 184.226 75.4345 184.226 76.3711C184.226 77.1277 183.145 81.3426 180.984 81.3426C179.885 81.3426 179.669 80.4239 179.669 79.7575C179.669 78.8569 180.083 77.596 180.57 76.2991C180.858 75.5606 180.93 75.3805 180.93 75.0202C180.93 74.2637 180.389 73.5792 179.507 73.5792C177.85 73.5792 177.183 76.191 177.183 76.3351C177.183 76.4072 177.255 76.4972 177.381 76.4972C177.543 76.4972 177.561 76.4252 177.634 76.173C178.066 74.6239 178.768 73.9395 179.453 73.9395C179.615 73.9395 179.921 73.9395 179.921 74.5339C179.921 75.0022 179.723 75.5246 179.453 76.209C178.588 78.5146 178.588 79.073 178.588 79.5053C178.588 79.9016 178.642 80.6401 179.201 81.1444C179.849 81.7028 180.75 81.7028 180.912 81.7028C183.902 81.7028 184.929 75.8128 184.929 74.786Z" fill="black"/>
<path d="M188.994 76.5753C188.994 76.251 188.97 76.239 188.646 76.239C188.154 76.7194 187.517 77.0076 186.376 77.0076V77.4038C186.701 77.4038 187.349 77.4038 188.045 77.0796V83.2399C188.045 83.6842 188.009 83.8283 186.869 83.8283H186.448V84.2246C186.941 84.1885 187.973 84.1885 188.514 84.1885C189.054 84.1885 190.099 84.1885 190.591 84.2246V83.8283H190.171C189.03 83.8283 188.994 83.6842 188.994 83.2399V76.5753Z" fill="black"/>
<path d="M199.815 77.0196C199.815 76.4972 199.382 76.0649 198.86 76.0649C198.338 76.0649 197.905 76.4972 197.905 77.0196C197.905 77.5419 198.338 77.9742 198.86 77.9742C199.382 77.9742 199.815 77.5419 199.815 77.0196Z" fill="black"/>
<path d="M211.559 80.4239C211.955 81.5047 213.072 81.7028 213.756 81.7028C215.125 81.7028 215.936 80.514 216.44 79.2711C216.854 78.2264 217.521 75.8488 217.521 74.786C217.521 73.6873 216.962 73.5792 216.8 73.5792C216.368 73.5792 215.972 74.0115 215.972 74.3718C215.972 74.5879 216.098 74.714 216.188 74.786C216.35 74.9482 216.818 75.4345 216.818 76.3711C216.818 76.9836 216.314 78.6767 215.936 79.5233C215.431 80.6221 214.765 81.3426 213.828 81.3426C212.82 81.3426 212.495 80.5861 212.495 79.7575C212.495 79.2351 212.657 78.6047 212.73 78.2985L213.486 75.2724C213.576 74.9121 213.738 74.2817 213.738 74.2096C213.738 73.9395 213.522 73.7593 213.252 73.7593C212.73 73.7593 212.603 74.2096 212.495 74.6419C212.315 75.3444 211.559 78.3885 211.487 78.7848C211.415 79.091 211.415 79.2892 211.415 79.6854C211.415 80.1177 210.838 80.8022 210.82 80.8382C210.622 81.0364 210.334 81.3426 209.775 81.3426C208.352 81.3426 208.352 79.9916 208.352 79.6854C208.352 79.109 208.479 78.3165 209.289 76.173C209.505 75.6146 209.595 75.3805 209.595 75.0202C209.595 74.2637 209.055 73.5792 208.172 73.5792C206.515 73.5792 205.849 76.191 205.849 76.3351C205.849 76.4072 205.921 76.4972 206.047 76.4972C206.209 76.4972 206.227 76.4252 206.299 76.173C206.749 74.5879 207.452 73.9395 208.118 73.9395C208.298 73.9395 208.587 73.9575 208.587 74.5339C208.587 74.6239 208.587 75.0022 208.28 75.7947C207.434 78.0463 207.254 78.7848 207.254 79.4693C207.254 81.3606 208.803 81.7028 209.721 81.7028C210.028 81.7028 210.838 81.7028 211.559 80.4239Z" fill="black"/>
<path d="M221.356 81.7749C221.548 81.5947 222.053 81.1985 222.245 81.0303C222.989 80.3459 223.698 79.6854 223.698 78.5927C223.698 77.1637 222.497 76.239 220.996 76.239C219.555 76.239 218.606 77.3318 218.606 78.4005C218.606 78.9889 219.075 79.073 219.243 79.073C219.495 79.073 219.867 78.8929 219.867 78.4365C219.867 77.8121 219.267 77.8121 219.123 77.8121C219.471 76.9355 220.276 76.6353 220.864 76.6353C221.981 76.6353 222.557 77.584 222.557 78.5927C222.557 79.8415 221.681 80.7542 220.264 82.2072L218.751 83.7682C218.606 83.9003 218.606 83.9243 218.606 84.2246H223.35L223.698 82.0751H223.326C223.29 82.3152 223.194 82.9156 223.049 83.1438C222.977 83.2399 222.065 83.2399 221.873 83.2399H219.735L221.356 81.7749Z" fill="black"/>
<path d="M240.973 77.3798C241.279 77.3798 241.603 77.3798 241.603 77.0196C241.603 76.6593 241.279 76.6593 240.973 76.6593H231.228C230.922 76.6593 230.598 76.6593 230.598 77.0196C230.598 77.3798 230.922 77.3798 231.228 77.3798H240.973Z" fill="black"/>
<path d="M255.347 74.786C255.347 73.6513 254.77 73.5792 254.626 73.5792C254.194 73.5792 253.798 74.0115 253.798 74.3718C253.798 74.5879 253.924 74.714 253.996 74.786C254.176 74.9482 254.644 75.4345 254.644 76.3711C254.644 77.1277 253.564 81.3426 251.402 81.3426C250.303 81.3426 250.087 80.4239 250.087 79.7575C250.087 78.8569 250.502 77.596 250.988 76.2991C251.276 75.5606 251.348 75.3805 251.348 75.0202C251.348 74.2637 250.808 73.5792 249.925 73.5792C248.268 73.5792 247.602 76.191 247.602 76.3351C247.602 76.4072 247.674 76.4972 247.8 76.4972C247.962 76.4972 247.98 76.4252 248.052 76.173C248.484 74.6239 249.187 73.9395 249.871 73.9395C250.033 73.9395 250.339 73.9395 250.339 74.5339C250.339 75.0022 250.141 75.5246 249.871 76.209C249.006 78.5146 249.006 79.073 249.006 79.5053C249.006 79.9016 249.061 80.6401 249.619 81.1444C250.267 81.7028 251.168 81.7028 251.33 81.7028C254.32 81.7028 255.347 75.8128 255.347 74.786Z" fill="black"/>
<path d="M259.028 81.7749C259.22 81.5947 259.725 81.1985 259.917 81.0303C260.661 80.3459 261.37 79.6854 261.37 78.5927C261.37 77.1637 260.169 76.239 258.668 76.239C257.227 76.239 256.278 77.3318 256.278 78.4005C256.278 78.9889 256.747 79.073 256.915 79.073C257.167 79.073 257.539 78.8929 257.539 78.4365C257.539 77.8121 256.939 77.8121 256.795 77.8121C257.143 76.9355 257.947 76.6353 258.536 76.6353C259.653 76.6353 260.229 77.584 260.229 78.5927C260.229 79.8415 259.352 80.7542 257.935 82.2072L256.422 83.7682C256.278 83.9003 256.278 83.9243 256.278 84.2246H261.022L261.37 82.0751H260.997C260.961 82.3152 260.865 82.9156 260.721 83.1438C260.649 83.2399 259.737 83.2399 259.544 83.2399H257.407L259.028 81.7749Z" fill="black"/>
<path d="M270.233 77.0196C270.233 76.4972 269.801 76.0649 269.278 76.0649C268.756 76.0649 268.324 76.4972 268.324 77.0196C268.324 77.5419 268.756 77.9742 269.278 77.9742C269.801 77.9742 270.233 77.5419 270.233 77.0196Z" fill="black"/>
<path d="M281.977 80.4239C282.373 81.5047 283.49 81.7028 284.174 81.7028C285.543 81.7028 286.354 80.514 286.858 79.2711C287.273 78.2264 287.939 75.8488 287.939 74.786C287.939 73.6873 287.381 73.5792 287.219 73.5792C286.786 73.5792 286.39 74.0115 286.39 74.3718C286.39 74.5879 286.516 74.714 286.606 74.786C286.768 74.9482 287.237 75.4345 287.237 76.3711C287.237 76.9836 286.732 78.6767 286.354 79.5233C285.85 80.6221 285.183 81.3426 284.247 81.3426C283.238 81.3426 282.914 80.5861 282.914 79.7575C282.914 79.2351 283.076 78.6047 283.148 78.2985L283.904 75.2724C283.994 74.9121 284.156 74.2817 284.156 74.2096C284.156 73.9395 283.94 73.7593 283.67 73.7593C283.148 73.7593 283.022 74.2096 282.914 74.6419C282.733 75.3444 281.977 78.3885 281.905 78.7848C281.833 79.091 281.833 79.2892 281.833 79.6854C281.833 80.1177 281.256 80.8022 281.238 80.8382C281.04 81.0364 280.752 81.3426 280.194 81.3426C278.771 81.3426 278.771 79.9916 278.771 79.6854C278.771 79.109 278.897 78.3165 279.707 76.173C279.924 75.6146 280.014 75.3805 280.014 75.0202C280.014 74.2637 279.473 73.5792 278.591 73.5792C276.933 73.5792 276.267 76.191 276.267 76.3351C276.267 76.4072 276.339 76.4972 276.465 76.4972C276.627 76.4972 276.645 76.4252 276.717 76.173C277.168 74.5879 277.87 73.9395 278.537 73.9395C278.717 73.9395 279.005 73.9575 279.005 74.5339C279.005 74.6239 279.005 75.0022 278.699 75.7947C277.852 78.0463 277.672 78.7848 277.672 79.4693C277.672 81.3606 279.221 81.7028 280.14 81.7028C280.446 81.7028 281.256 81.7028 281.977 80.4239Z" fill="black"/>
<path d="M292.159 76.5753C292.159 76.251 292.135 76.239 291.811 76.239C291.318 76.7194 290.682 77.0076 289.541 77.0076V77.4038C289.865 77.4038 290.514 77.4038 291.21 77.0796V83.2399C291.21 83.6842 291.174 83.8283 290.033 83.8283H289.613V84.2246C290.105 84.1885 291.138 84.1885 291.679 84.1885C292.219 84.1885 293.264 84.1885 293.756 84.2246V83.8283H293.336C292.195 83.8283 292.159 83.6842 292.159 83.2399V76.5753Z" fill="black"/>
<path d="M306.019 54.6839C306.019 43.6783 304.056 37.2298 303.498 35.4106C302.273 31.4118 300.273 27.1969 297.265 23.4863C296.995 23.1621 296.923 23.0721 296.851 23.036C296.815 23.018 296.797 23 296.509 23C296.239 23 296.095 23 296.095 23.1801C296.095 23.2161 296.095 23.2522 296.329 23.5764C302.597 32.3305 304.002 43.1379 304.02 55.3324C304.02 55.5845 304.128 55.5845 304.524 55.5845H305.515C305.893 55.5845 306.001 55.5845 306.019 55.3864V54.6839Z" fill="black"/>
<path d="M306.019 55.4227C306.001 55.2246 305.893 55.2246 305.515 55.2246H304.524C304.128 55.2246 304.02 55.2246 304.02 55.4768C304.02 57.3321 304.002 61.619 303.534 66.1041C302.561 75.4166 300.165 81.865 296.221 87.3948C296.095 87.5569 296.095 87.593 296.095 87.629C296.095 87.8091 296.239 87.8091 296.509 87.8091C296.797 87.8091 296.833 87.8091 296.869 87.7731C296.941 87.7191 299.229 85.0892 301.048 81.4687C303.426 76.7135 304.921 71.2557 305.587 64.6991C305.641 64.1408 306.019 60.3942 306.019 56.1252V55.4227Z" fill="black"/>
<path d="M96.359 80.9333C96.8744 80.7351 97.1316 80.1565 96.9333 79.641L93.7025 71.2409C93.5043 70.7254 92.9257 70.4683 92.4102 70.6665C91.8947 70.8648 91.6376 71.4434 91.8358 71.9589L94.7077 79.4256L87.2409 82.2975C86.7254 82.4957 86.4683 83.0743 86.6665 83.5898C86.8648 84.1053 87.4434 84.3624 87.9589 84.1642L96.359 80.9333ZM50.5939 60.9138L95.5939 80.9138L96.4061 79.0862L51.4061 59.0862L50.5939 60.9138Z" fill="black"/>
<path d="M96.359 104.933C96.8744 104.735 97.1316 104.156 96.9333 103.641L93.7025 95.2409C93.5043 94.7254 92.9257 94.4683 92.4102 94.6665C91.8947 94.8648 91.6376 95.4434 91.8358 95.9589L94.7077 103.426L87.2409 106.297C86.7254 106.496 86.4683 107.074 86.6665 107.59C86.8648 108.105 87.4434 108.362 87.9589 108.164L96.359 104.933ZM50.5939 84.9138L95.5939 104.914L96.4061 103.086L51.4061 83.0862L50.5939 84.9138Z" fill="black"/>
<path d="M96.359 128.933C96.8744 128.735 97.1316 128.156 96.9333 127.641L93.7025 119.241C93.5043 118.725 92.9257 118.468 92.4102 118.667C91.8947 118.865 91.6376 119.443 91.8358 119.959L94.7077 127.426L87.2409 130.297C86.7254 130.496 86.4683 131.074 86.6665 131.59C86.8648 132.105 87.4434 132.362 87.9589 132.164L96.359 128.933ZM50.5939 108.914L95.5939 128.914L96.4061 127.086L51.4061 107.086L50.5939 108.914Z" fill="black"/>
<path d="M96.9162 60.4008C97.1375 59.8948 96.9068 59.3052 96.4008 59.0838L88.1554 55.4765C87.6494 55.2551 87.0598 55.4858 86.8384 55.9918C86.6171 56.4978 86.8478 57.0874 87.3538 57.3088L94.683 60.5153L91.4765 67.8446C91.2551 68.3506 91.4858 68.9402 91.9918 69.1616C92.4978 69.3829 93.0874 69.1522 93.3088 68.6462L96.9162 60.4008ZM50.3644 78.9312L96.3644 60.9312L95.6356 59.0688L49.6356 77.0688L50.3644 78.9312Z" fill="#EE4B2B"/>
<path d="M96.9162 84.4008C97.1375 83.8948 96.9068 83.3052 96.4008 83.0838L88.1554 79.4765C87.6494 79.2551 87.0598 79.4858 86.8384 79.9918C86.6171 80.4978 86.8478 81.0874 87.3538 81.3088L94.683 84.5153L91.4765 91.8446C91.2551 92.3506 91.4858 92.9402 91.9918 93.1616C92.4978 93.3829 93.0874 93.1522 93.3088 92.6462L96.9162 84.4008ZM50.3644 102.931L96.3644 84.9312L95.6356 83.0688L49.6356 101.069L50.3644 102.931Z" fill="#EE4B2B"/>
<path d="M95.9162 113.401C96.1375 112.895 95.9068 112.305 95.4008 112.084L87.1554 108.476C86.6494 108.255 86.0598 108.486 85.8384 108.992C85.6171 109.498 85.8478 110.087 86.3538 110.309L93.683 113.515L90.4765 120.845C90.2551 121.351 90.4858 121.94 90.9918 122.162C91.4978 122.383 92.0874 122.152 92.3088 121.646L95.9162 113.401ZM49.3644 131.931L95.3644 113.931L94.6356 112.069L48.6356 130.069L49.3644 131.931Z" fill="#EE4B2B"/>
<path d="M41.7454 100.207C41.7454 99.0721 41.169 99 41.0249 99C40.5926 99 40.1963 99.4323 40.1963 99.7925C40.1963 100.009 40.3224 100.135 40.3944 100.207C40.5745 100.369 41.0429 100.855 41.0429 101.792C41.0429 102.548 39.9621 106.763 37.8006 106.763C36.7019 106.763 36.4857 105.845 36.4857 105.178C36.4857 104.278 36.9 103.017 37.3863 101.72C37.6745 100.981 37.7466 100.801 37.7466 100.441C37.7466 99.6845 37.2062 99 36.3236 99C34.6665 99 34 101.612 34 101.756C34 101.828 34.072 101.918 34.1981 101.918C34.3602 101.918 34.3783 101.846 34.4503 101.594C34.8826 100.045 35.5851 99.3602 36.2696 99.3602C36.4317 99.3602 36.7379 99.3602 36.7379 99.9547C36.7379 100.423 36.5398 100.945 36.2696 101.63C35.405 103.935 35.405 104.494 35.405 104.926C35.405 105.322 35.459 106.061 36.0174 106.565C36.6658 107.124 37.5665 107.124 37.7286 107.124C40.7186 107.124 41.7454 101.234 41.7454 100.207Z" fill="#F5BD1F"/>
<path d="M45.8109 101.996C45.8109 101.672 45.7869 101.66 45.4627 101.66C44.9703 102.14 44.3339 102.428 43.1931 102.428V102.825C43.5173 102.825 44.1658 102.825 44.8623 102.5V108.661C44.8623 109.105 44.8262 109.249 43.6854 109.249H43.2652V109.645C43.7575 109.609 44.7902 109.609 45.3306 109.609C45.871 109.609 46.9157 109.609 47.408 109.645V109.249H46.9877C45.8469 109.249 45.8109 109.105 45.8109 108.661V101.996Z" fill="#F5BD1F"/>
<path d="M40.7454 127.207C40.7454 126.072 40.169 126 40.0249 126C39.5926 126 39.1963 126.432 39.1963 126.793C39.1963 127.009 39.3224 127.135 39.3944 127.207C39.5745 127.369 40.0429 127.855 40.0429 128.792C40.0429 129.548 38.9621 133.763 36.8006 133.763C35.7019 133.763 35.4857 132.845 35.4857 132.178C35.4857 131.278 35.9 130.017 36.3863 128.72C36.6745 127.981 36.7466 127.801 36.7466 127.441C36.7466 126.684 36.2062 126 35.3236 126C33.6665 126 33 128.612 33 128.756C33 128.828 33.072 128.918 33.1981 128.918C33.3602 128.918 33.3783 128.846 33.4503 128.594C33.8826 127.045 34.5851 126.36 35.2696 126.36C35.4317 126.36 35.7379 126.36 35.7379 126.955C35.7379 127.423 35.5398 127.945 35.2696 128.63C34.405 130.935 34.405 131.494 34.405 131.926C34.405 132.322 34.459 133.061 35.0174 133.565C35.6658 134.124 36.5665 134.124 36.7286 134.124C39.7186 134.124 40.7454 128.234 40.7454 127.207Z" fill="#F5BD1F"/>
<path d="M44.4266 134.196C44.6188 134.016 45.1231 133.619 45.3153 133.451C46.0598 132.767 46.7683 132.106 46.7683 131.013C46.7683 129.584 45.5674 128.66 44.0664 128.66C42.6254 128.66 41.6767 129.753 41.6767 130.821C41.6767 131.41 42.1451 131.494 42.3132 131.494C42.5654 131.494 42.9376 131.314 42.9376 130.857C42.9376 130.233 42.3372 130.233 42.1931 130.233C42.5413 129.356 43.3459 129.056 43.9343 129.056C45.0511 129.056 45.6275 130.005 45.6275 131.013C45.6275 132.262 44.7509 133.175 43.3339 134.628L41.8208 136.189C41.6767 136.321 41.6767 136.345 41.6767 136.645H46.42L46.7683 134.496H46.396C46.36 134.736 46.2639 135.336 46.1198 135.565C46.0478 135.661 45.1351 135.661 44.943 135.661H42.8055L44.4266 134.196Z" fill="#F5BD1F"/>
<path d="M107.71 109.845C108.106 110.925 109.223 111.124 109.907 111.124C111.276 111.124 112.087 109.935 112.591 108.692C113.006 107.647 113.672 105.27 113.672 104.207C113.672 103.108 113.114 103 112.952 103C112.519 103 112.123 103.432 112.123 103.793C112.123 104.009 112.249 104.135 112.339 104.207C112.501 104.369 112.97 104.855 112.97 105.792C112.97 106.404 112.465 108.098 112.087 108.944C111.583 110.043 110.916 110.763 109.98 110.763C108.971 110.763 108.647 110.007 108.647 109.178C108.647 108.656 108.809 108.025 108.881 107.719L109.637 104.693C109.727 104.333 109.889 103.702 109.889 103.63C109.889 103.36 109.673 103.18 109.403 103.18C108.881 103.18 108.755 103.63 108.647 104.063C108.466 104.765 107.71 107.809 107.638 108.206C107.566 108.512 107.566 108.71 107.566 109.106C107.566 109.539 106.989 110.223 106.971 110.259C106.773 110.457 106.485 110.763 105.927 110.763C104.504 110.763 104.504 109.412 104.504 109.106C104.504 108.53 104.63 107.737 105.44 105.594C105.657 105.035 105.747 104.801 105.747 104.441C105.747 103.684 105.206 103 104.324 103C102.666 103 102 105.612 102 105.756C102 105.828 102.072 105.918 102.198 105.918C102.36 105.918 102.378 105.846 102.45 105.594C102.901 104.009 103.603 103.36 104.27 103.36C104.45 103.36 104.738 103.378 104.738 103.955C104.738 104.045 104.738 104.423 104.432 105.216C103.585 107.467 103.405 108.206 103.405 108.89C103.405 110.781 104.954 111.124 105.873 111.124C106.179 111.124 106.989 111.124 107.71 109.845Z" fill="#F5BD1F"/>
<path d="M117.892 105.996C117.892 105.672 117.868 105.66 117.544 105.66C117.051 106.14 116.415 106.428 115.274 106.428V106.825C115.598 106.825 116.247 106.825 116.943 106.5V112.661C116.943 113.105 116.907 113.249 115.766 113.249H115.346V113.645C115.838 113.609 116.871 113.609 117.412 113.609C117.952 113.609 118.997 113.609 119.489 113.645V113.249H119.069C117.928 113.249 117.892 113.105 117.892 112.661V105.996Z" fill="#F5BD1F"/>
<path d="M106.71 132.845C107.106 133.925 108.223 134.124 108.907 134.124C110.276 134.124 111.087 132.935 111.591 131.692C112.006 130.647 112.672 128.27 112.672 127.207C112.672 126.108 112.114 126 111.952 126C111.519 126 111.123 126.432 111.123 126.793C111.123 127.009 111.249 127.135 111.339 127.207C111.501 127.369 111.97 127.855 111.97 128.792C111.97 129.404 111.465 131.098 111.087 131.944C110.583 133.043 109.916 133.763 108.98 133.763C107.971 133.763 107.647 133.007 107.647 132.178C107.647 131.656 107.809 131.025 107.881 130.719L108.637 127.693C108.727 127.333 108.889 126.702 108.889 126.63C108.889 126.36 108.673 126.18 108.403 126.18C107.881 126.18 107.755 126.63 107.647 127.063C107.466 127.765 106.71 130.809 106.638 131.206C106.566 131.512 106.566 131.71 106.566 132.106C106.566 132.539 105.989 133.223 105.971 133.259C105.773 133.457 105.485 133.763 104.927 133.763C103.504 133.763 103.504 132.412 103.504 132.106C103.504 131.53 103.63 130.737 104.44 128.594C104.657 128.035 104.747 127.801 104.747 127.441C104.747 126.684 104.206 126 103.324 126C101.666 126 101 128.612 101 128.756C101 128.828 101.072 128.918 101.198 128.918C101.36 128.918 101.378 128.846 101.45 128.594C101.901 127.009 102.603 126.36 103.27 126.36C103.45 126.36 103.738 126.378 103.738 126.955C103.738 127.045 103.738 127.423 103.432 128.216C102.585 130.467 102.405 131.206 102.405 131.89C102.405 133.781 103.954 134.124 104.873 134.124C105.179 134.124 105.989 134.124 106.71 132.845Z" fill="#F5BD1F"/>
<path d="M116.508 134.196C116.7 134.016 117.204 133.619 117.396 133.451C118.141 132.767 118.849 132.106 118.849 131.013C118.849 129.584 117.648 128.66 116.147 128.66C114.706 128.66 113.758 129.753 113.758 130.821C113.758 131.41 114.226 131.494 114.394 131.494C114.646 131.494 115.019 131.314 115.019 130.857C115.019 130.233 114.418 130.233 114.274 130.233C114.622 129.356 115.427 129.056 116.015 129.056C117.132 129.056 117.708 130.005 117.708 131.013C117.708 132.262 116.832 133.175 115.415 134.628L113.902 136.189C113.758 136.321 113.758 136.345 113.758 136.645H118.501L118.849 134.496H118.477C118.441 134.736 118.345 135.336 118.201 135.565C118.129 135.661 117.216 135.661 117.024 135.661H114.886L116.508 134.196Z" fill="#F5BD1F"/>
</svg>
