<svg width="662" height="405" viewBox="0 0 662 405" fill="none" xmlns="http://www.w3.org/2000/svg">
<rect width="662" height="405" fill="white"/>
<circle cx="315.5" cy="190.501" r="70.5" fill="white" stroke="black" stroke-width="2"/>
<circle cx="316" cy="190.001" r="32" fill="white" stroke="black" stroke-width="2"/>
<rect x="259.164" y="129.188" width="112.781" height="75.8355" transform="rotate(-17.72 259.164 129.188)" fill="white"/>
<rect x="241" y="129.001" width="114" height="60" fill="white"/>
<rect x="212" y="226.828" width="75" height="61.5733" transform="rotate(-17.72 212 226.828)" fill="white"/>
<rect x="351" y="193.001" width="36" height="59" fill="white"/>
<rect x="289" y="248.001" width="66" height="24" fill="white"/>
<rect x="320.5" y="191.501" width="12" height="11" stroke="black" stroke-dasharray="1 1"/>
<path d="M587.414 192.415C588.195 191.634 588.195 190.368 587.414 189.587L574.686 176.859C573.905 176.078 572.639 176.078 571.858 176.859C571.077 177.64 571.077 178.906 571.858 179.687L583.172 191.001L571.858 202.314C571.077 203.095 571.077 204.362 571.858 205.143C572.639 205.924 573.905 205.924 574.686 205.143L587.414 192.415ZM46 193.001L586 193.001V189.001L46 189.001V193.001Z" fill="black"/>
<path d="M615.778 97.9173C616.284 96.9356 615.898 95.7293 614.917 95.2231L598.918 86.9739C597.936 86.4677 596.73 86.8532 596.224 87.835C595.718 88.8167 596.103 90.0229 597.085 90.5291L611.306 97.8618L603.973 112.083C603.467 113.064 603.852 114.271 604.834 114.777C605.816 115.283 607.022 114.898 607.528 113.916L615.778 97.9173ZM32.6088 284.906L614.609 98.9058L613.391 95.0957L31.3912 281.096L32.6088 284.906Z" fill="black"/>
<path d="M318.086 351.416C318.867 352.197 320.133 352.197 320.914 351.416L333.642 338.688C334.423 337.907 334.423 336.64 333.642 335.859C332.861 335.078 331.595 335.078 330.814 335.859L319.5 347.173L308.186 335.859C307.405 335.078 306.139 335.078 305.358 335.859C304.577 336.64 304.577 337.907 305.358 338.688L318.086 351.416ZM317.5 25L317.5 350.002H321.5L321.5 25H317.5Z" fill="black"/>
<path d="M406.116 173.211H408.597C408.004 175.677 407.631 177.284 407.631 179.045C407.631 179.353 407.631 181.73 408.531 181.73C408.993 181.73 409.388 181.312 409.388 180.938C409.388 180.828 409.388 180.784 409.234 180.454C408.641 178.935 408.641 177.042 408.641 176.887C408.641 176.755 408.641 175.193 409.102 173.211H411.562C411.847 173.211 412.572 173.211 412.572 172.507C412.572 172.023 412.154 172.023 411.759 172.023H404.535C404.03 172.023 403.284 172.023 402.274 173.101C401.703 173.74 401 174.906 401 175.038C401 175.171 401.11 175.215 401.242 175.215C401.395 175.215 401.417 175.149 401.527 175.016C402.669 173.211 403.811 173.211 404.36 173.211H405.611C405.128 174.862 404.579 176.777 402.779 180.63C402.603 180.982 402.603 181.026 402.603 181.158C402.603 181.62 402.998 181.73 403.196 181.73C403.833 181.73 404.008 181.158 404.272 180.233C404.623 179.111 404.623 179.067 404.843 178.186L406.116 173.211Z" fill="black"/>
<path d="M422.833 165.815C422.833 165.793 422.965 165.463 422.965 165.419C422.965 165.155 422.745 165.001 422.569 165.001C422.46 165.001 422.262 165.001 422.086 165.485L414.73 186.199C414.73 186.221 414.599 186.551 414.599 186.595C414.599 186.859 414.818 187.013 414.994 187.013C415.126 187.013 415.323 186.991 415.477 186.529L422.833 165.815Z" fill="black"/>
<path d="M426.864 173.85C426.864 168.281 429.565 167.4 430.75 167.4C431.541 167.4 432.331 167.642 432.748 168.303C432.485 168.303 431.651 168.303 431.651 169.205C431.651 169.689 431.98 170.108 432.551 170.108C433.1 170.108 433.473 169.778 433.473 169.139C433.473 167.994 432.639 166.872 430.728 166.872C427.962 166.872 425.063 169.711 425.063 174.554C425.063 180.608 427.698 181.972 429.565 181.972C431.958 181.972 434 179.881 434 177.02C434 174.092 431.958 172.133 429.762 172.133C427.808 172.133 427.083 173.828 426.864 174.444V173.85ZM429.565 181.378C428.181 181.378 427.523 180.145 427.325 179.683C427.127 179.111 426.908 178.032 426.908 176.491C426.908 174.752 427.698 172.573 429.674 172.573C430.882 172.573 431.519 173.388 431.848 174.136C432.199 174.95 432.199 176.051 432.199 176.998C432.199 178.12 432.199 179.111 431.782 179.947C431.233 181.004 430.443 181.378 429.565 181.378Z" fill="black"/>
<path d="M196.817 205.834H199.153C198.595 208.186 198.244 209.719 198.244 211.399C198.244 211.693 198.244 213.961 199.091 213.961C199.525 213.961 199.897 213.562 199.897 213.205C199.897 213.1 199.897 213.058 199.753 212.743C199.195 211.294 199.195 209.488 199.195 209.341C199.195 209.215 199.195 207.724 199.629 205.834H201.944C202.213 205.834 202.895 205.834 202.895 205.162C202.895 204.7 202.502 204.7 202.13 204.7H195.329C194.853 204.7 194.15 204.7 193.199 205.729C192.662 206.338 192 207.451 192 207.577C192 207.703 192.103 207.745 192.227 207.745C192.372 207.745 192.393 207.682 192.496 207.556C193.571 205.834 194.646 205.834 195.163 205.834H196.342C195.887 207.409 195.37 209.236 193.675 212.911C193.509 213.247 193.509 213.289 193.509 213.415C193.509 213.856 193.881 213.961 194.067 213.961C194.667 213.961 194.832 213.415 195.08 212.533C195.411 211.462 195.411 211.42 195.618 210.58L196.817 205.834Z" fill="black"/>
<path d="M212.556 198.778C212.556 198.757 212.68 198.442 212.68 198.4C212.68 198.148 212.474 198.001 212.308 198.001C212.205 198.001 212.019 198.001 211.854 198.463L204.928 218.224C204.928 218.245 204.804 218.56 204.804 218.602C204.804 218.854 205.01 219.001 205.176 219.001C205.3 219.001 205.486 218.98 205.631 218.539L212.556 198.778Z" fill="black"/>
<path d="M216.352 206.443C216.352 201.13 218.895 200.29 220.011 200.29C220.755 200.29 221.5 200.521 221.892 201.151C221.644 201.151 220.859 201.151 220.859 202.012C220.859 202.474 221.169 202.873 221.706 202.873C222.223 202.873 222.575 202.558 222.575 201.949C222.575 200.857 221.789 199.786 219.99 199.786C217.385 199.786 214.656 202.495 214.656 207.115C214.656 212.89 217.137 214.192 218.895 214.192C221.148 214.192 223.071 212.197 223.071 209.467C223.071 206.674 221.148 204.805 219.081 204.805C217.241 204.805 216.559 206.422 216.352 207.01V206.443ZM218.895 213.625C217.592 213.625 216.972 212.449 216.786 212.008C216.6 211.462 216.393 210.433 216.393 208.963C216.393 207.304 217.137 205.225 218.998 205.225C220.135 205.225 220.735 206.002 221.045 206.716C221.376 207.493 221.376 208.543 221.376 209.446C221.376 210.517 221.376 211.462 220.983 212.26C220.466 213.268 219.722 213.625 218.895 213.625Z" fill="black"/>
<path d="M354.77 224.166H354.281C354.215 224.514 354.037 225.639 353.815 225.966C353.659 226.15 352.394 226.15 351.728 226.15H347.62C348.22 225.68 349.574 224.371 350.151 223.88C353.526 221.016 354.77 219.953 354.77 217.928C354.77 215.576 352.749 214.001 350.173 214.001C347.598 214.001 346.088 216.026 346.088 217.785C346.088 218.828 347.065 218.828 347.132 218.828C347.598 218.828 348.175 218.521 348.175 217.866C348.175 217.294 347.753 216.905 347.132 216.905C346.932 216.905 346.887 216.905 346.821 216.926C347.243 215.535 348.442 214.594 349.885 214.594C351.772 214.594 352.927 216.046 352.927 217.928C352.927 219.666 351.839 221.18 350.573 222.489L346.088 227.111V227.602H354.192L354.77 224.166Z" fill="black"/>
<path d="M361.621 219.891H364.13C363.531 222.182 363.153 223.675 363.153 225.311C363.153 225.598 363.153 227.807 364.064 227.807C364.53 227.807 364.93 227.418 364.93 227.07C364.93 226.968 364.93 226.927 364.774 226.62C364.175 225.209 364.175 223.45 364.175 223.307C364.175 223.184 364.175 221.732 364.641 219.891H367.128C367.417 219.891 368.149 219.891 368.149 219.237C368.149 218.787 367.727 218.787 367.328 218.787H360.023C359.512 218.787 358.757 218.787 357.736 219.789C357.158 220.382 356.448 221.466 356.448 221.589C356.448 221.712 356.559 221.753 356.692 221.753C356.847 221.753 356.87 221.691 356.981 221.568C358.135 219.891 359.29 219.891 359.845 219.891H361.111C360.622 221.425 360.067 223.205 358.246 226.784C358.069 227.111 358.069 227.152 358.069 227.275C358.069 227.704 358.468 227.807 358.668 227.807C359.312 227.807 359.49 227.275 359.756 226.416C360.111 225.373 360.111 225.332 360.333 224.514L361.621 219.891Z" fill="black"/>
<path d="M369 235.917H345V236.735H369V235.917Z" fill="black"/>
<path d="M355.65 248.126C355.273 248.147 355.184 248.167 355.184 248.351C355.184 248.556 355.295 248.556 355.695 248.556H356.716C358.603 248.556 359.447 249.987 359.447 251.951C359.447 254.63 357.937 255.346 356.849 255.346C355.784 255.346 353.963 254.876 353.319 253.526C354.029 253.628 354.673 253.26 354.673 252.524C354.673 251.931 354.207 251.521 353.585 251.521C353.052 251.521 352.475 251.808 352.475 252.585C352.475 254.405 354.451 255.898 356.916 255.898C359.558 255.898 361.512 254.037 361.512 251.971C361.512 250.09 359.869 248.617 357.737 248.269C359.669 247.758 360.913 246.265 360.913 244.67C360.913 243.054 359.092 241.867 356.938 241.867C354.718 241.867 353.075 243.115 353.075 244.608C353.075 245.426 353.763 245.59 354.096 245.59C354.562 245.59 355.095 245.283 355.095 244.67C355.095 244.015 354.562 243.729 354.074 243.729C353.941 243.729 353.896 243.729 353.83 243.749C354.673 242.358 356.76 242.358 356.871 242.358C357.604 242.358 359.047 242.665 359.047 244.67C359.047 245.058 358.981 246.204 358.337 247.083C357.671 247.983 356.916 248.044 356.316 248.065L355.65 248.126Z" fill="black"/>
<path d="M284.855 229.161H287.846C287.132 231.569 286.682 233.138 286.682 234.857C286.682 235.158 286.682 237.48 287.767 237.48C288.323 237.48 288.799 237.071 288.799 236.706C288.799 236.598 288.799 236.555 288.614 236.233C287.899 234.75 287.899 232.901 287.899 232.751C287.899 232.622 287.899 231.096 288.455 229.161H291.419C291.763 229.161 292.637 229.161 292.637 228.474C292.637 228.001 292.134 228.001 291.658 228.001H282.95C282.341 228.001 281.441 228.001 280.223 229.054C279.535 229.677 278.688 230.816 278.688 230.945C278.688 231.074 278.821 231.117 278.979 231.117C279.165 231.117 279.191 231.053 279.323 230.924C280.7 229.161 282.076 229.161 282.738 229.161H284.246C283.664 230.773 283.002 232.643 280.832 236.405C280.62 236.749 280.62 236.792 280.62 236.921C280.62 237.372 281.097 237.48 281.335 237.48C282.103 237.48 282.314 236.921 282.632 236.018C283.055 234.922 283.055 234.879 283.32 234.019L284.855 229.161Z" fill="black"/>
<path d="M293.651 246.002H278V246.862H293.651V246.002Z" fill="black"/>
<path d="M284.217 258.833C283.767 258.854 283.661 258.876 283.661 259.069C283.661 259.284 283.793 259.284 284.269 259.284H285.487C287.737 259.284 288.743 260.789 288.743 262.852C288.743 265.668 286.943 266.42 285.646 266.42C284.375 266.42 282.205 265.926 281.437 264.507C282.284 264.615 283.052 264.228 283.052 263.454C283.052 262.831 282.496 262.401 281.755 262.401C281.12 262.401 280.432 262.702 280.432 263.519C280.432 265.432 282.787 267.001 285.725 267.001C288.875 267.001 291.204 265.045 291.204 262.874C291.204 260.896 289.246 259.349 286.705 258.983C289.007 258.446 290.49 256.877 290.49 255.2C290.49 253.502 288.319 252.256 285.752 252.256C283.105 252.256 281.146 253.567 281.146 255.136C281.146 255.996 281.967 256.168 282.364 256.168C282.92 256.168 283.555 255.845 283.555 255.2C283.555 254.513 282.92 254.212 282.337 254.212C282.179 254.212 282.126 254.212 282.046 254.233C283.052 252.772 285.54 252.772 285.672 252.772C286.546 252.772 288.266 253.094 288.266 255.2C288.266 255.609 288.187 256.813 287.419 257.737C286.625 258.683 285.725 258.747 285.011 258.768L284.217 258.833Z" fill="black"/>
<path d="M478.283 114.539C478.685 114.539 479.111 114.539 479.111 114.073C479.111 113.608 478.685 113.608 478.283 113.608H465.49C465.088 113.608 464.662 113.608 464.662 114.073C464.662 114.539 465.088 114.539 465.49 114.539H478.283Z" fill="black"/>
<path d="M482.422 114.539C481.122 115.516 480.483 116.47 480.294 116.772C479.23 118.378 479.041 119.844 479.041 119.867C479.041 120.146 479.324 120.146 479.514 120.146C479.916 120.146 479.939 120.1 480.034 119.681C480.578 117.401 481.973 115.446 484.645 114.376C484.929 114.283 485 114.236 485 114.073C485 113.911 484.858 113.841 484.811 113.818C483.77 113.422 480.909 112.259 480.01 108.35C479.939 108.071 479.916 108.001 479.514 108.001C479.324 108.001 479.041 108.001 479.041 108.28C479.041 108.326 479.253 109.792 480.247 111.351C480.72 112.049 481.405 112.864 482.422 113.608H464.851C464.426 113.608 464 113.608 464 114.073C464 114.539 464.426 114.539 464.851 114.539H482.422Z" fill="black"/>
<path d="M479.309 121.206C479.309 119.74 478.553 119.647 478.363 119.647C477.796 119.647 477.276 120.206 477.276 120.671C477.276 120.95 477.441 121.113 477.536 121.206C477.772 121.415 478.387 122.044 478.387 123.254C478.387 124.231 476.968 129.675 474.13 129.675C472.688 129.675 472.404 128.489 472.404 127.628C472.404 126.464 472.948 124.836 473.586 123.161C473.965 122.207 474.059 121.974 474.059 121.509C474.059 120.531 473.35 119.647 472.191 119.647C470.015 119.647 469.14 123.021 469.14 123.207C469.14 123.3 469.235 123.416 469.401 123.416C469.613 123.416 469.637 123.323 469.732 122.998C470.299 120.997 471.222 120.113 472.12 120.113C472.333 120.113 472.735 120.113 472.735 120.88C472.735 121.485 472.475 122.16 472.12 123.044C470.985 126.022 470.985 126.744 470.985 127.302C470.985 127.814 471.056 128.768 471.789 129.419C472.64 130.141 473.823 130.141 474.036 130.141C477.961 130.141 479.309 122.532 479.309 121.206Z" fill="black"/>
<path d="M484.644 205.383C485.084 205.383 485.55 205.383 485.55 204.858C485.55 204.332 485.084 204.332 484.644 204.332H470.631C470.191 204.332 469.725 204.332 469.725 204.858C469.725 205.383 470.191 205.383 470.631 205.383H484.644Z" fill="black"/>
<path d="M489.177 205.383C487.752 206.487 487.053 207.564 486.846 207.906C485.68 209.718 485.473 211.374 485.473 211.4C485.473 211.715 485.784 211.715 485.991 211.715C486.431 211.715 486.457 211.663 486.561 211.19C487.157 208.615 488.685 206.408 491.611 205.199C491.922 205.094 492 205.042 492 204.858C492 204.674 491.845 204.595 491.793 204.569C490.653 204.122 487.519 202.809 486.535 198.395C486.457 198.08 486.431 198.001 485.991 198.001C485.784 198.001 485.473 198.001 485.473 198.316C485.473 198.369 485.706 200.024 486.794 201.784C487.312 202.572 488.063 203.492 489.177 204.332H469.932C469.466 204.332 469 204.332 469 204.858C469 205.383 469.466 205.383 469.932 205.383H489.177Z" fill="black"/>
<path d="M482.141 221.214C482.478 222.685 483.721 223.001 484.342 223.001C485.171 223.001 485.793 222.449 486.207 221.556C486.648 220.61 486.984 219.06 486.984 218.981C486.984 218.85 486.881 218.744 486.725 218.744C486.492 218.744 486.466 218.876 486.363 219.27C485.896 221.083 485.43 222.475 484.394 222.475C483.617 222.475 483.617 221.608 483.617 221.267C483.617 220.662 483.695 220.4 483.954 219.296C484.135 218.587 484.317 217.877 484.472 217.142L485.534 212.859C485.715 212.203 485.715 212.15 485.715 212.071C485.715 211.677 485.404 211.414 485.016 211.414C484.265 211.414 484.083 212.071 483.928 212.728C483.669 213.753 482.27 219.401 482.089 220.321C482.063 220.321 481.053 222.475 479.162 222.475C477.815 222.475 477.556 221.293 477.556 220.321C477.556 218.823 478.282 216.721 478.955 214.961C479.266 214.12 479.395 213.779 479.395 213.253C479.395 212.124 478.592 211.152 477.349 211.152C474.966 211.152 474.008 214.961 474.008 215.171C474.008 215.276 474.112 215.408 474.293 215.408C474.526 215.408 474.552 215.303 474.655 214.935C475.277 212.675 476.287 211.677 477.271 211.677C477.53 211.677 477.945 211.703 477.945 212.544C477.945 213.227 477.66 213.989 477.271 214.987C476.132 218.114 476.002 219.112 476.002 219.9C476.002 222.58 477.997 223.001 479.059 223.001C480.716 223.001 481.623 221.845 482.141 221.214Z" fill="black"/>
<path d="M341.964 290.088C342.385 290.088 342.831 290.088 342.831 289.584C342.831 289.079 342.385 289.079 341.964 289.079H328.56C328.139 289.079 327.693 289.079 327.693 289.584C327.693 290.088 328.139 290.088 328.56 290.088H341.964Z" fill="black"/>
<path d="M346.3 290.088C344.937 291.147 344.268 292.181 344.07 292.509C342.955 294.25 342.757 295.839 342.757 295.864C342.757 296.167 343.054 296.167 343.252 296.167C343.673 296.167 343.698 296.116 343.797 295.662C344.367 293.19 345.829 291.072 348.628 289.912C348.926 289.811 349 289.76 349 289.584C349 289.407 348.851 289.331 348.802 289.306C347.712 288.877 344.714 287.616 343.773 283.379C343.698 283.076 343.673 283.001 343.252 283.001C343.054 283.001 342.757 283.001 342.757 283.303C342.757 283.354 342.98 284.943 344.02 286.633C344.516 287.389 345.234 288.272 346.3 289.079H327.892C327.446 289.079 327 289.079 327 289.584C327 290.088 327.446 290.088 327.892 290.088H346.3Z" fill="black"/>
<path d="M337.543 305.21C338.089 306.723 339.625 307.001 340.566 307.001C342.449 307.001 343.564 305.336 344.257 303.596C344.827 302.133 345.744 298.804 345.744 297.316C345.744 295.777 344.976 295.626 344.753 295.626C344.158 295.626 343.613 296.231 343.613 296.735C343.613 297.038 343.787 297.215 343.911 297.316C344.134 297.543 344.778 298.224 344.778 299.535C344.778 300.393 344.084 302.763 343.564 303.949C342.87 305.487 341.953 306.496 340.665 306.496C339.278 306.496 338.832 305.437 338.832 304.277C338.832 303.545 339.055 302.663 339.154 302.234L340.194 297.997C340.318 297.492 340.541 296.609 340.541 296.508C340.541 296.13 340.244 295.878 339.872 295.878C339.154 295.878 338.98 296.508 338.832 297.114C338.584 298.097 337.543 302.36 337.444 302.915C337.345 303.344 337.345 303.621 337.345 304.176C337.345 304.781 336.552 305.74 336.528 305.79C336.255 306.068 335.859 306.496 335.091 306.496C333.134 306.496 333.134 304.605 333.134 304.176C333.134 303.369 333.307 302.259 334.422 299.258C334.719 298.476 334.843 298.148 334.843 297.643C334.843 296.584 334.1 295.626 332.886 295.626C330.607 295.626 329.69 299.283 329.69 299.485C329.69 299.585 329.789 299.712 329.962 299.712C330.185 299.712 330.21 299.611 330.309 299.258C330.929 297.038 331.895 296.13 332.811 296.13C333.059 296.13 333.456 296.155 333.456 296.962C333.456 297.089 333.456 297.618 333.034 298.728C331.87 301.881 331.622 302.915 331.622 303.873C331.622 306.522 333.753 307.001 335.016 307.001C335.438 307.001 336.552 307.001 337.543 305.21Z" fill="black"/>
<path d="M464.915 290.494C464.937 290.413 464.981 290.292 464.981 290.192C464.981 289.99 464.763 289.99 464.72 289.99C464.698 289.99 463.915 290.051 463.523 290.091C463.154 290.111 462.827 290.151 462.436 290.172C461.914 290.212 461.762 290.232 461.762 290.595C461.762 290.796 461.979 290.796 462.197 290.796C463.306 290.796 463.306 290.978 463.306 291.179C463.306 291.26 463.306 291.3 463.197 291.663L460.087 303.192C460 303.494 460 303.534 460 303.655C460 304.098 460.37 304.179 460.587 304.179C461.196 304.179 461.327 303.736 461.501 303.111L462.523 299.342C464.089 299.503 465.024 300.108 465.024 301.075C465.024 301.196 465.024 301.277 464.959 301.579C464.872 301.881 464.872 302.123 464.872 302.224C464.872 303.393 465.698 304.179 466.808 304.179C467.808 304.179 468.33 303.333 468.504 303.05C468.961 302.305 469.244 301.176 469.244 301.095C469.244 300.995 469.157 300.914 469.026 300.914C468.83 300.914 468.809 300.995 468.722 301.317C468.417 302.365 467.96 303.776 466.851 303.776C466.416 303.776 466.133 303.574 466.133 302.809C466.133 302.426 466.22 301.982 466.307 301.68C466.394 301.317 466.394 301.297 466.394 301.055C466.394 299.866 465.242 299.201 463.241 298.959C464.024 298.516 464.807 297.73 465.111 297.427C466.351 296.137 467.199 295.492 468.2 295.492C468.7 295.492 468.83 295.613 468.983 295.734C468.178 295.815 467.873 296.339 467.873 296.742C467.873 297.226 468.287 297.387 468.591 297.387C469.178 297.387 469.7 296.923 469.7 296.278C469.7 295.694 469.2 295.089 468.221 295.089C467.025 295.089 466.046 295.875 464.502 297.488C464.285 297.73 463.48 298.495 462.675 298.778L464.915 290.494Z" fill="#F5BD1F"/>
<path d="M474.433 298.442C474.433 298.079 474.404 298.065 474.012 298.065C473.418 298.603 472.649 298.925 471.272 298.925V299.369C471.664 299.369 472.447 299.369 473.287 299.006V305.899C473.287 306.396 473.244 306.557 471.867 306.557H471.359V307.001C471.954 306.96 473.2 306.96 473.853 306.96C474.505 306.96 475.767 306.96 476.361 307.001V306.557H475.854C474.476 306.557 474.433 306.396 474.433 305.899V298.442Z" fill="#F5BD1F"/>
<path d="M492.823 290.664C493.192 290.664 493.584 290.664 493.584 290.261C493.584 289.858 493.192 289.858 492.823 289.858H481.056C480.686 289.858 480.295 289.858 480.295 290.261C480.295 290.664 480.686 290.664 481.056 290.664H492.823Z" fill="#F5BD1F"/>
<path d="M496.629 290.664C495.433 291.511 494.846 292.337 494.672 292.599C493.693 293.99 493.519 295.259 493.519 295.28C493.519 295.521 493.78 295.521 493.954 295.521C494.324 295.521 494.346 295.481 494.433 295.118C494.933 293.143 496.216 291.45 498.674 290.523C498.935 290.443 499 290.402 499 290.261C499 290.12 498.87 290.06 498.826 290.039C497.869 289.697 495.237 288.689 494.411 285.303C494.346 285.061 494.324 285.001 493.954 285.001C493.78 285.001 493.519 285.001 493.519 285.243C493.519 285.283 493.715 286.553 494.628 287.903C495.063 288.508 495.694 289.213 496.629 289.858H480.469C480.078 289.858 479.686 289.858 479.686 290.261C479.686 290.664 480.078 290.664 480.469 290.664H496.629Z" fill="#F5BD1F"/>
<path d="M490.721 302.809C491.004 303.937 492.048 304.179 492.57 304.179C493.266 304.179 493.788 303.756 494.136 303.071C494.505 302.345 494.788 301.156 494.788 301.095C494.788 300.995 494.701 300.914 494.571 300.914C494.375 300.914 494.353 301.015 494.266 301.317C493.875 302.708 493.483 303.776 492.613 303.776C491.961 303.776 491.961 303.111 491.961 302.849C491.961 302.385 492.026 302.184 492.243 301.337C492.396 300.793 492.548 300.249 492.678 299.685L493.57 296.399C493.722 295.895 493.722 295.855 493.722 295.795C493.722 295.492 493.461 295.291 493.135 295.291C492.504 295.291 492.352 295.795 492.222 296.299C492.004 297.085 490.83 301.418 490.677 302.123C490.656 302.123 489.807 303.776 488.22 303.776C487.089 303.776 486.871 302.869 486.871 302.123C486.871 300.974 487.48 299.362 488.046 298.012C488.307 297.367 488.415 297.105 488.415 296.702C488.415 295.835 487.741 295.089 486.697 295.089C484.696 295.089 483.891 298.012 483.891 298.173C483.891 298.254 483.978 298.354 484.131 298.354C484.326 298.354 484.348 298.274 484.435 297.992C484.957 296.258 485.805 295.492 486.632 295.492C486.849 295.492 487.197 295.513 487.197 296.157C487.197 296.682 486.958 297.266 486.632 298.032C485.675 300.43 485.566 301.196 485.566 301.801C485.566 303.857 487.241 304.179 488.133 304.179C489.525 304.179 490.286 303.292 490.721 302.809Z" fill="#F5BD1F"/>
<path d="M613.932 83.1599C613.152 83.1599 612.462 83.0216 611.864 82.7451C611.269 82.4648 610.805 82.0803 610.472 81.5917C610.138 81.0992 609.973 80.5386 609.977 79.9099C609.973 79.4174 610.07 78.9629 610.267 78.5462C610.464 78.1258 610.733 77.7754 611.074 77.4951C611.419 77.211 611.803 77.0311 612.227 76.9553V76.8871C611.67 76.7432 611.227 76.4307 610.898 75.9496C610.568 75.4648 610.405 74.9136 610.409 74.2962C610.405 73.7053 610.555 73.1769 610.858 72.711C611.161 72.2451 611.578 71.8777 612.108 71.6087C612.642 71.3398 613.25 71.2053 613.932 71.2053C614.606 71.2053 615.208 71.3398 615.739 71.6087C616.269 71.8777 616.686 72.2451 616.989 72.711C617.295 73.1769 617.451 73.7053 617.455 74.2962C617.451 74.9136 617.282 75.4648 616.949 75.9496C616.619 76.4307 616.182 76.7432 615.636 76.8871V76.9553C616.057 77.0311 616.436 77.211 616.773 77.4951C617.11 77.7754 617.379 78.1258 617.58 78.5462C617.78 78.9629 617.883 79.4174 617.886 79.9099C617.883 80.5386 617.712 81.0992 617.375 81.5917C617.042 82.0803 616.578 82.4648 615.983 82.7451C615.392 83.0216 614.708 83.1599 613.932 83.1599ZM613.932 81.9099C614.458 81.9099 614.913 81.8246 615.295 81.6542C615.678 81.4837 615.973 81.2432 616.182 80.9326C616.39 80.622 616.496 80.2583 616.5 79.8417C616.496 79.4023 616.383 79.014 616.159 78.6769C615.936 78.3398 615.631 78.0746 615.244 77.8814C614.862 77.6883 614.424 77.5917 613.932 77.5917C613.436 77.5917 612.992 77.6883 612.602 77.8814C612.216 78.0746 611.911 78.3398 611.688 78.6769C611.468 79.014 611.36 79.4023 611.364 79.8417C611.36 80.2583 611.46 80.622 611.665 80.9326C611.873 81.2432 612.17 81.4837 612.557 81.6542C612.943 81.8246 613.402 81.9099 613.932 81.9099ZM613.932 76.3871C614.348 76.3871 614.718 76.3038 615.04 76.1371C615.366 75.9705 615.621 75.7375 615.807 75.4383C615.992 75.139 616.087 74.7886 616.091 74.3871C616.087 73.9932 615.994 73.6504 615.812 73.3587C615.631 73.0633 615.379 72.836 615.057 72.6769C614.735 72.514 614.36 72.4326 613.932 72.4326C613.496 72.4326 613.116 72.514 612.79 72.6769C612.464 72.836 612.212 73.0633 612.034 73.3587C611.856 73.6504 611.769 73.9932 611.773 74.3871C611.769 74.7886 611.858 75.139 612.04 75.4383C612.225 75.7375 612.481 75.9705 612.807 76.1371C613.133 76.3038 613.508 76.3871 613.932 76.3871Z" fill="black"/>
<path d="M38.2273 261.557V262.807H33.1364V261.557H38.2273ZM44.2912 268.159C43.5109 268.159 42.8215 268.021 42.223 267.744C41.6283 267.464 41.1643 267.08 40.831 266.591C40.4976 266.098 40.3329 265.538 40.3366 264.909C40.3329 264.417 40.4295 263.962 40.6264 263.545C40.8234 263.125 41.0923 262.775 41.4332 262.494C41.7779 262.21 42.1624 262.03 42.5866 261.955V261.886C42.0298 261.742 41.5866 261.43 41.2571 260.949C40.9276 260.464 40.7647 259.913 40.7685 259.295C40.7647 258.705 40.9143 258.176 41.2173 257.71C41.5204 257.244 41.937 256.877 42.4673 256.608C43.0014 256.339 43.6094 256.205 44.2912 256.205C44.9654 256.205 45.5677 256.339 46.098 256.608C46.6283 256.877 47.045 257.244 47.348 257.71C47.6548 258.176 47.8101 258.705 47.8139 259.295C47.8101 259.913 47.6416 260.464 47.3082 260.949C46.9787 261.43 46.5412 261.742 45.9957 261.886V261.955C46.4162 262.03 46.795 262.21 47.1321 262.494C47.4692 262.775 47.7382 263.125 47.9389 263.545C48.1397 263.962 48.242 264.417 48.2457 264.909C48.242 265.538 48.0715 266.098 47.7344 266.591C47.401 267.08 46.937 267.464 46.3423 267.744C45.7514 268.021 45.0677 268.159 44.2912 268.159ZM44.2912 266.909C44.8177 266.909 45.2723 266.824 45.6548 266.653C46.0374 266.483 46.3329 266.242 46.5412 265.932C46.7495 265.621 46.8556 265.258 46.8594 264.841C46.8556 264.402 46.742 264.013 46.5185 263.676C46.295 263.339 45.9901 263.074 45.6037 262.881C45.2211 262.687 44.7836 262.591 44.2912 262.591C43.795 262.591 43.3518 262.687 42.9616 262.881C42.5753 263.074 42.2704 263.339 42.0469 263.676C41.8272 264.013 41.7192 264.402 41.723 264.841C41.7192 265.258 41.8196 265.621 42.0241 265.932C42.2325 266.242 42.5298 266.483 42.9162 266.653C43.3026 266.824 43.7609 266.909 44.2912 266.909ZM44.2912 261.386C44.7079 261.386 45.0772 261.303 45.3991 261.136C45.7249 260.97 45.9806 260.737 46.1662 260.438C46.3518 260.138 46.4465 259.788 46.4503 259.386C46.4465 258.992 46.3537 258.65 46.1719 258.358C45.9901 258.062 45.7382 257.835 45.4162 257.676C45.0942 257.513 44.7192 257.432 44.2912 257.432C43.8556 257.432 43.4749 257.513 43.1491 257.676C42.8234 257.835 42.5715 258.062 42.3935 258.358C42.2154 258.65 42.1283 258.992 42.1321 259.386C42.1283 259.788 42.2173 260.138 42.3991 260.438C42.5848 260.737 42.8404 260.97 43.1662 261.136C43.492 261.303 43.867 261.386 44.2912 261.386Z" fill="#F5BD1F"/>
<path d="M604.068 203.16C603.591 203.152 603.114 203.061 602.636 202.887C602.159 202.713 601.723 202.419 601.33 202.006C600.936 201.59 600.619 201.027 600.381 200.319C600.142 199.607 600.023 198.713 600.023 197.637C600.023 196.607 600.119 195.694 600.312 194.898C600.506 194.099 600.786 193.427 601.153 192.881C601.521 192.332 601.964 191.916 602.483 191.631C603.006 191.347 603.595 191.205 604.25 191.205C604.902 191.205 605.481 191.336 605.989 191.597C606.5 191.855 606.917 192.215 607.239 192.677C607.561 193.139 607.769 193.671 607.864 194.273H606.477C606.348 193.751 606.098 193.317 605.727 192.972C605.356 192.628 604.864 192.455 604.25 192.455C603.348 192.455 602.638 192.847 602.119 193.631C601.604 194.416 601.345 195.516 601.341 196.933H601.432C601.644 196.611 601.896 196.336 602.188 196.109C602.483 195.878 602.809 195.7 603.165 195.575C603.521 195.45 603.898 195.387 604.295 195.387C604.962 195.387 605.572 195.554 606.125 195.887C606.678 196.217 607.121 196.673 607.455 197.256C607.788 197.836 607.955 198.501 607.955 199.251C607.955 199.97 607.794 200.63 607.472 201.228C607.15 201.823 606.697 202.296 606.114 202.648C605.534 202.997 604.852 203.167 604.068 203.16ZM604.068 201.91C604.545 201.91 604.973 201.791 605.352 201.552C605.735 201.313 606.036 200.993 606.256 200.592C606.479 200.19 606.591 199.743 606.591 199.251C606.591 198.77 606.483 198.332 606.267 197.938C606.055 197.541 605.761 197.224 605.386 196.989C605.015 196.755 604.591 196.637 604.114 196.637C603.754 196.637 603.419 196.709 603.108 196.853C602.797 196.993 602.525 197.186 602.29 197.433C602.059 197.679 601.877 197.961 601.744 198.279C601.612 198.594 601.545 198.925 601.545 199.273C601.545 199.736 601.653 200.167 601.869 200.569C602.089 200.97 602.388 201.294 602.767 201.541C603.15 201.787 603.583 201.91 604.068 201.91Z" fill="black"/>
<path d="M316.568 371.001L321.773 360.705V360.614H315.773V359.364H323.227V360.683L318.045 371.001H316.568Z" fill="black"/>
<path d="M354.03 336.756C353.895 337.292 354.22 337.835 354.755 337.97L363.482 340.172C364.017 340.307 364.561 339.982 364.696 339.447C364.831 338.911 364.507 338.368 363.971 338.233L356.214 336.276L358.171 328.519C358.306 327.983 357.982 327.44 357.446 327.305C356.911 327.169 356.367 327.494 356.232 328.03L354.03 336.756ZM560.487 213.142L354.487 336.142L355.513 337.859L561.513 214.859L560.487 213.142Z" fill="#F5BD1F"/>
<path d="M298.564 337.826C299.02 337.514 299.137 336.892 298.825 336.436L293.745 329.007C293.433 328.551 292.811 328.435 292.355 328.746C291.899 329.058 291.782 329.68 292.094 330.136L296.61 336.74L290.007 341.256C289.551 341.567 289.434 342.19 289.746 342.646C290.057 343.101 290.68 343.218 291.135 342.907L298.564 337.826ZM52.8155 291.984L297.815 337.984L298.185 336.018L53.1845 290.018L52.8155 291.984Z" fill="#F5BD1F"/>
<path d="M164.326 295.425C164.66 295.425 165.014 295.425 165.014 294.992C165.014 294.558 164.66 294.558 164.326 294.558H153.688C153.354 294.558 153 294.558 153 294.992C153 295.425 153.354 295.425 153.688 295.425H164.326Z" fill="#F5BD1F"/>
<path d="M172.186 285.909C172.206 285.822 172.245 285.692 172.245 285.584C172.245 285.367 172.049 285.367 172.01 285.367C171.99 285.367 171.282 285.432 170.928 285.475C170.594 285.497 170.299 285.54 169.945 285.562C169.473 285.605 169.335 285.627 169.335 286.017C169.335 286.234 169.532 286.234 169.729 286.234C170.731 286.234 170.731 286.429 170.731 286.646C170.731 286.733 170.731 286.776 170.633 287.166L167.821 299.565C167.743 299.891 167.743 299.934 167.743 300.064C167.743 300.541 168.077 300.628 168.274 300.628C168.824 300.628 168.942 300.151 169.099 299.479L170.024 295.425C171.439 295.599 172.285 296.249 172.285 297.289C172.285 297.419 172.285 297.506 172.226 297.831C172.147 298.156 172.147 298.417 172.147 298.525C172.147 299.782 172.894 300.628 173.897 300.628C174.802 300.628 175.274 299.717 175.431 299.414C175.844 298.612 176.099 297.398 176.099 297.311C176.099 297.203 176.021 297.116 175.903 297.116C175.726 297.116 175.706 297.203 175.627 297.549C175.352 298.677 174.939 300.194 173.936 300.194C173.543 300.194 173.288 299.977 173.288 299.154C173.288 298.742 173.366 298.265 173.445 297.94C173.524 297.549 173.524 297.528 173.524 297.268C173.524 295.989 172.481 295.273 170.672 295.013C171.38 294.536 172.088 293.691 172.363 293.366C173.484 291.978 174.251 291.285 175.156 291.285C175.608 291.285 175.726 291.415 175.863 291.545C175.136 291.632 174.861 292.195 174.861 292.629C174.861 293.149 175.234 293.322 175.509 293.322C176.04 293.322 176.512 292.824 176.512 292.13C176.512 291.502 176.06 290.851 175.175 290.851C174.094 290.851 173.209 291.697 171.813 293.431C171.616 293.691 170.889 294.515 170.161 294.818L172.186 285.909Z" fill="#F5BD1F"/>
<path d="M180.371 300.714C180.581 300.497 181.131 300.021 181.341 299.818C182.154 298.995 182.927 298.2 182.927 296.885C182.927 295.165 181.616 294.052 179.978 294.052C178.405 294.052 177.369 295.367 177.369 296.653C177.369 297.362 177.881 297.463 178.064 297.463C178.339 297.463 178.746 297.246 178.746 296.697C178.746 295.945 178.09 295.945 177.933 295.945C178.313 294.89 179.191 294.529 179.834 294.529C181.053 294.529 181.682 295.671 181.682 296.885C181.682 298.388 180.725 299.486 179.178 301.234L177.527 303.113C177.369 303.272 177.369 303.301 177.369 303.662H182.547L182.927 301.076H182.521C182.482 301.365 182.377 302.087 182.219 302.362C182.141 302.477 181.145 302.477 180.935 302.477H178.602L180.371 300.714Z" fill="#F5BD1F"/>
<path d="M197.416 286.092C197.75 286.092 198.104 286.092 198.104 285.658C198.104 285.225 197.75 285.225 197.416 285.225H186.778C186.444 285.225 186.09 285.225 186.09 285.658C186.09 286.092 186.444 286.092 186.778 286.092H197.416Z" fill="#F5BD1F"/>
<path d="M200.857 286.092C199.775 287.002 199.244 287.891 199.087 288.173C198.202 289.669 198.045 291.034 198.045 291.056C198.045 291.316 198.281 291.316 198.438 291.316C198.773 291.316 198.792 291.273 198.871 290.883C199.323 288.758 200.483 286.937 202.705 285.94C202.941 285.854 203 285.81 203 285.658C203 285.507 202.882 285.442 202.843 285.42C201.978 285.051 199.598 283.968 198.851 280.326C198.792 280.066 198.773 280.001 198.438 280.001C198.281 280.001 198.045 280.001 198.045 280.261C198.045 280.304 198.222 281.67 199.048 283.122C199.441 283.773 200.011 284.531 200.857 285.225H186.247C185.893 285.225 185.54 285.225 185.54 285.658C185.54 286.092 185.893 286.092 186.247 286.092H200.857Z" fill="#F5BD1F"/>
<path d="M198.269 292.304C198.269 290.938 197.639 290.851 197.482 290.851C197.01 290.851 196.578 291.372 196.578 291.805C196.578 292.065 196.715 292.217 196.794 292.304C196.99 292.499 197.502 293.084 197.502 294.211C197.502 295.122 196.322 300.194 193.962 300.194C192.763 300.194 192.527 299.088 192.527 298.286C192.527 297.203 192.979 295.685 193.51 294.124C193.825 293.236 193.903 293.019 193.903 292.585C193.903 291.675 193.314 290.851 192.35 290.851C190.541 290.851 189.814 293.994 189.814 294.168C189.814 294.255 189.892 294.363 190.03 294.363C190.207 294.363 190.226 294.276 190.305 293.973C190.777 292.109 191.544 291.285 192.291 291.285C192.468 291.285 192.802 291.285 192.802 292C192.802 292.564 192.586 293.192 192.291 294.016C191.347 296.791 191.347 297.463 191.347 297.983C191.347 298.46 191.406 299.349 192.016 299.956C192.724 300.628 193.707 300.628 193.884 300.628C197.148 300.628 198.269 293.539 198.269 292.304Z" fill="#F5BD1F"/>
</svg>
