<svg width="303" height="213" viewBox="0 0 303 213" fill="none" xmlns="http://www.w3.org/2000/svg">
<rect width="303" height="213" fill="white"/>
<path d="M31.041 173.032C31.041 172.96 31.005 172.924 30.969 172.87C30.3025 172.203 29.0957 170.996 27.8888 169.051C24.9888 164.404 23.6739 158.55 23.6739 151.615C23.6739 146.77 24.3224 140.519 27.2944 135.152C28.7174 132.594 30.1944 131.117 30.987 130.324C31.041 130.27 31.041 130.234 31.041 130.18C31.041 130 30.9149 130 30.6627 130C30.4106 130 30.3745 130 30.1044 130.27C24.0702 135.764 22.1789 144.014 22.1789 151.597C22.1789 158.676 23.8 165.809 28.3752 171.194C28.7354 171.609 29.4199 172.347 30.1584 172.996C30.3745 173.212 30.4106 173.212 30.6627 173.212C30.9149 173.212 31.041 173.212 31.041 173.032Z" fill="black"/>
<path d="M44.3843 133.54C44.3843 133.125 44.3843 133.107 44.0241 133.107C43.5918 133.594 42.6911 134.26 40.8359 134.26V134.782C41.2501 134.782 42.1508 134.782 43.1414 134.314V143.699C43.1414 144.347 43.0874 144.563 41.5023 144.563H40.9439V145.086C41.4303 145.05 43.1775 145.05 43.7719 145.05C44.3663 145.05 46.0955 145.05 46.5818 145.086V144.563H46.0234C44.4383 144.563 44.3843 144.347 44.3843 143.699V133.54Z" fill="black"/>
<path d="M77.9559 142.059H77.5597C77.5056 142.366 77.3615 143.356 77.1814 143.645C77.0553 143.807 76.0286 143.807 75.4882 143.807H72.1559C72.6423 143.392 73.741 142.24 74.2094 141.807C76.9473 139.286 77.9559 138.349 77.9559 136.566C77.9559 134.494 76.3168 133.107 74.2274 133.107C72.1379 133.107 70.9131 134.891 70.9131 136.44C70.9131 137.358 71.7056 137.358 71.7597 137.358C72.1379 137.358 72.6062 137.088 72.6062 136.512C72.6062 136.007 72.264 135.665 71.7597 135.665C71.5976 135.665 71.5615 135.665 71.5075 135.683C71.8497 134.458 72.8224 133.63 73.9932 133.63C75.5243 133.63 76.4609 134.909 76.4609 136.566C76.4609 138.097 75.5783 139.43 74.5516 140.582L70.9131 144.653V145.086H77.4876L77.9559 142.059Z" fill="black"/>
<path d="M108.934 139.322C108.934 137.827 108.844 136.368 108.195 134.999C107.457 133.504 106.16 133.107 105.277 133.107C104.233 133.107 102.954 133.63 102.287 135.125C101.783 136.259 101.603 137.376 101.603 139.322C101.603 141.069 101.729 142.384 102.377 143.663C103.08 145.032 104.323 145.464 105.259 145.464C106.826 145.464 107.727 144.527 108.249 143.482C108.898 142.132 108.934 140.366 108.934 139.322ZM105.259 145.104C104.683 145.104 103.512 144.779 103.17 142.816C102.972 141.735 102.972 140.366 102.972 139.105C102.972 137.628 102.972 136.296 103.26 135.233C103.566 134.026 104.485 133.468 105.259 133.468C105.944 133.468 106.988 133.882 107.331 135.431C107.565 136.458 107.565 137.881 107.565 139.105C107.565 140.312 107.565 141.681 107.367 142.78C107.024 144.761 105.89 145.104 105.259 145.104Z" fill="black"/>
<path d="M42.511 160.384C42.2048 160.402 42.1327 160.42 42.1327 160.582C42.1327 160.762 42.2228 160.762 42.547 160.762H43.3756C44.9067 160.762 45.5911 162.023 45.5911 163.752C45.5911 166.112 44.3663 166.743 43.4837 166.743C42.6191 166.743 41.1421 166.328 40.6197 165.139C41.1961 165.229 41.7185 164.905 41.7185 164.257C41.7185 163.734 41.3402 163.374 40.8358 163.374C40.4035 163.374 39.9352 163.626 39.9352 164.311C39.9352 165.914 41.5383 167.229 43.5377 167.229C45.6812 167.229 47.2663 165.59 47.2663 163.77C47.2663 162.113 45.9334 160.816 44.2042 160.51C45.7713 160.06 46.78 158.745 46.78 157.34C46.78 155.917 45.3029 154.872 43.5557 154.872C41.7545 154.872 40.4216 155.971 40.4216 157.286C40.4216 158.006 40.9799 158.151 41.2501 158.151C41.6284 158.151 42.0607 157.88 42.0607 157.34C42.0607 156.764 41.6284 156.511 41.2321 156.511C41.124 156.511 41.088 156.511 41.034 156.529C41.7185 155.305 43.4116 155.305 43.5017 155.305C44.0961 155.305 45.2669 155.575 45.2669 157.34C45.2669 157.682 45.2129 158.691 44.6905 159.465C44.1501 160.258 43.5377 160.312 43.0514 160.33L42.511 160.384Z" fill="black"/>
<path d="M74.8958 162.708C75.202 162.708 75.5262 162.708 75.5262 162.348C75.5262 161.987 75.202 161.987 74.8958 161.987H65.1511C64.8448 161.987 64.5206 161.987 64.5206 162.348C64.5206 162.708 64.8448 162.708 65.1511 162.708H74.8958Z" fill="black"/>
<path d="M82.2229 155.305C82.2229 154.89 82.2229 154.872 81.8627 154.872C81.4304 155.359 80.5297 156.025 78.6745 156.025V156.547C79.0887 156.547 79.9894 156.547 80.9801 156.079V165.464C80.9801 166.112 80.926 166.328 79.3409 166.328H78.7825V166.851C79.2689 166.815 81.0161 166.815 81.6105 166.815C82.2049 166.815 83.9341 166.815 84.4204 166.851V166.328H83.862C82.277 166.328 82.2229 166.112 82.2229 165.464V155.305Z" fill="black"/>
<path d="M103.17 156.53C103.944 156.782 104.575 156.8 104.773 156.8C106.808 156.8 108.105 155.305 108.105 155.052C108.105 154.98 108.069 154.89 107.961 154.89C107.925 154.89 107.889 154.89 107.727 154.962C106.718 155.395 105.854 155.449 105.385 155.449C104.197 155.449 103.35 155.089 103.008 154.944C102.882 154.89 102.846 154.89 102.828 154.89C102.683 154.89 102.683 154.998 102.683 155.287V160.636C102.683 160.961 102.683 161.069 102.9 161.069C102.99 161.069 103.008 161.051 103.188 160.834C103.692 160.096 104.539 159.664 105.439 159.664C106.394 159.664 106.862 160.546 107.006 160.853C107.313 161.555 107.331 162.438 107.331 163.122C107.331 163.807 107.331 164.833 106.826 165.644C106.43 166.292 105.728 166.743 104.935 166.743C103.746 166.743 102.575 165.932 102.251 164.617C102.341 164.653 102.449 164.671 102.539 164.671C102.846 164.671 103.332 164.491 103.332 163.879C103.332 163.374 102.99 163.086 102.539 163.086C102.215 163.086 101.747 163.248 101.747 163.951C101.747 165.482 102.972 167.229 104.971 167.229C107.006 167.229 108.79 165.518 108.79 163.23C108.79 161.087 107.349 159.303 105.457 159.303C104.431 159.303 103.638 159.754 103.17 160.258V156.53Z" fill="black"/>
<path d="M126.68 151.615C126.68 144.536 125.059 137.403 120.484 132.017C120.124 131.603 119.439 130.865 118.701 130.216C118.485 130 118.449 130 118.197 130C117.98 130 117.818 130 117.818 130.18C117.818 130.252 117.89 130.324 117.926 130.36C118.557 131.009 119.764 132.216 120.971 134.161C123.871 138.808 125.185 144.662 125.185 151.597C125.185 156.442 124.537 162.693 121.565 168.06C120.142 170.618 118.647 172.113 117.89 172.87C117.854 172.924 117.818 172.978 117.818 173.032C117.818 173.212 117.98 173.212 118.197 173.212C118.449 173.212 118.485 173.212 118.755 172.942C124.789 167.448 126.68 159.198 126.68 151.615Z" fill="black"/>
<path d="M26.718 178.388C26.718 177.973 26.718 177.883 26.4659 177.883C25.3671 177.865 23.5839 177.721 21.9627 176.929C20.0174 175.956 19.2789 174.821 18.8286 174.119C18.7745 174.029 18.6665 174.029 18.4323 174.029C18.018 174.029 18 174.047 18 174.497V174.785C20.4497 179.198 24.5025 180.045 26.3398 180.045C26.718 180.045 26.718 180.027 26.718 179.54V178.388Z" fill="black"/>
<path d="M66.334 177.883H26.538V180.045H66.334V177.883Z" fill="black"/>
<path d="M74.8719 183.143C72.4222 178.73 68.3694 177.883 66.5322 177.883C66.1539 177.883 66.1539 177.901 66.1539 178.388V179.54C66.1539 179.955 66.1539 180.045 66.4061 180.045C67.5048 180.063 69.2881 180.207 70.9092 180.999C72.8545 181.972 73.5931 183.107 74.0434 183.809C74.0974 183.899 74.2055 183.899 74.4396 183.899C74.8539 183.899 74.8719 183.881 74.8719 183.431V183.143Z" fill="black"/>
<path d="M82.7255 178.388C82.7255 177.901 82.7255 177.883 82.3472 177.883C80.5099 177.883 76.4571 178.748 74.0074 183.143V183.431C74.0074 183.881 74.0254 183.899 74.4397 183.899C74.782 183.899 74.8 183.881 74.89 183.755C76.3671 181.396 78.8528 180.117 82.5093 180.045C82.7255 180.045 82.7255 179.919 82.7255 179.54V178.388Z" fill="black"/>
<path d="M122.341 177.883H82.5454V180.045H122.341V177.883Z" fill="black"/>
<path d="M130.879 174.497C130.879 174.047 130.861 174.029 130.447 174.029C130.105 174.029 130.087 174.047 129.997 174.173C128.52 176.532 126.034 177.811 122.377 177.883C122.161 177.883 122.161 178.009 122.161 178.388V179.54C122.161 180.027 122.161 180.045 122.54 180.045C124.377 180.045 128.43 179.18 130.879 174.785V174.497Z" fill="black"/>
<path d="M71.8829 194.327C71.3305 195.203 70.8382 195.323 70.4059 195.359C70.2858 195.371 70.1417 195.383 70.1417 195.587C70.1417 195.623 70.1657 195.756 70.3098 195.756C70.4179 195.756 70.4899 195.72 71.3305 195.72C72.1471 195.72 72.4233 195.756 72.4833 195.756C72.5433 195.756 72.7235 195.756 72.7235 195.527C72.7235 195.371 72.5674 195.359 72.5073 195.359C72.2551 195.347 72.003 195.251 72.003 194.987C72.003 194.807 72.099 194.651 72.3272 194.303L73.1438 192.982H76.434L76.6862 195.011C76.6862 195.179 76.4701 195.359 75.9057 195.359C75.7255 195.359 75.5694 195.359 75.5694 195.587C75.5694 195.599 75.5814 195.756 75.7736 195.756C75.8937 195.756 76.35 195.732 76.4581 195.72H77.2146C78.2953 195.72 78.4995 195.756 78.5955 195.756C78.6436 195.756 78.8357 195.756 78.8357 195.527C78.8357 195.359 78.6796 195.359 78.4875 195.359C77.827 195.359 77.815 195.251 77.779 194.951L76.8303 187.53C76.7943 187.266 76.7823 187.182 76.5781 187.182C76.362 187.182 76.2899 187.302 76.2179 187.422L71.8829 194.327ZM73.3959 192.585L75.8817 188.635L76.386 192.585H73.3959Z" fill="black"/>
<path d="M158.041 173.032C158.041 172.96 158.005 172.924 157.969 172.87C157.302 172.203 156.096 170.996 154.889 169.051C151.989 164.404 150.674 158.55 150.674 151.615C150.674 146.77 151.322 140.519 154.294 135.152C155.717 132.594 157.194 131.117 157.987 130.324C158.041 130.27 158.041 130.234 158.041 130.18C158.041 130 157.915 130 157.663 130C157.411 130 157.375 130 157.104 130.27C151.07 135.764 149.179 144.014 149.179 151.597C149.179 158.676 150.8 165.809 155.375 171.194C155.735 171.609 156.42 172.347 157.158 172.996C157.375 173.212 157.411 173.212 157.663 173.212C157.915 173.212 158.041 173.212 158.041 173.032Z" fill="black"/>
<path d="M173.92 138.619C173.614 138.637 173.542 138.655 173.542 138.817C173.542 138.997 173.632 138.997 173.956 138.997H174.785C176.316 138.997 177 140.258 177 141.987C177 144.347 175.776 144.978 174.893 144.978C174.028 144.978 172.551 144.563 172.029 143.374C172.605 143.464 173.128 143.14 173.128 142.492C173.128 141.969 172.749 141.609 172.245 141.609C171.813 141.609 171.344 141.861 171.344 142.546C171.344 144.149 172.948 145.464 174.947 145.464C177.09 145.464 178.676 143.825 178.676 142.005C178.676 140.348 177.343 139.051 175.613 138.745C177.181 138.295 178.189 136.98 178.189 135.575C178.189 134.152 176.712 133.107 174.965 133.107C173.164 133.107 171.831 134.206 171.831 135.521C171.831 136.241 172.389 136.386 172.659 136.386C173.038 136.386 173.47 136.115 173.47 135.575C173.47 134.999 173.038 134.746 172.641 134.746C172.533 134.746 172.497 134.746 172.443 134.764C173.128 133.54 174.821 133.54 174.911 133.54C175.505 133.54 176.676 133.81 176.676 135.575C176.676 135.917 176.622 136.926 176.1 137.7C175.559 138.493 174.947 138.547 174.461 138.565L173.92 138.619Z" fill="black"/>
<path d="M211.037 133.54C211.037 133.125 211.037 133.107 210.676 133.107C210.244 133.594 209.343 134.26 207.488 134.26V134.782C207.902 134.782 208.803 134.782 209.794 134.314V143.699C209.794 144.347 209.74 144.563 208.155 144.563H207.596V145.086C208.083 145.05 209.83 145.05 210.424 145.05C211.019 145.05 212.748 145.05 213.234 145.086V144.563H212.676C211.091 144.563 211.037 144.347 211.037 143.699V133.54Z" fill="black"/>
<path d="M247.685 139.844C247.685 144.095 245.793 144.978 244.712 144.978C244.28 144.978 243.326 144.923 242.875 144.293H242.983C243.109 144.329 243.758 144.221 243.758 143.555C243.758 143.158 243.488 142.816 243.019 142.816C242.551 142.816 242.263 143.122 242.263 143.591C242.263 144.707 243.163 145.464 244.73 145.464C246.982 145.464 249.162 143.068 249.162 139.159C249.162 134.314 247.144 133.107 245.559 133.107C243.578 133.107 241.83 134.764 241.83 137.142C241.83 139.52 243.506 141.141 245.307 141.141C246.64 141.141 247.324 140.168 247.685 139.25V139.844ZM245.379 140.781C244.244 140.781 243.758 139.862 243.596 139.52C243.307 138.835 243.307 137.971 243.307 137.16C243.307 136.151 243.307 135.287 243.776 134.548C244.1 134.062 244.586 133.54 245.559 133.54C246.586 133.54 247.108 134.44 247.288 134.855C247.648 135.737 247.648 137.268 247.648 137.538C247.648 139.051 246.964 140.781 245.379 140.781Z" fill="black"/>
<path d="M171.384 155.305C171.384 154.89 171.384 154.872 171.024 154.872C170.592 155.359 169.691 156.025 167.836 156.025V156.547C168.25 156.547 169.151 156.547 170.141 156.079V165.464C170.141 166.112 170.087 166.328 168.502 166.328H167.944V166.851C168.43 166.815 170.177 166.815 170.772 166.815C171.366 166.815 173.095 166.815 173.582 166.851V166.328H173.023C171.438 166.328 171.384 166.112 171.384 165.464V155.305Z" fill="black"/>
<path d="M182.941 163.825H182.544C182.49 164.131 182.346 165.121 182.166 165.41C182.04 165.572 181.013 165.572 180.473 165.572H177.141C177.627 165.157 178.726 164.005 179.194 163.572C181.932 161.051 182.941 160.114 182.941 158.331C182.941 156.259 181.302 154.872 179.212 154.872C177.123 154.872 175.898 156.656 175.898 158.205C175.898 159.123 176.69 159.123 176.744 159.123C177.123 159.123 177.591 158.853 177.591 158.277C177.591 157.772 177.249 157.43 176.744 157.43C176.582 157.43 176.546 157.43 176.492 157.448C176.834 156.223 177.807 155.395 178.978 155.395C180.509 155.395 181.446 156.674 181.446 158.331C181.446 159.862 180.563 161.195 179.536 162.347L175.898 166.418V166.851H182.472L182.941 163.825Z" fill="black"/>
<path d="M210.714 162.708C211.021 162.708 211.345 162.708 211.345 162.348C211.345 161.987 211.021 161.987 210.714 161.987H200.97C200.663 161.987 200.339 161.987 200.339 162.348C200.339 162.708 200.663 162.708 200.97 162.708H210.714Z" fill="black"/>
<path d="M220.779 163.825H220.383C220.329 164.131 220.185 165.121 220.005 165.41C219.879 165.572 218.852 165.572 218.312 165.572H214.979C215.466 165.157 216.564 164.005 217.033 163.572C219.771 161.051 220.779 160.114 220.779 158.331C220.779 156.259 219.14 154.872 217.051 154.872C214.961 154.872 213.736 156.656 213.736 158.205C213.736 159.123 214.529 159.123 214.583 159.123C214.961 159.123 215.43 158.853 215.43 158.277C215.43 157.772 215.087 157.43 214.583 157.43C214.421 157.43 214.385 157.43 214.331 157.448C214.673 156.223 215.646 155.395 216.817 155.395C218.348 155.395 219.284 156.674 219.284 158.331C219.284 159.862 218.402 161.195 217.375 162.347L213.736 166.418V166.851H220.311L220.779 163.825Z" fill="black"/>
<path d="M244.608 163.825H244.212C244.158 164.131 244.014 165.121 243.834 165.41C243.708 165.572 242.681 165.572 242.141 165.572H238.808C239.295 165.157 240.393 164.005 240.862 163.572C243.6 161.051 244.608 160.114 244.608 158.331C244.608 156.259 242.969 154.872 240.88 154.872C238.79 154.872 237.565 156.656 237.565 158.205C237.565 159.123 238.358 159.123 238.412 159.123C238.79 159.123 239.259 158.853 239.259 158.277C239.259 157.772 238.916 157.43 238.412 157.43C238.25 157.43 238.214 157.43 238.16 157.448C238.502 156.223 239.475 155.395 240.645 155.395C242.177 155.395 243.113 156.674 243.113 158.331C243.113 159.862 242.231 161.195 241.204 162.347L237.565 166.418V166.851H244.14L244.608 163.825Z" fill="black"/>
<path d="M250.869 160.348C251.77 159.862 253.084 159.033 253.084 157.52C253.084 155.953 251.571 154.872 249.914 154.872C248.131 154.872 246.726 156.187 246.726 157.826C246.726 158.439 246.906 159.051 247.411 159.664C247.609 159.898 247.627 159.916 248.888 160.798C247.14 161.609 246.24 162.816 246.24 164.131C246.24 166.04 248.059 167.229 249.896 167.229C251.896 167.229 253.571 165.752 253.571 163.861C253.571 162.023 252.274 161.213 250.869 160.348ZM248.419 158.727C248.185 158.565 247.465 158.097 247.465 157.214C247.465 156.043 248.689 155.305 249.896 155.305C251.193 155.305 252.346 156.241 252.346 157.538C252.346 158.637 251.553 159.52 250.509 160.096L248.419 158.727ZM249.266 161.051L251.445 162.474C251.914 162.78 252.742 163.338 252.742 164.437C252.742 165.806 251.355 166.743 249.914 166.743C248.383 166.743 247.068 165.626 247.068 164.131C247.068 162.726 248.095 161.591 249.266 161.051Z" fill="black"/>
<path d="M271.317 151.615C271.317 144.536 269.696 137.403 265.121 132.017C264.761 131.603 264.076 130.865 263.338 130.216C263.122 130 263.086 130 262.834 130C262.617 130 262.455 130 262.455 130.18C262.455 130.252 262.527 130.324 262.563 130.36C263.194 131.009 264.401 132.216 265.608 134.161C268.508 138.808 269.822 144.662 269.822 151.597C269.822 156.442 269.174 162.693 266.202 168.06C264.779 170.618 263.284 172.113 262.527 172.87C262.491 172.924 262.455 172.978 262.455 173.032C262.455 173.212 262.617 173.212 262.834 173.212C263.086 173.212 263.122 173.212 263.392 172.942C269.426 167.448 271.317 159.198 271.317 151.615Z" fill="black"/>
<path d="M153.718 178.388C153.718 177.973 153.718 177.883 153.466 177.883C152.367 177.865 150.584 177.721 148.963 176.929C147.017 175.956 146.279 174.821 145.829 174.119C145.775 174.029 145.666 174.029 145.432 174.029C145.018 174.029 145 174.047 145 174.497V174.785C147.45 179.198 151.502 180.045 153.34 180.045C153.718 180.045 153.718 180.027 153.718 179.54V178.388Z" fill="black"/>
<path d="M202.153 177.883H153.538V180.045H202.153V177.883Z" fill="black"/>
<path d="M210.69 183.143C208.241 178.73 204.188 177.883 202.351 177.883C201.972 177.883 201.972 177.901 201.972 178.388V179.54C201.972 179.955 201.972 180.045 202.225 180.045C203.323 180.063 205.107 180.207 206.728 180.999C208.673 181.972 209.412 183.107 209.862 183.809C209.916 183.899 210.024 183.899 210.258 183.899C210.672 183.899 210.69 183.881 210.69 183.431V183.143Z" fill="black"/>
<path d="M218.544 178.388C218.544 177.901 218.544 177.883 218.166 177.883C216.328 177.883 212.276 178.748 209.826 183.143V183.431C209.826 183.881 209.844 183.899 210.258 183.899C210.6 183.899 210.618 183.881 210.709 183.755C212.186 181.396 214.671 180.117 218.328 180.045C218.544 180.045 218.544 179.919 218.544 179.54V178.388Z" fill="black"/>
<path d="M266.978 177.883H218.364V180.045H266.978V177.883Z" fill="black"/>
<path d="M275.516 174.497C275.516 174.047 275.498 174.029 275.084 174.029C274.742 174.029 274.724 174.047 274.634 174.173C273.157 176.532 270.671 177.811 267.014 177.883C266.798 177.883 266.798 178.009 266.798 178.388V179.54C266.798 180.027 266.798 180.045 267.177 180.045C269.014 180.045 273.067 179.18 275.516 174.785V174.497Z" fill="black"/>
<path d="M202.594 194.327C202.041 195.203 201.549 195.323 201.117 195.359C200.997 195.371 200.852 195.383 200.852 195.587C200.852 195.623 200.876 195.756 201.021 195.756C201.129 195.756 201.201 195.72 202.041 195.72C202.858 195.72 203.134 195.756 203.194 195.756C203.254 195.756 203.434 195.756 203.434 195.527C203.434 195.371 203.278 195.359 203.218 195.359C202.966 195.347 202.714 195.251 202.714 194.987C202.714 194.807 202.81 194.651 203.038 194.303L203.855 192.982H207.145L207.397 195.011C207.397 195.179 207.181 195.359 206.616 195.359C206.436 195.359 206.28 195.359 206.28 195.587C206.28 195.599 206.292 195.756 206.484 195.756C206.604 195.756 207.061 195.732 207.169 195.72H207.925C209.006 195.72 209.21 195.756 209.306 195.756C209.354 195.756 209.546 195.756 209.546 195.527C209.546 195.359 209.39 195.359 209.198 195.359C208.538 195.359 208.526 195.251 208.49 194.951L207.541 187.53C207.505 187.266 207.493 187.182 207.289 187.182C207.073 187.182 207.001 187.302 206.929 187.422L202.594 194.327ZM204.107 192.585L206.592 188.635L207.097 192.585H204.107Z" fill="black"/>
<path d="M211.958 194.807C211.85 195.263 211.826 195.359 210.938 195.359C210.709 195.359 210.565 195.359 210.565 195.588C210.565 195.756 210.721 195.756 210.926 195.756H215.381C217.362 195.756 218.839 194.351 218.839 193.186C218.839 192.309 218.082 191.601 216.882 191.469C218.275 191.204 219.475 190.292 219.475 189.235C219.475 188.334 218.599 187.554 217.086 187.554H212.895C212.679 187.554 212.523 187.554 212.523 187.782C212.523 187.95 212.667 187.95 212.871 187.95C213.267 187.95 213.615 187.95 213.615 188.142C213.615 188.19 213.603 188.202 213.567 188.359L211.958 194.807ZM213.832 191.325L214.564 188.395C214.672 187.986 214.684 187.95 215.176 187.95H216.906C218.082 187.95 218.347 188.719 218.347 189.211C218.347 190.232 217.254 191.325 215.717 191.325H213.832ZM213.003 195.359C212.895 195.335 212.859 195.335 212.859 195.251C212.859 195.155 212.883 195.059 212.907 194.987L213.747 191.661H216.185C217.302 191.661 217.674 192.417 217.674 193.09C217.674 194.267 216.521 195.359 215.08 195.359H213.003Z" fill="black"/>
<path d="M204.863 29.253C204.755 29.7093 204.731 29.8054 203.842 29.8054C203.614 29.8054 203.47 29.8054 203.47 30.0336C203.47 30.2017 203.626 30.2017 203.83 30.2017H208.285C210.267 30.2017 211.744 28.7967 211.744 27.6319C211.744 26.7553 210.987 26.0468 209.786 25.9147C211.179 25.6505 212.38 24.7379 212.38 23.6812C212.38 22.7805 211.504 22 209.991 22H205.8C205.584 22 205.427 22 205.427 22.2282C205.427 22.3963 205.572 22.3963 205.776 22.3963C206.172 22.3963 206.52 22.3963 206.52 22.5884C206.52 22.6364 206.508 22.6484 206.472 22.8046L204.863 29.253ZM206.736 25.7706L207.469 22.8406C207.577 22.4323 207.589 22.3963 208.081 22.3963H209.81C210.987 22.3963 211.251 23.1648 211.251 23.6571C211.251 24.6779 210.159 25.7706 208.622 25.7706H206.736ZM205.908 29.8054C205.8 29.7814 205.764 29.7814 205.764 29.6973C205.764 29.6013 205.788 29.5052 205.812 29.4331L206.652 26.1068H209.09C210.207 26.1068 210.579 26.8634 210.579 27.5358C210.579 28.7126 209.426 29.8054 207.985 29.8054H205.908Z" fill="black"/>
<path d="M157.718 38.8116C157.718 38.3253 157.718 38.3073 157.34 38.3073C155.502 38.3073 151.45 39.1718 149 43.5669V43.8551C149 44.3054 149.018 44.3234 149.432 44.3234C149.775 44.3234 149.793 44.3054 149.883 44.1793C151.36 41.8197 153.845 40.5408 157.502 40.4687C157.718 40.4687 157.718 40.3427 157.718 39.9644V38.8116Z" fill="black"/>
<path d="M199.836 38.3073H157.538V40.4687H199.836V38.3073Z" fill="black"/>
<path d="M208.374 34.9208C208.374 34.4705 208.356 34.4525 207.941 34.4525C207.599 34.4525 207.581 34.4705 207.491 34.5966C206.014 36.9562 203.528 38.2351 199.872 38.3072C199.656 38.3072 199.656 38.4333 199.656 38.8115V39.9643C199.656 40.4507 199.656 40.4687 200.034 40.4687C201.871 40.4687 205.924 39.6041 208.374 35.209V34.9208Z" fill="black"/>
<path d="M216.227 38.8115C216.227 38.3972 216.227 38.3072 215.975 38.3072C214.876 38.2892 213.093 38.1451 211.472 37.3525C209.527 36.3798 208.788 35.2451 208.338 34.5426C208.284 34.4525 208.176 34.4525 207.941 34.4525C207.527 34.4525 207.509 34.4705 207.509 34.9208V35.209C209.959 39.6221 214.012 40.4687 215.849 40.4687C216.227 40.4687 216.227 40.4507 216.227 39.9643V38.8115Z" fill="black"/>
<path d="M258.345 38.3073H216.047V40.4687H258.345V38.3073Z" fill="black"/>
<path d="M266.883 43.5669C264.433 39.1538 260.38 38.3073 258.543 38.3073C258.165 38.3073 258.165 38.3253 258.165 38.8116V39.9644C258.165 40.3787 258.165 40.4687 258.417 40.4687C259.516 40.4868 261.299 40.6309 262.92 41.4234C264.865 42.3961 265.604 43.5309 266.054 44.2333C266.108 44.3234 266.216 44.3234 266.45 44.3234C266.865 44.3234 266.883 44.3054 266.883 43.8551V43.5669Z" fill="black"/>
<path d="M156.169 77.7991C156.565 77.7991 156.673 77.7991 156.673 77.547C156.709 64.9202 158.168 54.437 164.473 45.6289C164.599 45.4668 164.599 45.4307 164.599 45.3947C164.599 45.2146 164.473 45.2146 164.184 45.2146C163.896 45.2146 163.86 45.2146 163.824 45.2506C163.752 45.3047 161.465 47.9345 159.645 51.555C157.268 56.3103 155.773 61.768 155.106 68.3246C155.052 68.883 154.674 72.6296 154.674 76.8985V77.601C154.692 77.7991 154.8 77.7991 155.178 77.7991H156.169Z" fill="black"/>
<path d="M155.178 77.4392C154.8 77.4392 154.692 77.4392 154.674 77.6373V78.3398C154.674 89.3454 156.637 95.7939 157.196 97.6132C158.421 101.612 160.42 105.827 163.428 109.537C163.698 109.862 163.77 109.952 163.842 109.988C163.878 110.006 163.896 110.024 164.184 110.024C164.473 110.024 164.599 110.024 164.599 109.844C164.599 109.808 164.599 109.772 164.491 109.609C158.493 101.288 156.691 91.2728 156.673 77.6914C156.673 77.4392 156.565 77.4392 156.169 77.4392H155.178Z" fill="black"/>
<path d="M177.886 48.6613C177.886 48.247 177.886 48.229 177.526 48.229C177.093 48.7153 176.193 49.3818 174.338 49.3818V49.9042C174.752 49.9042 175.652 49.9042 176.643 49.4358V58.8203C176.643 59.4688 176.589 59.6849 175.004 59.6849H174.446V60.2073C174.932 60.1713 176.679 60.1713 177.274 60.1713C177.868 60.1713 179.597 60.1713 180.084 60.2073V59.6849H179.525C177.94 59.6849 177.886 59.4688 177.886 58.8203V48.6613Z" fill="black"/>
<path d="M208.72 48.6613C208.72 48.247 208.72 48.229 208.36 48.229C207.927 48.7153 207.027 49.3818 205.171 49.3818V49.9042C205.586 49.9042 206.486 49.9042 207.477 49.4358V58.8203C207.477 59.4688 207.423 59.6849 205.838 59.6849H205.279V60.2073C205.766 60.1713 207.513 60.1713 208.107 60.1713C208.702 60.1713 210.431 60.1713 210.917 60.2073V59.6849H210.359C208.774 59.6849 208.72 59.4688 208.72 58.8203V48.6613Z" fill="black"/>
<path d="M236.672 49.8862C237.446 50.1384 238.076 50.1564 238.275 50.1564C240.31 50.1564 241.607 48.6614 241.607 48.4092C241.607 48.3371 241.571 48.2471 241.463 48.2471C241.427 48.2471 241.391 48.2471 241.229 48.3191C240.22 48.7514 239.355 48.8055 238.887 48.8055C237.698 48.8055 236.852 48.4452 236.509 48.3011C236.383 48.2471 236.347 48.2471 236.329 48.2471C236.185 48.2471 236.185 48.3551 236.185 48.6433V53.993C236.185 54.3173 236.185 54.4253 236.401 54.4253C236.491 54.4253 236.509 54.4073 236.69 54.1912C237.194 53.4527 238.04 53.0204 238.941 53.0204C239.896 53.0204 240.364 53.903 240.508 54.2092C240.814 54.9117 240.832 55.7943 240.832 56.4788C240.832 57.1632 240.832 58.1899 240.328 59.0005C239.932 59.649 239.229 60.0993 238.437 60.0993C237.248 60.0993 236.077 59.2887 235.753 57.9738C235.843 58.0098 235.951 58.0278 236.041 58.0278C236.347 58.0278 236.834 57.8477 236.834 57.2353C236.834 56.7309 236.491 56.4427 236.041 56.4427C235.717 56.4427 235.249 56.6048 235.249 57.3073C235.249 58.8384 236.473 60.5856 238.473 60.5856C240.508 60.5856 242.291 58.8744 242.291 56.5868C242.291 54.4434 240.85 52.6601 238.959 52.6601C237.932 52.6601 237.14 53.1104 236.672 53.6148V49.8862Z" fill="black"/>
<path d="M177.886 70.4263C177.886 70.012 177.886 69.994 177.526 69.994C177.093 70.4804 176.193 71.1468 174.338 71.1468V71.6692C174.752 71.6692 175.652 71.6692 176.643 71.2009V80.5853C176.643 81.2338 176.589 81.4499 175.004 81.4499H174.446V81.9723C174.932 81.9363 176.679 81.9363 177.274 81.9363C177.868 81.9363 179.597 81.9363 180.084 81.9723V81.4499H179.525C177.94 81.4499 177.886 81.2338 177.886 80.5853V70.4263Z" fill="black"/>
<path d="M211.602 76.2083C211.602 74.7133 211.512 73.2543 210.863 71.8853C210.125 70.3903 208.828 69.994 207.945 69.994C206.901 69.994 205.622 70.5164 204.955 72.0114C204.451 73.1462 204.271 74.263 204.271 76.2083C204.271 77.9555 204.397 79.2704 205.045 80.5493C205.748 81.9183 206.991 82.3506 207.927 82.3506C209.494 82.3506 210.395 81.4139 210.917 80.3692C211.566 79.0183 211.602 77.253 211.602 76.2083ZM207.927 81.9903C207.351 81.9903 206.18 81.6661 205.838 79.7027C205.64 78.622 205.64 77.253 205.64 75.9922C205.64 74.5151 205.64 73.1822 205.928 72.1195C206.234 70.9127 207.153 70.3543 207.927 70.3543C208.612 70.3543 209.656 70.7686 209.999 72.3176C210.233 73.3443 210.233 74.7673 210.233 75.9922C210.233 77.199 210.233 78.5679 210.035 79.6667C209.692 81.6481 208.558 81.9903 207.927 81.9903Z" fill="black"/>
<path d="M242.291 78.9462H241.895C241.841 79.2524 241.697 80.2431 241.517 80.5313C241.391 80.6934 240.364 80.6934 239.824 80.6934H236.491C236.978 80.2791 238.076 79.1263 238.545 78.694C241.283 76.1723 242.291 75.2356 242.291 73.4524C242.291 71.381 240.652 69.994 238.563 69.994C236.473 69.994 235.249 71.7773 235.249 73.3263C235.249 74.245 236.041 74.245 236.095 74.245C236.473 74.245 236.942 73.9748 236.942 73.3984C236.942 72.894 236.599 72.5518 236.095 72.5518C235.933 72.5518 235.897 72.5518 235.843 72.5698C236.185 71.345 237.158 70.5164 238.329 70.5164C239.86 70.5164 240.796 71.7953 240.796 73.4524C240.796 74.9835 239.914 76.3164 238.887 77.4692L235.249 81.54V81.9723H241.823L242.291 78.9462Z" fill="black"/>
<path d="M180.624 100.711H180.228C180.174 101.017 180.03 102.008 179.849 102.296C179.723 102.458 178.697 102.458 178.156 102.458H174.824C175.31 102.044 176.409 100.891 176.877 100.459C179.615 97.9373 180.624 97.0007 180.624 95.2174C180.624 93.146 178.985 91.759 176.895 91.759C174.806 91.759 173.581 93.5423 173.581 95.0913C173.581 96.01 174.374 96.01 174.428 96.01C174.806 96.01 175.274 95.7398 175.274 95.1634C175.274 94.659 174.932 94.3168 174.428 94.3168C174.266 94.3168 174.229 94.3168 174.175 94.3348C174.518 93.11 175.49 92.2814 176.661 92.2814C178.192 92.2814 179.129 93.5603 179.129 95.2174C179.129 96.7485 178.246 98.0814 177.22 99.2342L173.581 103.305V103.737H180.156L180.624 100.711Z" fill="black"/>
<path d="M208.398 99.5945C208.704 99.5945 209.028 99.5945 209.028 99.2343C209.028 98.874 208.704 98.874 208.398 98.874H198.653C198.347 98.874 198.022 98.874 198.022 99.2343C198.022 99.5945 198.347 99.5945 198.653 99.5945H208.398Z" fill="black"/>
<path d="M215.725 92.1913C215.725 91.777 215.725 91.759 215.364 91.759C214.932 92.2454 214.031 92.9118 212.176 92.9118V93.4342C212.59 93.4342 213.491 93.4342 214.482 92.9659V102.35C214.482 102.999 214.428 103.215 212.843 103.215H212.284V103.737C212.771 103.701 214.518 103.701 215.112 103.701C215.707 103.701 217.436 103.701 217.922 103.737V103.215H217.364C215.779 103.215 215.725 102.999 215.725 102.35V92.1913Z" fill="black"/>
<path d="M237.68 97.2708C237.374 97.2889 237.302 97.3069 237.302 97.469C237.302 97.6491 237.392 97.6491 237.716 97.6491H238.545C240.076 97.6491 240.76 98.91 240.76 100.639C240.76 102.999 239.535 103.629 238.653 103.629C237.788 103.629 236.311 103.215 235.789 102.026C236.365 102.116 236.888 101.792 236.888 101.144C236.888 100.621 236.509 100.261 236.005 100.261C235.573 100.261 235.104 100.513 235.104 101.198C235.104 102.801 236.708 104.116 238.707 104.116C240.85 104.116 242.435 102.476 242.435 100.657C242.435 99 241.103 97.7031 239.373 97.3969C240.94 96.9466 241.949 95.6317 241.949 94.2267C241.949 92.8038 240.472 91.759 238.725 91.759C236.924 91.759 235.591 92.8578 235.591 94.1727C235.591 94.8932 236.149 95.0373 236.419 95.0373C236.798 95.0373 237.23 94.7671 237.23 94.2267C237.23 93.6503 236.798 93.3982 236.401 93.3982C236.293 93.3982 236.257 93.3982 236.203 93.4162C236.888 92.1913 238.581 92.1913 238.671 92.1913C239.265 92.1913 240.436 92.4615 240.436 94.2267C240.436 94.569 240.382 95.5777 239.86 96.3522C239.319 97.1448 238.707 97.1988 238.221 97.2168L237.68 97.2708Z" fill="black"/>
<path d="M261.191 76.8985C261.191 65.8929 259.228 59.4444 258.669 57.6252C257.444 53.6264 255.445 49.4115 252.437 45.7009C252.167 45.3767 252.095 45.2866 252.023 45.2506C251.987 45.2326 251.969 45.2146 251.68 45.2146C251.41 45.2146 251.266 45.2146 251.266 45.3947C251.266 45.4307 251.266 45.4668 251.5 45.791C257.769 54.5451 259.173 65.3525 259.192 77.547C259.192 77.7991 259.3 77.7991 259.696 77.7991H260.687C261.065 77.7991 261.173 77.7991 261.191 77.601V76.8985Z" fill="black"/>
<path d="M261.191 77.6373C261.173 77.4392 261.065 77.4392 260.687 77.4392H259.696C259.3 77.4392 259.192 77.4392 259.192 77.6914C259.192 79.5467 259.173 83.8336 258.705 88.3187C257.732 97.6312 255.337 104.08 251.392 109.609C251.266 109.772 251.266 109.808 251.266 109.844C251.266 110.024 251.41 110.024 251.68 110.024C251.969 110.024 252.005 110.024 252.041 109.988C252.113 109.934 254.4 107.304 256.219 103.683C258.597 98.9281 260.092 93.4703 260.759 86.9138C260.813 86.3554 261.191 82.6088 261.191 78.3398V77.6373Z" fill="black"/>
<line x1="175.5" y1="176.997" x2="176.5" y2="30.9966" stroke="#EE4B2B" stroke-dasharray="2 2"/>
<line x1="276" y1="162.5" x2="15" y2="162.5" stroke="#EE4B2B" stroke-dasharray="2 2"/>
<rect x="30" y="39" width="91" height="75" stroke="black" stroke-width="2"/>
<path d="M57.4949 61.2727L60.0858 68.6193H60.188L62.7789 61.2727H63.8869L60.6824 70H59.5914L56.3869 61.2727H57.4949ZM65.1099 70V63.4545H66.1156V70H65.1099ZM65.6213 62.3636C65.4252 62.3636 65.2562 62.2969 65.1142 62.1634C64.975 62.0298 64.9054 61.8693 64.9054 61.6818C64.9054 61.4943 64.975 61.3338 65.1142 61.2003C65.2562 61.0668 65.4252 61 65.6213 61C65.8173 61 65.9849 61.0668 66.1241 61.2003C66.2662 61.3338 66.3372 61.4943 66.3372 61.6818C66.3372 61.8693 66.2662 62.0298 66.1241 62.1634C65.9849 62.2969 65.8173 62.3636 65.6213 62.3636ZM68.9632 61.2727V70H67.9576V61.2727H68.9632ZM71.8109 61.2727V70H70.8052V61.2727H71.8109ZM74.5904 67.6136L74.5733 66.3693H74.7779L77.6415 63.4545H78.8858L75.8347 66.5398H75.7495L74.5904 67.6136ZM73.6529 70V61.2727H74.6586V70H73.6529ZM77.812 70L75.2551 66.7614L75.9711 66.0625L79.0904 70H77.812ZM82.5698 70.1364C81.9789 70.1364 81.4604 69.9957 81.0144 69.7145C80.5712 69.4332 80.2246 69.0398 79.9746 68.5341C79.7275 68.0284 79.6039 67.4375 79.6039 66.7614C79.6039 66.0795 79.7275 65.4844 79.9746 64.9759C80.2246 64.4673 80.5712 64.0724 81.0144 63.7912C81.4604 63.5099 81.9789 63.3693 82.5698 63.3693C83.1607 63.3693 83.6777 63.5099 84.1209 63.7912C84.5669 64.0724 84.9135 64.4673 85.1607 64.9759C85.4107 65.4844 85.5357 66.0795 85.5357 66.7614C85.5357 67.4375 85.4107 68.0284 85.1607 68.5341C84.9135 69.0398 84.5669 69.4332 84.1209 69.7145C83.6777 69.9957 83.1607 70.1364 82.5698 70.1364ZM82.5698 69.233C83.0186 69.233 83.388 69.1179 83.6777 68.8878C83.9675 68.6577 84.182 68.3551 84.3212 67.9801C84.4604 67.6051 84.53 67.1989 84.53 66.7614C84.53 66.3239 84.4604 65.9162 84.3212 65.5384C84.182 65.1605 83.9675 64.8551 83.6777 64.6222C83.388 64.3892 83.0186 64.2727 82.5698 64.2727C82.1209 64.2727 81.7516 64.3892 81.4618 64.6222C81.1721 64.8551 80.9576 65.1605 80.8184 65.5384C80.6792 65.9162 80.6096 66.3239 80.6096 66.7614C80.6096 67.1989 80.6792 67.6051 80.8184 67.9801C80.9576 68.3551 81.1721 68.6577 81.4618 68.8878C81.7516 69.1179 82.1209 69.233 82.5698 69.233ZM87.0708 70V63.4545H88.0424V64.4432H88.1106C88.2299 64.1193 88.4458 63.8565 88.7583 63.6548C89.0708 63.4531 89.4231 63.3523 89.8152 63.3523C89.889 63.3523 89.9814 63.3537 90.0922 63.3565C90.2029 63.3594 90.2868 63.3636 90.3436 63.3693V64.392C90.3095 64.3835 90.2314 64.3707 90.1092 64.3537C89.9899 64.3338 89.8635 64.3239 89.7299 64.3239C89.4118 64.3239 89.1277 64.3906 88.8777 64.5241C88.6305 64.6548 88.4345 64.8366 88.2896 65.0696C88.1475 65.2997 88.0765 65.5625 88.0765 65.858V70H87.0708ZM92.2686 70.0682C92.0584 70.0682 91.878 69.9929 91.7275 69.8423C91.5769 69.6918 91.5016 69.5114 91.5016 69.3011C91.5016 69.0909 91.5769 68.9105 91.7275 68.7599C91.878 68.6094 92.0584 68.5341 92.2686 68.5341C92.4789 68.5341 92.6593 68.6094 92.8098 68.7599C92.9604 68.9105 93.0357 69.0909 93.0357 69.3011C93.0357 69.4403 93.0002 69.5682 92.9292 69.6847C92.861 69.8011 92.7686 69.8949 92.6522 69.9659C92.5385 70.0341 92.4107 70.0682 92.2686 70.0682ZM92.2686 65.2102C92.0584 65.2102 91.878 65.1349 91.7275 64.9844C91.5769 64.8338 91.5016 64.6534 91.5016 64.4432C91.5016 64.233 91.5769 64.0526 91.7275 63.902C91.878 63.7514 92.0584 63.6761 92.2686 63.6761C92.4789 63.6761 92.6593 63.7514 92.8098 63.902C92.9604 64.0526 93.0357 64.233 93.0357 64.4432C93.0357 64.5824 93.0002 64.7102 92.9292 64.8267C92.861 64.9432 92.7686 65.0369 92.6522 65.108C92.5385 65.1761 92.4107 65.2102 92.2686 65.2102ZM46.4201 85V76.2727H47.4769V80.6023H47.5792L51.4996 76.2727H52.8803L49.2156 80.2102L52.8803 85H51.6019L48.5678 80.9432L47.4769 82.1705V85H46.4201ZM58.9837 78.4545L56.5632 85H55.5405L53.12 78.4545H54.2109L56.0178 83.6705H56.0859L57.8928 78.4545H58.9837ZM62.038 85.1534C61.6232 85.1534 61.2468 85.0753 60.9087 84.919C60.5707 84.7599 60.3022 84.5312 60.1033 84.233C59.9045 83.9318 59.805 83.5682 59.805 83.142C59.805 82.767 59.8789 82.4631 60.0266 82.2301C60.1744 81.9943 60.3718 81.8097 60.619 81.6761C60.8661 81.5426 61.1388 81.4432 61.4371 81.3778C61.7383 81.3097 62.0408 81.2557 62.3448 81.2159C62.7425 81.1648 63.065 81.1264 63.3121 81.1009C63.5621 81.0724 63.744 81.0256 63.8576 80.9602C63.9741 80.8949 64.0323 80.7812 64.0323 80.6193V80.5852C64.0323 80.1648 63.9173 79.8381 63.6871 79.6051C63.4599 79.3722 63.1147 79.2557 62.6516 79.2557C62.1715 79.2557 61.7951 79.3608 61.5224 79.571C61.2496 79.7812 61.0579 80.0057 60.9471 80.2443L59.9925 79.9034C60.163 79.5057 60.3903 79.196 60.6744 78.9744C60.9613 78.75 61.2738 78.5937 61.6119 78.5057C61.9528 78.4148 62.288 78.3693 62.6175 78.3693C62.8278 78.3693 63.0692 78.3949 63.342 78.446C63.6175 78.4943 63.8832 78.5952 64.1388 78.7486C64.3974 78.902 64.6119 79.1335 64.7823 79.4432C64.9528 79.7528 65.038 80.1676 65.038 80.6875V85H64.0323V84.1136H63.9812C63.913 84.2557 63.7994 84.4077 63.6403 84.5696C63.4812 84.7315 63.2695 84.8693 63.0053 84.983C62.7411 85.0966 62.4187 85.1534 62.038 85.1534ZM62.1914 84.25C62.5891 84.25 62.9244 84.1719 63.1971 84.0156C63.4727 83.8594 63.68 83.6577 63.8192 83.4105C63.9613 83.1634 64.0323 82.9034 64.0323 82.6307V81.7102C63.9897 81.7614 63.896 81.8082 63.7511 81.8509C63.609 81.8906 63.4442 81.9261 63.2567 81.9574C63.0721 81.9858 62.8917 82.0114 62.7156 82.0341C62.5423 82.054 62.4016 82.071 62.2937 82.0852C62.0323 82.1193 61.788 82.1747 61.5607 82.2514C61.3363 82.3253 61.1545 82.4375 61.0153 82.5881C60.8789 82.7358 60.8107 82.9375 60.8107 83.1932C60.8107 83.5426 60.94 83.8068 61.1985 83.9858C61.4599 84.1619 61.7908 84.25 62.1914 84.25ZM69.3452 85.1364C68.7997 85.1364 68.3182 84.9986 67.9006 84.723C67.483 84.4446 67.1563 84.0526 66.9205 83.5469C66.6847 83.0384 66.5668 82.4375 66.5668 81.7443C66.5668 81.0568 66.6847 80.4602 66.9205 79.9545C67.1563 79.4489 67.4844 79.0582 67.9048 78.7827C68.3253 78.5071 68.8111 78.3693 69.3622 78.3693C69.7884 78.3693 70.125 78.4403 70.3722 78.5824C70.6222 78.7216 70.8125 78.8807 70.9432 79.0597C71.0767 79.2358 71.1804 79.3807 71.2543 79.4943H71.3395V76.2727H72.3452V85H71.3736V83.9943H71.2543C71.1804 84.1136 71.0753 84.2642 70.9389 84.446C70.8026 84.625 70.608 84.7855 70.3551 84.9276C70.1023 85.0668 69.7656 85.1364 69.3452 85.1364ZM69.4815 84.233C69.8849 84.233 70.2259 84.1278 70.5043 83.9176C70.7827 83.7045 70.9943 83.4105 71.1392 83.0355C71.2841 82.6577 71.3565 82.2216 71.3565 81.7273C71.3565 81.2386 71.2855 80.8111 71.1435 80.4446C71.0014 80.0753 70.7912 79.7884 70.5128 79.5838C70.2344 79.3764 69.8906 79.2727 69.4815 79.2727C69.0554 79.2727 68.7003 79.3821 68.4162 79.6009C68.1349 79.8168 67.9233 80.1108 67.7812 80.483C67.642 80.8523 67.5724 81.267 67.5724 81.7273C67.5724 82.1932 67.6435 82.6165 67.7855 82.9972C67.9304 83.375 68.1435 83.6761 68.4247 83.9006C68.7088 84.1222 69.0611 84.233 69.4815 84.233ZM74.3267 85V78.4545H75.2983V79.4432H75.3665C75.4858 79.1193 75.7017 78.8565 76.0142 78.6548C76.3267 78.4531 76.679 78.3523 77.071 78.3523C77.1449 78.3523 77.2372 78.3537 77.348 78.3565C77.4588 78.3594 77.5426 78.3636 77.5994 78.3693V79.392C77.5653 79.3835 77.4872 79.3707 77.3651 79.3537C77.2457 79.3338 77.1193 79.3239 76.9858 79.3239C76.6676 79.3239 76.3835 79.3906 76.1335 79.5241C75.8864 79.6548 75.6903 79.8366 75.5455 80.0696C75.4034 80.2997 75.3324 80.5625 75.3324 80.858V85H74.3267ZM80.7177 85.1534C80.3029 85.1534 79.9265 85.0753 79.5884 84.919C79.2504 84.7599 78.9819 84.5312 78.783 84.233C78.5842 83.9318 78.4847 83.5682 78.4847 83.142C78.4847 82.767 78.5586 82.4631 78.7063 82.2301C78.854 81.9943 79.0515 81.8097 79.2987 81.6761C79.5458 81.5426 79.8185 81.4432 80.1168 81.3778C80.418 81.3097 80.7205 81.2557 81.0245 81.2159C81.4222 81.1648 81.7447 81.1264 81.9918 81.1009C82.2418 81.0724 82.4237 81.0256 82.5373 80.9602C82.6538 80.8949 82.712 80.7812 82.712 80.6193V80.5852C82.712 80.1648 82.5969 79.8381 82.3668 79.6051C82.1396 79.3722 81.7944 79.2557 81.3313 79.2557C80.8512 79.2557 80.4748 79.3608 80.2021 79.571C79.9293 79.7812 79.7376 80.0057 79.6268 80.2443L78.6722 79.9034C78.8427 79.5057 79.07 79.196 79.354 78.9744C79.641 78.75 79.9535 78.5937 80.2915 78.5057C80.6325 78.4148 80.9677 78.3693 81.2972 78.3693C81.5075 78.3693 81.7489 78.3949 82.0217 78.446C82.2972 78.4943 82.5629 78.5952 82.8185 78.7486C83.0771 78.902 83.2915 79.1335 83.462 79.4432C83.6325 79.7528 83.7177 80.1676 83.7177 80.6875V85H82.712V84.1136H82.6609C82.5927 84.2557 82.479 84.4077 82.32 84.5696C82.1609 84.7315 81.9492 84.8693 81.685 84.983C81.4208 85.0966 81.0984 85.1534 80.7177 85.1534ZM80.8711 84.25C81.2688 84.25 81.604 84.1719 81.8768 84.0156C82.1523 83.8594 82.3597 83.6577 82.4989 83.4105C82.641 83.1634 82.712 82.9034 82.712 82.6307V81.7102C82.6694 81.7614 82.5756 81.8082 82.4308 81.8509C82.2887 81.8906 82.1239 81.9261 81.9364 81.9574C81.7518 81.9858 81.5714 82.0114 81.3952 82.0341C81.2219 82.054 81.0813 82.071 80.9734 82.0852C80.712 82.1193 80.4677 82.1747 80.2404 82.2514C80.016 82.3253 79.8342 82.4375 79.695 82.5881C79.5586 82.7358 79.4904 82.9375 79.4904 83.1932C79.4904 83.5426 79.6197 83.8068 79.8782 83.9858C80.1396 84.1619 80.4705 84.25 80.8711 84.25ZM88.3999 78.4545V79.3068H85.0078V78.4545H88.3999ZM85.9964 76.8864H87.0021V83.125C87.0021 83.4091 87.0433 83.6222 87.1257 83.7642C87.2109 83.9034 87.3189 83.9972 87.4496 84.0455C87.5831 84.0909 87.7237 84.1136 87.8714 84.1136C87.9822 84.1136 88.0732 84.108 88.1442 84.0966C88.2152 84.0824 88.272 84.071 88.3146 84.0625L88.5192 84.9659C88.451 84.9915 88.3558 85.017 88.2337 85.0426C88.1115 85.071 87.9567 85.0852 87.7692 85.0852C87.4851 85.0852 87.2067 85.0241 86.9339 84.902C86.6641 84.7798 86.4396 84.5938 86.2607 84.3438C86.0845 84.0938 85.9964 83.7784 85.9964 83.3977V76.8864ZM89.9126 85V78.4545H90.9183V85H89.9126ZM90.424 77.3636C90.228 77.3636 90.0589 77.2969 89.9169 77.1634C89.7777 77.0298 89.7081 76.8693 89.7081 76.6818C89.7081 76.4943 89.7777 76.3338 89.9169 76.2003C90.0589 76.0668 90.228 76 90.424 76C90.62 76 90.7876 76.0668 90.9268 76.2003C91.0689 76.3338 91.1399 76.4943 91.1399 76.6818C91.1399 76.8693 91.0689 77.0298 90.9268 77.1634C90.7876 77.2969 90.62 77.3636 90.424 77.3636ZM97.3967 79.9205L96.4933 80.1761C96.4364 80.0256 96.3526 79.8793 96.2418 79.7372C96.1339 79.5923 95.9862 79.473 95.7987 79.3793C95.6112 79.2855 95.3711 79.2386 95.0785 79.2386C94.6779 79.2386 94.3441 79.331 94.0771 79.5156C93.8129 79.6974 93.6808 79.929 93.6808 80.2102C93.6808 80.4602 93.7717 80.6577 93.9535 80.8026C94.1353 80.9474 94.4194 81.0682 94.8058 81.1648L95.7773 81.4034C96.3626 81.5455 96.7987 81.7628 97.0856 82.0554C97.3725 82.3452 97.516 82.7187 97.516 83.1761C97.516 83.5511 97.408 83.8864 97.1921 84.1818C96.979 84.4773 96.6808 84.7102 96.2972 84.8807C95.9137 85.0511 95.4677 85.1364 94.9592 85.1364C94.2915 85.1364 93.739 84.9915 93.3015 84.7017C92.864 84.4119 92.587 83.9886 92.4705 83.4318L93.4251 83.1932C93.516 83.5455 93.6879 83.8097 93.9407 83.9858C94.1964 84.1619 94.5302 84.25 94.9421 84.25C95.4109 84.25 95.783 84.1506 96.0586 83.9517C96.337 83.75 96.4762 83.5085 96.4762 83.2273C96.4762 83 96.3967 82.8097 96.2376 82.6562C96.0785 82.5 95.8342 82.3835 95.5046 82.3068L94.4137 82.0511C93.8143 81.9091 93.3739 81.6889 93.0927 81.3906C92.8143 81.0895 92.6751 80.7131 92.6751 80.2614C92.6751 79.892 92.7788 79.5653 92.9862 79.2812C93.1964 78.9972 93.4819 78.7741 93.8427 78.6122C94.2063 78.4503 94.6183 78.3693 95.0785 78.3693C95.7262 78.3693 96.2347 78.5114 96.604 78.7955C96.9762 79.0795 97.2404 79.4545 97.3967 79.9205ZM99.9673 82.6136L99.9503 81.3693H100.155L103.018 78.4545H104.263L101.212 81.5398H101.126L99.9673 82.6136ZM99.0298 85V76.2727H100.036V85H99.0298ZM103.189 85L100.632 81.7614L101.348 81.0625L104.467 85H103.189Z" fill="black"/>
</svg>
