<svg width="690" height="529" viewBox="0 0 690 529" fill="none" xmlns="http://www.w3.org/2000/svg">
<rect width="690" height="529" fill="white"/>
<rect x="289.783" y="363.788" width="27.4705" height="25.7635" transform="rotate(-45 289.783 363.788)" fill="white" stroke="black" stroke-dasharray="2 2"/>
<line x1="207.577" y1="483.717" x2="633.002" y2="58.2929" stroke="black" stroke-width="2" stroke-dasharray="6 6"/>
<line x1="257.293" y1="434.293" x2="563.293" y2="128.006" stroke="black" stroke-width="2"/>
<path d="M114.212 187.803L135.277 197.269L132.943 174.293L114.212 187.803ZM548 141.712L131.918 183.993L132.322 187.973L548.404 145.692L548 141.712Z" fill="#355E3B"/>
<path d="M307.411 384.129L329.731 378.199L313.434 361.835L307.411 384.129ZM548 141.712L318.754 370.011L321.577 372.845L550.822 144.547L548 141.712Z" fill="#EE4B2B"/>
<path d="M112.665 187.047L118.642 209.355L134.972 193.025L112.665 187.047ZM310.079 381.634L126.807 198.361L123.979 201.19L307.251 384.462L310.079 381.634Z" fill="#0000A3"/>
<circle cx="549" cy="143.712" r="10" fill="black"/>
<circle cx="113" cy="187.712" r="10" fill="black"/>
<circle cx="307" cy="382.712" r="10" fill="#EE4B2B"/>
<path d="M325.445 135.658C326.077 135.658 326.746 135.658 326.746 134.971C326.746 134.284 326.077 134.284 325.445 134.284H305.341C304.709 134.284 304.04 134.284 304.04 134.971C304.04 135.658 304.709 135.658 305.341 135.658H325.445Z" fill="#355E3B"/>
<path d="M331.949 135.658C329.905 137.102 328.902 138.511 328.605 138.958C326.932 141.33 326.635 143.495 326.635 143.529C326.635 143.942 327.081 143.942 327.378 143.942C328.01 143.942 328.047 143.873 328.196 143.254C329.051 139.886 331.243 136.999 335.443 135.418C335.889 135.28 336 135.212 336 134.971C336 134.73 335.777 134.627 335.703 134.593C334.068 134.009 329.571 132.29 328.159 126.516C328.047 126.103 328.01 126 327.378 126C327.081 126 326.635 126 326.635 126.412C326.635 126.481 326.97 128.647 328.53 130.949C329.274 131.981 330.351 133.184 331.949 134.284H304.338C303.669 134.284 303 134.284 303 134.971C303 135.658 303.669 135.658 304.338 135.658H331.949Z" fill="#355E3B"/>
<path d="M327.058 145.508C327.058 143.342 325.869 143.205 325.571 143.205C324.679 143.205 323.862 144.03 323.862 144.717C323.862 145.13 324.122 145.37 324.271 145.508C324.642 145.817 325.608 146.745 325.608 148.532C325.608 149.976 323.379 158.019 318.919 158.019C316.652 158.019 316.206 156.266 316.206 154.994C316.206 153.276 317.061 150.87 318.065 148.395C318.659 146.986 318.808 146.642 318.808 145.955C318.808 144.511 317.693 143.205 315.872 143.205C312.453 143.205 311.078 148.189 311.078 148.464C311.078 148.601 311.227 148.773 311.487 148.773C311.821 148.773 311.858 148.636 312.007 148.154C312.899 145.198 314.348 143.892 315.76 143.892C316.095 143.892 316.727 143.892 316.727 145.027C316.727 145.92 316.318 146.917 315.76 148.223C313.977 152.623 313.977 153.688 313.977 154.513C313.977 155.269 314.088 156.678 315.24 157.641C316.578 158.706 318.436 158.706 318.771 158.706C324.94 158.706 327.058 147.467 327.058 145.508Z" fill="#355E3B"/>
<path d="M461.321 274.006C461.893 274.006 462.498 274.006 462.498 273.294C462.498 272.581 461.893 272.581 461.321 272.581H443.119C442.547 272.581 441.942 272.581 441.942 273.294C441.942 274.006 442.547 274.006 443.119 274.006H461.321Z" fill="#EE4B2B"/>
<path d="M467.209 274.006C465.358 275.501 464.45 276.961 464.181 277.424C462.667 279.881 462.398 282.124 462.398 282.16C462.398 282.587 462.801 282.587 463.07 282.587C463.642 282.587 463.676 282.516 463.811 281.875C464.584 278.385 466.569 275.394 470.371 273.756C470.775 273.614 470.876 273.543 470.876 273.294C470.876 273.044 470.674 272.937 470.607 272.902C469.126 272.297 465.055 270.516 463.777 264.534C463.676 264.107 463.642 264 463.07 264C462.801 264 462.398 264 462.398 264.427C462.398 264.499 462.7 266.742 464.113 269.127C464.786 270.196 465.762 271.442 467.209 272.581H442.211C441.606 272.581 441 272.581 441 273.294C441 274.006 441.606 274.006 442.211 274.006H467.209Z" fill="#EE4B2B"/>
<path d="M462.78 284.209C462.78 281.966 461.703 281.824 461.434 281.824C460.627 281.824 459.887 282.678 459.887 283.39C459.887 283.818 460.122 284.067 460.257 284.209C460.593 284.53 461.468 285.491 461.468 287.343C461.468 288.838 459.449 297.17 455.412 297.17C453.36 297.17 452.956 295.354 452.956 294.037C452.956 292.256 453.73 289.764 454.638 287.2C455.176 285.74 455.311 285.384 455.311 284.672C455.311 283.177 454.302 281.824 452.653 281.824C449.558 281.824 448.313 286.987 448.313 287.271C448.313 287.414 448.448 287.592 448.683 287.592C448.986 287.592 449.02 287.449 449.154 286.951C449.962 283.889 451.274 282.536 452.552 282.536C452.855 282.536 453.427 282.536 453.427 283.711C453.427 284.637 453.057 285.669 452.552 287.022C450.937 291.58 450.937 292.684 450.937 293.538C450.937 294.322 451.038 295.782 452.081 296.779C453.292 297.882 454.975 297.882 455.277 297.882C460.862 297.882 462.78 286.239 462.78 284.209Z" fill="#EE4B2B"/>
<path d="M476.606 286.164C476.606 285.784 476.606 285.262 476.09 285.262C475.574 285.262 475.574 285.784 475.574 286.164V308.098C475.574 308.478 475.574 309 476.09 309C476.606 309 476.606 308.478 476.606 308.098V286.164Z" fill="#EE4B2B"/>
<path d="M483.226 286.164C483.226 285.784 483.226 285.262 482.71 285.262C482.195 285.262 482.195 285.784 482.195 286.164V308.098C482.195 308.478 482.195 309 482.71 309C483.226 309 483.226 308.478 483.226 308.098V286.164Z" fill="#EE4B2B"/>
<path d="M491.91 287.303C491.933 287.256 492 286.947 492 286.923C492 286.805 491.91 286.591 491.641 286.591L489.376 286.781C488.546 286.852 488.366 286.876 488.366 287.303C488.366 287.636 488.68 287.636 488.95 287.636C490.026 287.636 490.026 287.778 490.026 287.992C490.026 288.063 490.026 288.11 489.914 288.538L487.133 300.312C487.043 300.692 487.043 301.048 487.043 301.071C487.043 302.543 488.187 303.303 489.308 303.303C490.273 303.303 490.789 302.496 491.036 301.973C491.439 301.19 491.776 299.79 491.776 299.671C491.776 299.528 491.708 299.362 491.417 299.362C491.215 299.362 491.148 299.481 491.148 299.505C491.103 299.576 490.991 300.003 490.923 300.264C490.587 301.641 490.161 302.638 489.353 302.638C488.815 302.638 488.658 302.092 488.658 301.522C488.658 301.071 488.725 300.81 488.793 300.502L491.91 287.303Z" fill="#EE4B2B"/>
<path d="M172.77 310.491C173.298 310.491 173.858 310.491 173.858 309.744C173.858 308.997 173.298 308.997 172.77 308.997H155.958C155.429 308.997 154.87 308.997 154.87 309.744C154.87 310.491 155.429 310.491 155.958 310.491H172.77Z" fill="#0000A3"/>
<path d="M178.209 310.491C176.5 312.059 175.661 313.589 175.412 314.075C174.014 316.651 173.765 319.003 173.765 319.04C173.765 319.488 174.138 319.488 174.386 319.488C174.915 319.488 174.946 319.413 175.07 318.741C175.785 315.083 177.618 311.947 181.13 310.229C181.503 310.08 181.596 310.005 181.596 309.744C181.596 309.483 181.41 309.371 181.348 309.333C179.98 308.699 176.22 306.832 175.039 300.56C174.946 300.112 174.915 300 174.386 300C174.138 300 173.765 300 173.765 300.448C173.765 300.523 174.045 302.875 175.35 305.376C175.971 306.496 176.873 307.803 178.209 308.997H155.119C154.559 308.997 154 308.997 154 309.744C154 310.491 154.559 310.491 155.119 310.491H178.209Z" fill="#0000A3"/>
<path d="M174.118 321.189C174.118 318.837 173.124 318.687 172.875 318.687C172.129 318.687 171.445 319.583 171.445 320.33C171.445 320.778 171.663 321.039 171.787 321.189C172.098 321.525 172.906 322.533 172.906 324.474C172.906 326.042 171.041 334.778 167.312 334.778C165.417 334.778 165.044 332.874 165.044 331.493C165.044 329.626 165.758 327.013 166.597 324.325C167.095 322.794 167.219 322.421 167.219 321.674C167.219 320.106 166.287 318.687 164.764 318.687C161.905 318.687 160.755 324.101 160.755 324.399C160.755 324.549 160.879 324.735 161.097 324.735C161.377 324.735 161.408 324.586 161.532 324.063C162.278 320.853 163.49 319.434 164.671 319.434C164.95 319.434 165.479 319.434 165.479 320.666C165.479 321.637 165.137 322.719 164.671 324.138C163.179 328.917 163.179 330.074 163.179 330.97C163.179 331.791 163.272 333.322 164.236 334.367C165.354 335.524 166.908 335.524 167.188 335.524C172.347 335.524 174.118 323.317 174.118 321.189Z" fill="#0000A3"/>
<path d="M192.401 324.424C192.401 324.026 192.401 323.478 191.924 323.478C191.448 323.478 191.448 324.026 191.448 324.449V339.606H185.398C185.046 339.606 184.59 339.606 184.59 340.179C184.59 340.751 185.046 340.751 185.398 340.751H198.471C198.802 340.751 199.258 340.751 199.258 340.179C199.258 339.606 198.802 339.606 198.471 339.606H192.401V324.424Z" fill="#0000A3"/>
<path d="M205.917 324.225C205.938 324.175 206 323.852 206 323.827C206 323.702 205.917 323.478 205.668 323.478L203.576 323.677C202.809 323.752 202.644 323.777 202.644 324.225C202.644 324.573 202.934 324.573 203.182 324.573C204.177 324.573 204.177 324.723 204.177 324.947C204.177 325.021 204.177 325.071 204.073 325.519L201.504 337.864C201.421 338.262 201.421 338.636 201.421 338.66C201.421 340.204 202.478 341 203.514 341C204.405 341 204.881 340.154 205.109 339.606C205.482 338.785 205.793 337.316 205.793 337.192C205.793 337.043 205.731 336.869 205.461 336.869C205.275 336.869 205.213 336.993 205.213 337.018C205.171 337.093 205.068 337.54 205.006 337.814C204.695 339.258 204.301 340.303 203.555 340.303C203.058 340.303 202.913 339.731 202.913 339.133C202.913 338.66 202.975 338.387 203.037 338.063L205.917 324.225Z" fill="#0000A3"/>
<path d="M590.168 157.787C597.525 155.237 603 148.514 603 141.827C603 135.731 598.381 132 592.392 132C583.239 132 574 140.497 574 149.031C574 154.831 578.448 158.784 584.65 158.784C586.105 158.784 587.516 158.599 588.885 158.23C588.628 160.446 588.628 160.631 588.628 161.333C588.628 162.404 588.628 165.175 592.05 165.175C597.14 165.175 599.022 158.267 599.022 158.045C599.022 157.823 598.851 157.676 598.637 157.676C598.381 157.676 598.295 157.86 598.167 158.267C597.226 160.594 595.001 161.924 593.119 161.924C590.938 161.924 590.382 160.631 590.168 157.787ZM582.469 157.602C579.09 156.604 577.465 153.538 577.465 150.139C577.465 147.553 578.577 142.64 581.4 138.908C584.565 134.697 588.799 132.813 592.136 132.813C596.584 132.813 599.578 135.916 599.578 140.719C599.578 143.452 598.081 152.614 590.04 156.678C589.826 154.794 589.227 152.577 586.404 152.577C584.094 152.577 582.127 154.572 582.127 156.383C582.127 156.789 582.298 157.343 582.469 157.602ZM588.971 157.158C587.431 157.75 586.105 157.971 584.907 157.971C584.479 157.971 582.982 157.971 582.982 156.346C582.982 155.016 584.479 153.316 586.404 153.316C588.543 153.316 589.013 154.572 589.013 156.42C589.013 156.641 589.013 156.937 588.971 157.158Z" fill="black"/>
<path d="M62.881 182.597C61.1101 185.395 59.3899 186.343 56.9613 186.486C56.4048 186.533 56 186.533 56 187.387C56 187.671 56.253 187.861 56.6071 187.861C57.5179 187.861 59.7946 187.766 60.7054 187.766C62.1726 187.766 63.7917 187.861 65.2083 187.861C65.5119 187.861 66.119 187.861 66.119 186.96C66.119 186.533 65.7143 186.486 65.4107 186.486C64.247 186.391 63.2857 186.011 63.2857 184.873C63.2857 184.209 63.5893 183.688 64.247 182.644L68.0923 176.669H80.994C81.0446 177.096 81.0446 177.475 81.0952 177.902C81.247 179.135 81.8542 184.067 81.8542 184.968C81.8542 186.391 79.2738 186.486 78.4643 186.486C77.9077 186.486 77.3512 186.486 77.3512 187.339C77.3512 187.861 77.8065 187.861 78.1101 187.861C78.9702 187.861 79.9821 187.766 80.8423 187.766H83.7262C86.8125 187.766 89.0387 187.861 89.0893 187.861C89.4435 187.861 90 187.861 90 186.96C90 186.486 89.5446 186.486 88.7857 186.486C86.003 186.486 85.9524 186.059 85.8006 184.636L82.7143 155.043C82.6131 154.095 82.4107 154 81.8542 154C81.3482 154 81.0446 154.095 80.5893 154.806L62.881 182.597ZM68.9524 175.293L79.122 159.359L80.8423 175.293H68.9524Z" fill="black"/>
<path d="M357.623 388.812C358.124 386.842 358.853 385.467 362.317 385.329C362.453 385.329 363 385.283 363 384.504C363 384 362.59 384 362.408 384C361.496 384 359.172 384.092 358.261 384.092H356.074C355.436 384.092 354.616 384 353.978 384C353.704 384 353.158 384 353.158 384.871C353.158 385.329 353.522 385.329 353.841 385.329C356.575 385.421 356.757 386.475 356.757 387.3C356.757 387.712 356.712 387.85 356.575 388.491L351.426 409.161L341.675 384.779C341.356 384.046 341.31 384 340.308 384H334.749C333.837 384 333.427 384 333.427 384.871C333.427 385.329 333.746 385.329 334.612 385.329C334.84 385.329 337.528 385.329 337.528 385.742C337.528 385.833 337.437 386.2 337.392 386.337L331.331 410.628C330.784 412.873 329.691 413.836 326.683 413.973C326.456 413.973 326 414.019 326 414.844C326 415.303 326.456 415.303 326.592 415.303C327.504 415.303 329.828 415.211 330.739 415.211H332.926C333.564 415.211 334.339 415.303 334.977 415.303C335.296 415.303 335.797 415.303 335.797 414.432C335.797 414.019 335.341 413.973 335.159 413.973C333.655 413.928 332.197 413.653 332.197 412.003C332.197 411.636 332.288 411.224 332.379 410.857L338.531 386.337C338.804 386.796 338.804 386.887 338.986 387.3L349.831 414.478C350.059 415.028 350.15 415.303 350.56 415.303C351.016 415.303 351.062 415.165 351.244 414.386L357.623 388.812Z" fill="black"/>
<path d="M276.829 433.805C276.886 433.677 277 433.483 277 433.322C277 433 276.431 433 276.318 433C276.261 433 274.213 433.097 273.19 433.161C272.223 433.193 271.37 433.258 270.346 433.29C268.981 433.354 268.583 433.387 268.583 433.967C268.583 434.289 269.152 434.289 269.72 434.289C272.621 434.289 272.621 434.579 272.621 434.901C272.621 435.03 272.621 435.094 272.336 435.674L265.284 451.654C265.114 452.008 265 452.266 265 452.781C265 454.392 267.104 455.681 270.005 455.681C271.882 455.681 273.133 454.972 274.043 453.973C275.009 452.91 275.806 450.88 275.806 450.752C275.806 450.59 275.578 450.462 275.237 450.462C274.725 450.462 274.668 450.623 274.441 451.106C273.417 453.329 272.393 455.036 270.118 455.036C268.412 455.036 268.412 454.005 268.412 453.554C268.412 453.426 268.412 452.749 268.81 451.847L276.829 433.805Z" fill="black"/>
</svg>
