<svg width="295" height="208" viewBox="0 0 295 208" fill="none" xmlns="http://www.w3.org/2000/svg">
<rect width="295" height="208" fill="white"/>
<line x1="9.56743" y1="191.749" x2="89.5674" y2="53.7492" stroke="black" stroke-dasharray="2 2"/>
<line x1="205.567" y1="191.749" x2="285.567" y2="53.7492" stroke="black" stroke-dasharray="2 2"/>
<line x1="10" y1="191.5" x2="206" y2="191.5" stroke="black" stroke-dasharray="2 2"/>
<line x1="90" y1="53.5" x2="286" y2="53.5" stroke="black" stroke-dasharray="2 2"/>
<path d="M242.854 24.6464C242.658 24.4512 242.342 24.4512 242.146 24.6464L238.964 27.8284C238.769 28.0237 238.769 28.3403 238.964 28.5355C239.16 28.7308 239.476 28.7308 239.672 28.5355L242.5 25.7071L245.328 28.5355C245.524 28.7308 245.84 28.7308 246.036 28.5355C246.231 28.3403 246.231 28.0237 246.036 27.8284L242.854 24.6464ZM243 70V25H242V70H243Z" fill="#EE4B2B"/>
<path d="M179.604 20.6457C179.408 20.4505 179.092 20.4505 178.896 20.6457L175.714 23.8277C175.519 24.023 175.519 24.3395 175.714 24.5348C175.91 24.7301 176.226 24.7301 176.422 24.5348L179.25 21.7064L182.078 24.5348C182.274 24.7301 182.59 24.7301 182.786 24.5348C182.981 24.3395 182.981 24.023 182.786 23.8277L179.604 20.6457ZM179.75 112.003V20.9993H178.75V112.003H179.75Z" fill="#0000A3"/>
<path d="M179.281 111.741C179.397 111.49 179.288 111.193 179.038 111.077L174.954 109.186C174.704 109.07 174.406 109.179 174.29 109.43C174.174 109.681 174.283 109.978 174.534 110.094L178.164 111.774L176.483 115.404C176.367 115.655 176.476 115.952 176.727 116.068C176.978 116.184 177.275 116.075 177.391 115.824L179.281 111.741ZM100 141L179 112L178.655 111.061L99.6554 140.061L100 141Z" fill="black"/>
<path d="M179.072 20.6242C179.016 20.3537 178.752 20.1797 178.481 20.2354L174.074 21.1435C173.804 21.1992 173.63 21.4636 173.685 21.7341C173.741 22.0045 174.005 22.1786 174.276 22.1229L178.194 21.3157L179.001 25.2334C179.056 25.5039 179.321 25.678 179.591 25.6222C179.862 25.5665 180.036 25.3021 179.98 25.0316L179.072 20.6242ZM100 141L179 21L178.165 20.4502L99.1648 140.45L100 141Z" fill="#F5BD1F"/>
<rect x="238.5" y="65.5" width="4" height="4" stroke="#EE4B2B"/>
<rect x="179.5" y="107.5" width="4" height="4" stroke="#0000A3"/>
<rect x="239" y="69" width="3" height="1" fill="white"/>
<rect x="180" y="111" width="3" height="1" fill="white"/>
<path d="M187.45 25.8615C186.819 26.9242 186.207 27.2845 185.342 27.3385C185.144 27.3565 185 27.3565 185 27.6808C185 27.7888 185.09 27.8609 185.216 27.8609C185.54 27.8609 186.351 27.8249 186.675 27.8249C187.198 27.8249 187.774 27.8609 188.278 27.8609C188.386 27.8609 188.602 27.8609 188.602 27.5187C188.602 27.3565 188.458 27.3385 188.35 27.3385C187.936 27.3025 187.594 27.1584 187.594 26.7261C187.594 26.4739 187.702 26.2758 187.936 25.8795L189.305 23.61H193.898C193.916 23.7721 193.916 23.9162 193.934 24.0783C193.988 24.5466 194.204 26.4199 194.204 26.7621C194.204 27.3025 193.286 27.3385 192.998 27.3385C192.799 27.3385 192.601 27.3385 192.601 27.6628C192.601 27.8609 192.763 27.8609 192.871 27.8609C193.178 27.8609 193.538 27.8249 193.844 27.8249H194.871C195.97 27.8249 196.762 27.8609 196.78 27.8609C196.906 27.8609 197.104 27.8609 197.104 27.5187C197.104 27.3385 196.942 27.3385 196.672 27.3385C195.681 27.3385 195.663 27.1764 195.609 26.636L194.511 15.3963C194.475 15.036 194.402 15 194.204 15C194.024 15 193.916 15.036 193.754 15.3062L187.45 25.8615ZM189.611 23.0876L193.232 17.0354L193.844 23.0876H189.611Z" fill="#F5BD1F"/>
<path d="M128.879 77.0616C129.185 77.0616 129.51 77.0616 129.51 76.7013C129.51 76.3411 129.185 76.3411 128.879 76.3411H119.135C118.828 76.3411 118.504 76.3411 118.504 76.7013C118.504 77.0616 118.828 77.0616 119.135 77.0616H128.879Z" fill="#F5BD1F"/>
<path d="M132.032 77.0615C131.041 77.818 130.555 78.5565 130.411 78.7907C129.6 80.0336 129.456 81.1683 129.456 81.1864C129.456 81.4025 129.672 81.4025 129.816 81.4025C130.122 81.4025 130.14 81.3665 130.212 81.0423C130.627 79.277 131.689 77.764 133.725 76.9354C133.941 76.8634 133.995 76.8273 133.995 76.7013C133.995 76.5752 133.887 76.5211 133.851 76.5031C133.058 76.1969 130.879 75.2963 130.194 72.2702C130.14 72.054 130.122 72 129.816 72C129.672 72 129.456 72 129.456 72.2161C129.456 72.2522 129.618 73.387 130.375 74.5938C130.735 75.1342 131.257 75.7646 132.032 76.341H118.648C118.324 76.341 118 76.341 118 76.7013C118 77.0615 118.324 77.0615 118.648 77.0615H132.032Z" fill="#F5BD1F"/>
<path d="M129.661 82.2231C129.661 81.0883 129.084 81.0162 128.94 81.0162C128.508 81.0162 128.112 81.4485 128.112 81.8088C128.112 82.0249 128.238 82.151 128.31 82.2231C128.49 82.3852 128.958 82.8715 128.958 83.8082C128.958 84.5647 127.877 88.7796 125.716 88.7796C124.617 88.7796 124.401 87.861 124.401 87.1945C124.401 86.2939 124.815 85.033 125.302 83.7361C125.59 82.9976 125.662 82.8175 125.662 82.4572C125.662 81.7007 125.122 81.0162 124.239 81.0162C122.582 81.0162 121.915 83.628 121.915 83.7721C121.915 83.8442 121.987 83.9343 122.113 83.9343C122.276 83.9343 122.294 83.8622 122.366 83.61C122.798 82.061 123.5 81.3765 124.185 81.3765C124.347 81.3765 124.653 81.3765 124.653 81.9709C124.653 82.4392 124.455 82.9616 124.185 83.6461C123.32 85.9516 123.32 86.51 123.32 86.9423C123.32 87.3386 123.374 88.0771 123.933 88.5815C124.581 89.1399 125.482 89.1399 125.644 89.1399C128.634 89.1399 129.661 83.2498 129.661 82.2231Z" fill="#F5BD1F"/>
<path d="M246.197 136.973H248.232C247.746 138.99 247.44 140.305 247.44 141.746C247.44 141.998 247.44 143.943 248.178 143.943C248.557 143.943 248.881 143.601 248.881 143.295C248.881 143.205 248.881 143.169 248.755 142.899C248.268 141.656 248.268 140.107 248.268 139.981C248.268 139.873 248.268 138.594 248.647 136.973H250.664C250.898 136.973 251.493 136.973 251.493 136.396C251.493 136 251.15 136 250.826 136H244.9C244.486 136 243.873 136 243.045 136.883C242.576 137.405 242 138.36 242 138.468C242 138.576 242.09 138.612 242.198 138.612C242.324 138.612 242.342 138.558 242.432 138.45C243.369 136.973 244.306 136.973 244.756 136.973H245.783C245.386 138.324 244.936 139.891 243.459 143.043C243.315 143.331 243.315 143.367 243.315 143.475C243.315 143.853 243.639 143.943 243.801 143.943C244.324 143.943 244.468 143.475 244.684 142.719C244.972 141.8 244.972 141.764 245.152 141.043L246.197 136.973Z" fill="black"/>
<path d="M189.501 117.891C189.699 117.117 189.987 116.576 191.356 116.522C191.41 116.522 191.626 116.504 191.626 116.198C191.626 116 191.464 116 191.392 116C191.032 116 190.113 116.036 189.753 116.036H188.888C188.636 116.036 188.312 116 188.06 116C187.952 116 187.735 116 187.735 116.342C187.735 116.522 187.88 116.522 188.006 116.522C189.086 116.558 189.158 116.973 189.158 117.297C189.158 117.459 189.14 117.513 189.086 117.765L187.051 125.889L183.196 116.306C183.07 116.018 183.052 116 182.656 116H180.458C180.098 116 179.936 116 179.936 116.342C179.936 116.522 180.062 116.522 180.404 116.522C180.494 116.522 181.557 116.522 181.557 116.684C181.557 116.72 181.521 116.865 181.503 116.919L179.107 126.465C178.891 127.348 178.459 127.726 177.27 127.78C177.18 127.78 177 127.798 177 128.122C177 128.303 177.18 128.303 177.234 128.303C177.594 128.303 178.513 128.266 178.873 128.266H179.738C179.99 128.266 180.296 128.303 180.548 128.303C180.675 128.303 180.873 128.303 180.873 127.96C180.873 127.798 180.693 127.78 180.621 127.78C180.026 127.762 179.45 127.654 179.45 127.006C179.45 126.862 179.486 126.699 179.522 126.555L181.953 116.919C182.061 117.099 182.061 117.135 182.134 117.297L186.421 127.978C186.511 128.194 186.547 128.303 186.709 128.303C186.889 128.303 186.907 128.248 186.979 127.942L189.501 117.891Z" fill="black"/>
<path d="M232.879 37.0616C233.185 37.0616 233.51 37.0616 233.51 36.7013C233.51 36.3411 233.185 36.3411 232.879 36.3411H223.135C222.828 36.3411 222.504 36.3411 222.504 36.7013C222.504 37.0616 222.828 37.0616 223.135 37.0616H232.879Z" fill="#EE4B2B"/>
<path d="M236.032 37.0615C235.041 37.818 234.555 38.5565 234.411 38.7907C233.6 40.0336 233.456 41.1683 233.456 41.1864C233.456 41.4025 233.672 41.4025 233.816 41.4025C234.122 41.4025 234.14 41.3665 234.212 41.0423C234.627 39.277 235.689 37.764 237.725 36.9354C237.941 36.8634 237.995 36.8273 237.995 36.7013C237.995 36.5752 237.887 36.5211 237.851 36.5031C237.058 36.1969 234.879 35.2963 234.194 32.2702C234.14 32.054 234.122 32 233.816 32C233.672 32 233.456 32 233.456 32.2161C233.456 32.2522 233.618 33.387 234.375 34.5938C234.735 35.1342 235.257 35.7646 236.032 36.341H222.648C222.324 36.341 222 36.341 222 36.7013C222 37.0615 222.324 37.0615 222.648 37.0615H236.032Z" fill="#EE4B2B"/>
<path d="M228.462 43.6821C228.498 43.574 228.948 42.6734 229.615 42.097C230.083 41.6647 230.696 41.3765 231.398 41.3765C232.119 41.3765 232.371 41.9169 232.371 42.6374C232.371 43.6641 231.632 45.7175 231.272 46.6902C231.11 47.1225 231.02 47.3566 231.02 47.6808C231.02 48.4914 231.578 49.1399 232.443 49.1399C234.118 49.1399 234.748 46.492 234.748 46.3839C234.748 46.2939 234.676 46.2218 234.568 46.2218C234.406 46.2218 234.388 46.2759 234.298 46.5821C233.884 48.0591 233.199 48.7796 232.497 48.7796C232.317 48.7796 232.028 48.7616 232.028 48.1852C232.028 47.7349 232.227 47.1945 232.335 46.9423C232.695 45.9516 233.451 43.9343 233.451 42.9075C233.451 41.8268 232.821 41.0162 231.452 41.0162C229.849 41.0162 229.002 42.151 228.678 42.6013C228.624 41.5746 227.886 41.0162 227.093 41.0162C226.517 41.0162 226.12 41.3585 225.814 41.9709C225.49 42.6193 225.238 43.7001 225.238 43.7721C225.238 43.8442 225.31 43.9343 225.436 43.9343C225.58 43.9343 225.598 43.9162 225.706 43.502C225.994 42.4032 226.319 41.3765 227.039 41.3765C227.453 41.3765 227.597 41.6647 227.597 42.2051C227.597 42.6013 227.417 43.3038 227.291 43.8622L226.787 45.8075C226.715 46.1498 226.517 46.9603 226.427 47.2846C226.301 47.7529 226.102 48.5995 226.102 48.6895C226.102 48.9417 226.301 49.1399 226.571 49.1399C226.787 49.1399 227.039 49.0318 227.183 48.7616C227.219 48.6715 227.381 48.0411 227.471 47.6808L227.868 46.0597L228.462 43.6821Z" fill="#EE4B2B"/>
<path d="M102.809 155.573C105.907 154.33 108.212 151.052 108.212 147.791C108.212 144.819 106.267 143 103.745 143C99.8907 143 96 147.143 96 151.304C96 154.132 97.8733 156.059 100.485 156.059C101.098 156.059 101.692 155.969 102.268 155.789C102.16 156.87 102.16 156.96 102.16 157.302C102.16 157.824 102.16 159.175 103.601 159.175C105.745 159.175 106.537 155.807 106.537 155.699C106.537 155.591 106.465 155.519 106.375 155.519C106.267 155.519 106.231 155.609 106.177 155.807C105.781 156.942 104.844 157.59 104.052 157.59C103.133 157.59 102.899 156.96 102.809 155.573ZM99.5665 155.483C98.1435 154.996 97.459 153.501 97.459 151.844C97.459 150.583 97.9273 148.188 99.1162 146.368C100.449 144.315 102.232 143.396 103.637 143.396C105.511 143.396 106.771 144.909 106.771 147.251C106.771 148.584 106.141 153.051 102.755 155.032C102.665 154.114 102.412 153.033 101.224 153.033C100.251 153.033 99.4224 154.006 99.4224 154.888C99.4224 155.086 99.4944 155.357 99.5665 155.483ZM102.304 155.266C101.656 155.555 101.098 155.663 100.593 155.663C100.413 155.663 99.7826 155.663 99.7826 154.87C99.7826 154.222 100.413 153.393 101.224 153.393C102.124 153.393 102.322 154.006 102.322 154.906C102.322 155.014 102.322 155.158 102.304 155.266Z" fill="black"/>
<circle cx="179.5" cy="111.5" r="1.5" fill="black"/>
<circle cx="99.5" cy="140.5" r="1.5" fill="black"/>
<path d="M136.879 136.062C137.185 136.062 137.51 136.062 137.51 135.701C137.51 135.341 137.185 135.341 136.879 135.341H127.135C126.828 135.341 126.504 135.341 126.504 135.701C126.504 136.062 126.828 136.062 127.135 136.062H136.879Z" fill="black"/>
<path d="M140.032 136.061C139.041 136.818 138.555 137.557 138.411 137.791C137.6 139.034 137.456 140.168 137.456 140.186C137.456 140.403 137.672 140.403 137.816 140.403C138.122 140.403 138.14 140.366 138.212 140.042C138.627 138.277 139.689 136.764 141.725 135.935C141.941 135.863 141.995 135.827 141.995 135.701C141.995 135.575 141.887 135.521 141.851 135.503C141.058 135.197 138.879 134.296 138.194 131.27C138.14 131.054 138.122 131 137.816 131C137.672 131 137.456 131 137.456 131.216C137.456 131.252 137.618 132.387 138.375 133.594C138.735 134.134 139.257 134.765 140.032 135.341H126.648C126.324 135.341 126 135.341 126 135.701C126 136.061 126.324 136.061 126.648 136.061H140.032Z" fill="black"/>
<path d="M137.661 141.223C137.661 140.088 137.084 140.016 136.94 140.016C136.508 140.016 136.112 140.449 136.112 140.809C136.112 141.025 136.238 141.151 136.31 141.223C136.49 141.385 136.958 141.872 136.958 142.808C136.958 143.565 135.877 147.78 133.716 147.78C132.617 147.78 132.401 146.861 132.401 146.195C132.401 145.294 132.815 144.033 133.302 142.736C133.59 141.998 133.662 141.817 133.662 141.457C133.662 140.701 133.122 140.016 132.239 140.016C130.582 140.016 129.915 142.628 129.915 142.772C129.915 142.844 129.987 142.934 130.113 142.934C130.276 142.934 130.294 142.862 130.366 142.61C130.798 141.061 131.5 140.376 132.185 140.376C132.347 140.376 132.653 140.376 132.653 140.971C132.653 141.439 132.455 141.962 132.185 142.646C131.32 144.952 131.32 145.51 131.32 145.942C131.32 146.339 131.374 147.077 131.933 147.581C132.581 148.14 133.482 148.14 133.644 148.14C136.634 148.14 137.661 142.25 137.661 141.223Z" fill="black"/>
<path d="M148.257 143.587C148.257 143.395 148.257 143.131 147.981 143.131C147.705 143.131 147.705 143.395 147.705 143.599V150.912H144.199C143.994 150.912 143.73 150.912 143.73 151.189C143.73 151.465 143.994 151.465 144.199 151.465H151.776C151.968 151.465 152.232 151.465 152.232 151.189C152.232 150.912 151.968 150.912 151.776 150.912H148.257V143.587Z" fill="black"/>
<path d="M161.339 143.569C161.531 143.569 161.796 143.569 161.796 143.292C161.796 143.016 161.531 143.016 161.339 143.016H154.459C154.266 143.016 154.002 143.016 154.002 143.292C154.002 143.569 154.266 143.569 154.459 143.569H161.339Z" fill="black"/>
<path d="M163.429 143.569C163.02 143.869 162.648 144.253 162.36 144.685C161.844 145.466 161.712 146.234 161.712 146.282C161.712 146.463 161.88 146.463 161.988 146.463C162.12 146.463 162.228 146.463 162.264 146.306C162.576 144.974 163.345 143.965 164.798 143.473C164.894 143.448 164.99 143.412 164.99 143.292C164.99 143.172 164.882 143.136 164.834 143.124C163.237 142.584 162.54 141.455 162.288 140.398C162.228 140.158 162.228 140.122 161.988 140.122C161.88 140.122 161.712 140.122 161.712 140.302C161.712 140.326 161.832 141.119 162.36 141.911C162.708 142.416 163.129 142.788 163.429 143.016H154.11C153.918 143.016 153.654 143.016 153.654 143.292C153.654 143.569 153.918 143.569 154.11 143.569H163.429Z" fill="black"/>
<path d="M157.856 149.495C157.892 149.315 158.012 148.859 158.048 148.679C158.216 148.03 158.216 148.018 158.492 147.622C158.889 147.034 159.453 146.505 160.258 146.505C160.69 146.505 160.942 146.757 160.942 147.322C160.942 147.982 160.438 149.351 160.209 149.94C160.053 150.336 160.053 150.408 160.053 150.564C160.053 151.249 160.618 151.585 161.134 151.585C162.311 151.585 162.803 149.904 162.803 149.748C162.803 149.627 162.707 149.591 162.623 149.591C162.479 149.591 162.455 149.675 162.419 149.796C162.131 150.78 161.626 151.249 161.17 151.249C160.978 151.249 160.882 151.128 160.882 150.852C160.882 150.576 160.978 150.312 161.098 150.012C161.278 149.555 161.807 148.174 161.807 147.502C161.807 146.601 161.182 146.169 160.318 146.169C159.345 146.169 158.72 146.757 158.372 147.214C158.288 146.553 157.76 146.169 157.147 146.169C156.715 146.169 156.415 146.445 156.223 146.818C155.935 147.382 155.814 147.982 155.814 148.006C155.814 148.114 155.899 148.162 155.995 148.162C156.151 148.162 156.163 148.114 156.247 147.802C156.391 147.214 156.607 146.505 157.111 146.505C157.424 146.505 157.496 146.806 157.496 147.07C157.496 147.286 157.436 147.514 157.34 147.91C157.315 148.006 157.135 148.715 157.087 148.883L156.643 150.684C156.595 150.864 156.523 151.165 156.523 151.213C156.523 151.489 156.751 151.585 156.907 151.585C157.123 151.585 157.303 151.441 157.388 151.297C157.424 151.225 157.52 150.816 157.58 150.564L157.856 149.495Z" fill="black"/>
<path d="M191.879 69.0616C192.185 69.0616 192.51 69.0616 192.51 68.7013C192.51 68.3411 192.185 68.3411 191.879 68.3411H182.135C181.828 68.3411 181.504 68.3411 181.504 68.7013C181.504 69.0616 181.828 69.0616 182.135 69.0616H191.879Z" fill="#0000A3"/>
<path d="M195.032 69.0615C194.041 69.818 193.555 70.5565 193.411 70.7907C192.6 72.0336 192.456 73.1683 192.456 73.1864C192.456 73.4025 192.672 73.4025 192.816 73.4025C193.122 73.4025 193.14 73.3665 193.212 73.0423C193.627 71.277 194.689 69.764 196.725 68.9354C196.941 68.8634 196.995 68.8273 196.995 68.7013C196.995 68.5752 196.887 68.5211 196.851 68.5031C196.058 68.1969 193.879 67.2963 193.194 64.2702C193.14 64.054 193.122 64 192.816 64C192.672 64 192.456 64 192.456 64.2161C192.456 64.2522 192.618 65.387 193.375 66.5938C193.735 67.1342 194.257 67.7646 195.032 68.341H181.648C181.324 68.341 181 68.341 181 68.7013C181 69.0615 181.324 69.0615 181.648 69.0615H195.032Z" fill="#0000A3"/>
<path d="M192.661 74.2231C192.661 73.0883 192.084 73.0162 191.94 73.0162C191.508 73.0162 191.112 73.4485 191.112 73.8088C191.112 74.0249 191.238 74.151 191.31 74.2231C191.49 74.3852 191.958 74.8715 191.958 75.8082C191.958 76.5647 190.877 80.7796 188.716 80.7796C187.617 80.7796 187.401 79.861 187.401 79.1945C187.401 78.2939 187.815 77.033 188.302 75.7361C188.59 74.9976 188.662 74.8175 188.662 74.4572C188.662 73.7007 188.122 73.0162 187.239 73.0162C185.582 73.0162 184.915 75.628 184.915 75.7721C184.915 75.8442 184.987 75.9343 185.113 75.9343C185.276 75.9343 185.294 75.8622 185.366 75.61C185.798 74.061 186.5 73.3765 187.185 73.3765C187.347 73.3765 187.653 73.3765 187.653 73.9709C187.653 74.4392 187.455 74.9616 187.185 75.6461C186.32 77.9516 186.32 78.51 186.32 78.9423C186.32 79.3386 186.374 80.0771 186.933 80.5815C187.581 81.1399 188.482 81.1399 188.644 81.1399C191.634 81.1399 192.661 75.2498 192.661 74.2231Z" fill="#0000A3"/>
<path d="M200.063 75.9148C200.063 75.7227 200.063 75.4585 199.787 75.4585C199.511 75.4585 199.511 75.7227 199.511 75.9148V87.0105C199.511 87.2026 199.511 87.4668 199.787 87.4668C200.063 87.4668 200.063 87.2026 200.063 87.0105V75.9148Z" fill="#0000A3"/>
<path d="M203.607 75.9148C203.607 75.7227 203.607 75.4585 203.331 75.4585C203.055 75.4585 203.055 75.7227 203.055 75.9148V87.0105C203.055 87.2026 203.055 87.4668 203.331 87.4668C203.607 87.4668 203.607 87.2026 203.607 87.0105V75.9148Z" fill="#0000A3"/>
<path d="M213.504 76.5686C213.696 76.5686 213.96 76.5686 213.96 76.2924C213.96 76.0162 213.696 76.0162 213.504 76.0162H206.623C206.431 76.0162 206.167 76.0162 206.167 76.2924C206.167 76.5686 206.431 76.5686 206.623 76.5686H213.504Z" fill="#0000A3"/>
<path d="M215.593 76.5686C215.185 76.8688 214.813 77.253 214.525 77.6853C214.008 78.4659 213.876 79.2344 213.876 79.2825C213.876 79.4626 214.044 79.4626 214.152 79.4626C214.284 79.4626 214.393 79.4626 214.429 79.3065C214.741 77.9735 215.509 76.9648 216.962 76.4725C217.058 76.4485 217.154 76.4125 217.154 76.2924C217.154 76.1723 217.046 76.1363 216.998 76.1243C215.401 75.5839 214.705 74.4551 214.453 73.3984C214.393 73.1582 214.393 73.1222 214.152 73.1222C214.044 73.1222 213.876 73.1222 213.876 73.3023C213.876 73.3263 213.996 74.1189 214.525 74.9114C214.873 75.4158 215.293 75.788 215.593 76.0162H206.275C206.083 76.0162 205.819 76.0162 205.819 76.2924C205.819 76.5686 206.083 76.5686 206.275 76.5686H215.593Z" fill="#0000A3"/>
<path d="M210.021 82.4954C210.057 82.3152 210.177 81.8589 210.213 81.6788C210.381 81.0304 210.381 81.0183 210.657 80.6221C211.053 80.0337 211.618 79.5053 212.422 79.5053C212.854 79.5053 213.107 79.7575 213.107 80.3219C213.107 80.9823 212.602 82.3513 212.374 82.9397C212.218 83.3359 212.218 83.408 212.218 83.5641C212.218 84.2486 212.782 84.5848 213.299 84.5848C214.476 84.5848 214.968 82.9036 214.968 82.7475C214.968 82.6275 214.872 82.5914 214.788 82.5914C214.644 82.5914 214.62 82.6755 214.584 82.7956C214.295 83.7803 213.791 84.2486 213.335 84.2486C213.143 84.2486 213.047 84.1285 213.047 83.8523C213.047 83.5761 213.143 83.3119 213.263 83.0117C213.443 82.5554 213.971 81.1745 213.971 80.502C213.971 79.6014 213.347 79.1691 212.482 79.1691C211.51 79.1691 210.885 79.7575 210.537 80.2138C210.453 79.5533 209.924 79.1691 209.312 79.1691C208.88 79.1691 208.58 79.4453 208.387 79.8175C208.099 80.3819 207.979 80.9823 207.979 81.0063C207.979 81.1144 208.063 81.1624 208.159 81.1624C208.315 81.1624 208.327 81.1144 208.411 80.8022C208.556 80.2138 208.772 79.5053 209.276 79.5053C209.588 79.5053 209.66 79.8055 209.66 80.0697C209.66 80.2858 209.6 80.514 209.504 80.9103C209.48 81.0063 209.3 81.7148 209.252 81.8829L208.808 83.6842C208.76 83.8643 208.688 84.1645 208.688 84.2126C208.688 84.4887 208.916 84.5848 209.072 84.5848C209.288 84.5848 209.468 84.4407 209.552 84.2966C209.588 84.2246 209.684 83.8163 209.744 83.5641L210.021 82.4954Z" fill="#0000A3"/>
</svg>
