<svg width="430" height="301" viewBox="0 0 430 301" fill="none" xmlns="http://www.w3.org/2000/svg">
<rect width="430" height="301" fill="white"/>
<path d="M95.5 229.5C95.5 240.513 85.908 249.5 74 249.5C62.092 249.5 52.5 240.513 52.5 229.5C52.5 218.487 62.092 209.5 74 209.5C85.908 209.5 95.5 218.487 95.5 229.5Z" stroke="black"/>
<rect x="50.5" y="208" width="23" height="42" fill="white"/>
<rect x="85.4" y="211" width="23" height="42" transform="rotate(15.1178 85.4 211)" fill="white"/>
<line x1="74.5" y1="250" x2="74.5" y2="43" stroke="black" stroke-dasharray="2 2"/>
<path d="M251.355 249.353C251.549 249.157 251.548 248.84 251.353 248.645L248.162 245.473C247.966 245.278 247.649 245.279 247.454 245.475C247.26 245.67 247.261 245.987 247.456 246.182L250.293 249.002L247.473 251.838C247.278 252.034 247.279 252.351 247.475 252.546C247.67 252.74 247.987 252.739 248.182 252.544L251.355 249.353ZM75.0014 250L251.001 249.5L250.999 248.5L74.9986 249L75.0014 250Z" fill="black"/>
<path d="M383.496 149.066C383.532 148.792 383.34 148.541 383.066 148.504L378.605 147.911C378.332 147.874 378.08 148.067 378.044 148.341C378.007 148.614 378.2 148.866 378.473 148.902L382.438 149.43L381.911 153.395C381.874 153.668 382.067 153.92 382.341 153.956C382.614 153.993 382.866 153.8 382.902 153.527L383.496 149.066ZM251.304 250.397L383.304 149.397L382.696 148.603L250.696 249.603L251.304 250.397Z" fill="black"/>
<path d="M207.192 148.669C207.228 148.395 207.036 148.144 206.762 148.107L202.301 147.514C202.028 147.477 201.776 147.67 201.74 147.943C201.703 148.217 201.896 148.469 202.17 148.505L206.135 149.033L205.607 152.998C205.571 153.271 205.763 153.523 206.037 153.559C206.31 153.596 206.562 153.403 206.598 153.13L207.192 148.669ZM75 250L75.7857 249.399L75.178 248.605L74.3923 249.206L75 250ZM77.3571 248.196L78.9286 246.994L78.3209 246.2L76.7495 247.402L77.3571 248.196ZM80.5 245.792L82.0714 244.589L81.4638 243.795L79.8923 244.997L80.5 245.792ZM83.6429 243.387L85.2143 242.185L84.6066 241.39L83.0352 242.593L83.6429 243.387ZM86.7857 240.982L88.3571 239.78L87.7495 238.986L86.178 240.188L86.7857 240.982ZM89.9286 238.577L91.5 237.375L90.8923 236.581L89.3209 237.783L89.9286 238.577ZM93.0714 236.173L94.6429 234.97L94.0352 234.176L92.4638 235.378L93.0714 236.173ZM96.2143 233.768L97.7857 232.565L97.178 231.771L95.6066 232.974L96.2143 233.768ZM99.3571 231.363L100.929 230.161L100.321 229.367L98.7495 230.569L99.3571 231.363ZM102.5 228.958L104.071 227.756L103.464 226.962L101.892 228.164L102.5 228.958ZM105.643 226.554L107.214 225.351L106.607 224.557L105.035 225.759L105.643 226.554ZM108.786 224.149L110.357 222.946L109.749 222.152L108.178 223.355L108.786 224.149ZM111.929 221.744L113.5 220.542L112.892 219.747L111.321 220.95L111.929 221.744ZM115.071 219.339L116.643 218.137L116.035 217.343L114.464 218.545L115.071 219.339ZM118.214 216.935L119.786 215.732L119.178 214.938L117.607 216.14L118.214 216.935ZM121.357 214.53L122.929 213.327L122.321 212.533L120.749 213.736L121.357 214.53ZM124.5 212.125L126.071 210.923L125.464 210.128L123.892 211.331L124.5 212.125ZM127.643 209.72L129.214 208.518L128.607 207.724L127.035 208.926L127.643 209.72ZM130.786 207.315L132.357 206.113L131.749 205.319L130.178 206.521L130.786 207.315ZM133.929 204.911L135.5 203.708L134.892 202.914L133.321 204.117L133.929 204.911ZM137.071 202.506L138.643 201.304L138.035 200.509L136.464 201.712L137.071 202.506ZM140.214 200.101L141.786 198.899L141.178 198.105L139.607 199.307L140.214 200.101ZM143.357 197.696L144.929 196.494L144.321 195.7L142.749 196.902L143.357 197.696ZM146.5 195.292L148.071 194.089L147.464 193.295L145.892 194.497L146.5 195.292ZM149.643 192.887L151.214 191.685L150.607 190.89L149.035 192.093L149.643 192.887ZM152.786 190.482L154.357 189.28L153.749 188.486L152.178 189.688L152.786 190.482ZM155.929 188.077L157.5 186.875L156.892 186.081L155.321 187.283L155.929 188.077ZM159.071 185.673L160.643 184.47L160.035 183.676L158.464 184.878L159.071 185.673ZM162.214 183.268L163.786 182.066L163.178 181.271L161.607 182.474L162.214 183.268ZM165.357 180.863L166.929 179.661L166.321 178.867L164.749 180.069L165.357 180.863ZM168.5 178.458L170.071 177.256L169.464 176.462L167.892 177.664L168.5 178.458ZM171.643 176.054L173.214 174.851L172.607 174.057L171.035 175.259L171.643 176.054ZM174.786 173.649L176.357 172.446L175.749 171.652L174.178 172.855L174.786 173.649ZM177.929 171.244L179.5 170.042L178.892 169.248L177.321 170.45L177.929 171.244ZM181.071 168.839L182.643 167.637L182.035 166.843L180.464 168.045L181.071 168.839ZM184.214 166.435L185.786 165.232L185.178 164.438L183.607 165.64L184.214 166.435ZM187.357 164.03L188.929 162.827L188.321 162.033L186.749 163.236L187.357 164.03ZM190.5 161.625L192.071 160.423L191.464 159.628L189.892 160.831L190.5 161.625ZM193.643 159.22L195.214 158.018L194.607 157.224L193.035 158.426L193.643 159.22ZM196.786 156.815L198.357 155.613L197.749 154.819L196.178 156.021L196.786 156.815ZM199.929 154.411L201.5 153.208L200.892 152.414L199.321 153.617L199.929 154.411ZM203.071 152.006L204.643 150.804L204.035 150.009L202.464 151.212L203.071 152.006ZM206.214 149.601L207 149L206.392 148.206L205.607 148.807L206.214 149.601Z" fill="black"/>
<path d="M383.353 149.36C383.548 149.166 383.549 148.849 383.355 148.653L380.182 145.462C379.987 145.266 379.67 145.265 379.475 145.46C379.279 145.655 379.278 145.971 379.473 146.167L382.293 149.004L379.456 151.824C379.261 152.019 379.26 152.335 379.454 152.531C379.649 152.727 379.966 152.728 380.161 152.533L383.353 149.36ZM206.999 149L207.999 149.003L208.001 148.003L207.001 148L206.999 149ZM209.999 149.009L211.999 149.014L212.001 148.014L210.001 148.009L209.999 149.009ZM213.999 149.02L215.999 149.026L216.001 148.026L214.001 148.02L213.999 149.02ZM217.999 149.032L219.999 149.037L220.001 148.037L218.001 148.032L217.999 149.032ZM221.999 149.043L223.999 149.049L224.001 148.049L222.001 148.043L221.999 149.043ZM225.999 149.055L227.999 149.06L228.001 148.06L226.001 148.055L225.999 149.055ZM229.999 149.066L231.999 149.072L232.001 148.072L230.001 148.066L229.999 149.066ZM233.999 149.078L235.999 149.083L236.001 148.083L234.001 148.078L233.999 149.078ZM237.999 149.089L239.999 149.095L240.001 148.095L238.001 148.089L237.999 149.089ZM241.999 149.101L243.999 149.106L244.001 148.106L242.001 148.101L241.999 149.101ZM245.999 149.112L247.999 149.118L248.001 148.118L246.001 148.112L245.999 149.112ZM249.999 149.124L251.999 149.129L252.001 148.129L250.001 148.124L249.999 149.124ZM253.999 149.135L255.999 149.141L256.001 148.141L254.001 148.135L253.999 149.135ZM257.999 149.147L259.999 149.152L260.001 148.152L258.001 148.147L257.999 149.147ZM261.999 149.158L263.999 149.164L264.001 148.164L262.001 148.158L261.999 149.158ZM265.999 149.17L267.999 149.175L268.001 148.175L266.001 148.17L265.999 149.17ZM269.999 149.181L271.999 149.187L272.001 148.187L270.001 148.181L269.999 149.181ZM273.999 149.193L275.999 149.198L276.001 148.198L274.001 148.193L273.999 149.193ZM277.999 149.204L279.999 149.21L280.001 148.21L278.001 148.204L277.999 149.204ZM281.999 149.216L283.999 149.221L284.001 148.221L282.001 148.216L281.999 149.216ZM285.999 149.227L287.999 149.233L288.001 148.233L286.001 148.227L285.999 149.227ZM289.999 149.239L291.999 149.244L292.001 148.244L290.001 148.239L289.999 149.239ZM293.999 149.25L295.999 149.256L296.001 148.256L294.001 148.25L293.999 149.25ZM297.999 149.261L299.999 149.267L300.001 148.267L298.001 148.261L297.999 149.261ZM301.999 149.273L303.999 149.279L304.001 148.279L302.001 148.273L301.999 149.273ZM305.999 149.284L307.999 149.29L308.001 148.29L306.001 148.284L305.999 149.284ZM309.999 149.296L311.999 149.302L312.001 148.302L310.001 148.296L309.999 149.296ZM313.999 149.307L315.999 149.313L316.001 148.313L314.001 148.307L313.999 149.307ZM317.999 149.319L319.999 149.325L320.001 148.325L318.001 148.319L317.999 149.319ZM321.999 149.33L323.999 149.336L324.001 148.336L322.001 148.33L321.999 149.33ZM325.999 149.342L327.999 149.348L328.001 148.348L326.001 148.342L325.999 149.342ZM329.999 149.353L331.999 149.359L332.001 148.359L330.001 148.353L329.999 149.353ZM333.999 149.365L335.999 149.371L336.001 148.371L334.001 148.365L333.999 149.365ZM337.999 149.376L339.999 149.382L340.001 148.382L338.001 148.376L337.999 149.376ZM341.999 149.388L343.999 149.394L344.001 148.394L342.001 148.388L341.999 149.388ZM345.999 149.399L347.999 149.405L348.001 148.405L346.001 148.399L345.999 149.399ZM349.999 149.411L351.999 149.417L352.001 148.417L350.001 148.411L349.999 149.411ZM353.999 149.422L355.999 149.428L356.002 148.428L354.002 148.422L353.999 149.422ZM357.999 149.434L359.999 149.44L360.002 148.44L358.002 148.434L357.999 149.434ZM361.999 149.445L363.999 149.451L364.002 148.451L362.002 148.445L361.999 149.445ZM365.999 149.457L367.999 149.463L368.002 148.463L366.002 148.457L365.999 149.457ZM369.999 149.468L371.999 149.474L372.002 148.474L370.002 148.468L369.999 149.468ZM373.999 149.48L375.999 149.486L376.002 148.486L374.002 148.48L373.999 149.48ZM377.999 149.491L379.999 149.497L380.002 148.497L378.002 148.491L377.999 149.491ZM381.999 149.503L382.999 149.506L383.001 148.506L382.002 148.503L381.999 149.503Z" fill="black"/>
<path d="M413.353 29.838C413.548 29.6432 413.549 29.3267 413.355 29.1309L410.181 25.9401C409.987 25.7443 409.67 25.7434 409.474 25.9381C409.278 26.1329 409.278 26.4494 409.472 26.6452L412.293 29.4815L409.457 32.3021C409.261 32.4968 409.26 32.8134 409.455 33.0092C409.649 33.205 409.966 33.2059 410.162 33.0111L413.353 29.838ZM237.999 29.5L412.999 29.9834L413.001 28.9834L238.001 28.5L237.999 29.5Z" fill="black"/>
<path d="M283.356 129.352C283.55 129.155 283.548 128.839 283.352 128.644L280.151 125.481C279.955 125.287 279.638 125.288 279.444 125.485C279.25 125.681 279.252 125.998 279.448 126.192L282.293 129.004L279.481 131.849C279.287 132.045 279.288 132.362 279.485 132.556C279.681 132.75 279.998 132.748 280.192 132.552L283.356 129.352ZM108.003 130.5L283.003 129.5L282.997 128.5L107.997 129.5L108.003 130.5Z" fill="black"/>
<path d="M414.95 28.6206C414.811 28.3817 414.505 28.3001 414.266 28.4384L410.372 30.6931C410.133 30.8315 410.051 31.1374 410.19 31.3763C410.328 31.6153 410.634 31.6969 410.873 31.5585L414.335 29.5544L416.339 33.0161C416.477 33.2551 416.783 33.3366 417.022 33.1983C417.261 33.0599 417.343 32.754 417.204 32.5151L414.95 28.6206ZM383 149L415 29L414.034 28.7423L382.034 148.742L383 149Z" fill="black"/>
<path d="M238.95 28.6206C238.811 28.3817 238.505 28.3001 238.266 28.4384L234.372 30.6931C234.133 30.8315 234.051 31.1374 234.19 31.3763C234.328 31.6153 234.634 31.6969 234.873 31.5585L238.335 29.5544L240.339 33.0161C240.477 33.2551 240.783 33.3366 241.022 33.1983C241.261 33.0599 241.343 32.754 241.204 32.5151L238.95 28.6206ZM207 149L207.258 148.032L206.292 147.775L206.034 148.742L207 149ZM207.774 146.097L208.29 144.161L207.324 143.904L206.808 145.839L207.774 146.097ZM208.806 142.226L209.323 140.29L208.356 140.033L207.84 141.968L208.806 142.226ZM209.839 138.355L210.355 136.419L209.389 136.162L208.872 138.097L209.839 138.355ZM210.871 134.484L211.387 132.548L210.421 132.291L209.905 134.226L210.871 134.484ZM211.903 130.613L212.419 128.677L211.453 128.42L210.937 130.355L211.903 130.613ZM212.935 126.742L213.452 124.806L212.485 124.549L211.969 126.484L212.935 126.742ZM213.968 122.871L214.484 120.935L213.518 120.678L213.001 122.613L213.968 122.871ZM215 119L215.516 117.065L214.55 116.807L214.034 118.742L215 119ZM216.032 115.129L216.548 113.194L215.582 112.936L215.066 114.871L216.032 115.129ZM217.065 111.258L217.581 109.323L216.614 109.065L216.098 111L217.065 111.258ZM218.097 107.387L218.613 105.452L217.647 105.194L217.131 107.129L218.097 107.387ZM219.129 103.516L219.645 101.581L218.679 101.323L218.163 103.258L219.129 103.516ZM220.161 99.6451L220.677 97.7097L219.711 97.452L219.195 99.3875L220.161 99.6451ZM221.194 95.7742L221.71 93.8387L220.743 93.581L220.227 95.5165L221.194 95.7742ZM222.226 91.9032L222.742 89.9677L221.776 89.7101L221.26 91.6455L222.226 91.9032ZM223.258 88.0322L223.774 86.0967L222.808 85.8391L222.292 87.7746L223.258 88.0322ZM224.29 84.1613L224.806 82.2258L223.84 81.9681L223.324 83.9036L224.29 84.1613ZM225.323 80.2903L225.839 78.3548L224.872 78.0972L224.356 80.0326L225.323 80.2903ZM226.355 76.4193L226.871 74.4838L225.905 74.2262L225.389 76.1617L226.355 76.4193ZM227.387 72.5484L227.903 70.6129L226.937 70.3552L226.421 72.2907L227.387 72.5484ZM228.419 68.6774L228.935 66.7419L227.969 66.4842L227.453 68.4197L228.419 68.6774ZM229.452 64.8064L229.968 62.8709L229.002 62.6133L228.485 64.5488L229.452 64.8064ZM230.484 60.9354L231 59L230.034 58.7423L229.518 60.6778L230.484 60.9354ZM231.516 57.0645L232.032 55.129L231.066 54.8713L230.55 56.8068L231.516 57.0645ZM232.548 53.1935L233.065 51.258L232.098 51.0004L231.582 52.9358L232.548 53.1935ZM233.581 49.3225L234.097 47.3871L233.131 47.1294L232.614 49.0649L233.581 49.3225ZM234.613 45.4516L235.129 43.5161L234.163 43.2584L233.647 45.1939L234.613 45.4516ZM235.645 41.5806L236.161 39.6451L235.195 39.3875L234.679 41.3229L235.645 41.5806ZM236.677 37.7096L237.194 35.7741L236.227 35.5165L235.711 37.452L236.677 37.7096ZM237.71 33.8387L238.226 31.9032L237.26 31.6455L236.743 33.581L237.71 33.8387ZM238.742 29.9677L239 29L238.034 28.7423L237.776 29.71L238.742 29.9677Z" fill="black"/>
<path d="M106.95 129.621C106.811 129.382 106.505 129.3 106.266 129.438L102.372 131.693C102.133 131.831 102.051 132.137 102.19 132.376C102.328 132.615 102.634 132.697 102.873 132.558L106.335 130.554L108.339 134.016C108.477 134.255 108.783 134.337 109.022 134.198C109.261 134.06 109.343 133.754 109.204 133.515L106.95 129.621ZM75 250L107 130L106.034 129.742L74.0338 249.742L75 250Z" fill="black"/>
<path d="M283.433 128.749C283.294 128.511 282.988 128.429 282.749 128.567L278.855 130.822C278.616 130.96 278.535 131.266 278.673 131.505C278.811 131.744 279.117 131.826 279.356 131.687L282.818 129.683L284.822 133.145C284.96 133.384 285.266 133.465 285.505 133.327C285.744 133.189 285.826 132.883 285.687 132.644L283.433 128.749ZM251.483 249.129L283.483 129.129L282.517 128.871L250.517 248.871L251.483 249.129Z" fill="black"/>
<path d="M414.496 29.0641C414.531 28.7903 414.338 28.5396 414.064 28.5041L409.601 27.927C409.327 27.8916 409.077 28.0849 409.041 28.3588C409.006 28.6327 409.199 28.8834 409.473 28.9188L413.44 29.4318L412.927 33.3987C412.892 33.6726 413.085 33.9233 413.359 33.9587C413.633 33.9941 413.883 33.8008 413.919 33.527L414.496 29.0641ZM283.305 130.396L414.305 29.396L413.695 28.604L282.695 129.604L283.305 130.396Z" fill="black"/>
<path d="M238.191 29.6681C238.226 29.3943 238.033 29.1435 237.759 29.1081L233.296 28.531C233.022 28.4956 232.771 28.6889 232.736 28.9628C232.701 29.2367 232.894 29.4874 233.168 29.5228L237.135 30.0358L236.622 34.0027C236.586 34.2766 236.78 34.5273 237.053 34.5627C237.327 34.5981 237.578 34.4048 237.613 34.131L238.191 29.6681ZM107 131L238 30L237.389 29.208L106.389 130.208L107 131Z" fill="black"/>
<path d="M74.8536 128.646C74.6583 128.451 74.3417 128.451 74.1464 128.646L70.9645 131.828C70.7692 132.024 70.7692 132.34 70.9645 132.535C71.1597 132.731 71.4763 132.731 71.6716 132.535L74.5 129.707L77.3284 132.535C77.5237 132.731 77.8403 132.731 78.0355 132.535C78.2308 132.34 78.2308 132.024 78.0355 131.828L74.8536 128.646ZM75 249.017L75 129H74L74 249.017H75Z" fill="#355E3B"/>
<path d="M74.3536 157.646C74.1583 157.451 73.8417 157.451 73.6464 157.646L70.4645 160.828C70.2692 161.024 70.2692 161.34 70.4645 161.536C70.6597 161.731 70.9763 161.731 71.1716 161.536L74 158.707L76.8284 161.536C77.0237 161.731 77.3403 161.731 77.5355 161.536C77.7308 161.34 77.7308 161.024 77.5355 160.828L74.3536 157.646ZM74.5 249.018L74.5 158H73.5L73.5 249.018H74.5Z" fill="#EE4B2B"/>
<path d="M85.259 194.621C85.259 192.783 84.6826 191 83.2056 191C80.6839 191 78 196.278 78 200.24C78 201.069 78.1801 203.861 80.0714 203.861C82.5211 203.861 85.259 198.709 85.259 194.621ZM79.8012 197.16C80.0714 196.098 80.4497 194.584 81.1702 193.306C81.7646 192.225 82.395 191.36 83.1876 191.36C83.782 191.36 84.1783 191.865 84.1783 193.594C84.1783 194.242 84.1242 195.143 83.6019 197.16H79.8012ZM83.4758 197.701C83.0255 199.466 82.6472 200.601 81.9988 201.735C81.4764 202.654 80.846 203.501 80.0894 203.501C79.5311 203.501 79.0807 203.068 79.0807 201.285C79.0807 200.114 79.3689 198.889 79.6571 197.701H83.4758Z" fill="black"/>
<path d="M92.8793 160.062C93.1855 160.062 93.5097 160.062 93.5097 159.701C93.5097 159.341 93.1855 159.341 92.8793 159.341H83.1345C82.8283 159.341 82.5041 159.341 82.5041 159.701C82.5041 160.062 82.8283 160.062 83.1345 160.062H92.8793Z" fill="black"/>
<path d="M96.0317 160.061C95.041 160.818 94.5547 161.557 94.4106 161.791C93.6 163.034 93.4559 164.168 93.4559 164.186C93.4559 164.403 93.6721 164.403 93.8162 164.403C94.1224 164.403 94.1404 164.366 94.2124 164.042C94.6267 162.277 95.6895 160.764 97.7249 159.935C97.941 159.863 97.9951 159.827 97.9951 159.701C97.9951 159.575 97.887 159.521 97.851 159.503C97.0584 159.197 94.8789 158.296 94.1944 155.27C94.1404 155.054 94.1224 155 93.8162 155C93.6721 155 93.4559 155 93.4559 155.216C93.4559 155.252 93.618 156.387 94.3746 157.594C94.7348 158.134 95.2572 158.765 96.0317 159.341H82.6484C82.3242 159.341 82 159.341 82 159.701C82 160.061 82.3242 160.061 82.6484 160.061H96.0317Z" fill="black"/>
<path d="M89.6656 170.861C90.0619 171.942 91.1787 172.14 91.8631 172.14C93.2321 172.14 94.0426 170.951 94.547 169.708C94.9613 168.663 95.6277 166.286 95.6277 165.223C95.6277 164.124 95.0693 164.016 94.9072 164.016C94.4749 164.016 94.0787 164.449 94.0787 164.809C94.0787 165.025 94.2048 165.151 94.2948 165.223C94.4569 165.385 94.9252 165.872 94.9252 166.808C94.9252 167.421 94.4209 169.114 94.0426 169.96C93.5383 171.059 92.8718 171.78 91.9352 171.78C90.9265 171.78 90.6023 171.023 90.6023 170.195C90.6023 169.672 90.7644 169.042 90.8364 168.735L91.5929 165.709C91.683 165.349 91.8451 164.719 91.8451 164.647C91.8451 164.376 91.629 164.196 91.3588 164.196C90.8364 164.196 90.7103 164.647 90.6023 165.079C90.4221 165.781 89.6656 168.826 89.5936 169.222C89.5215 169.528 89.5215 169.726 89.5215 170.122C89.5215 170.555 88.9451 171.239 88.9271 171.275C88.729 171.473 88.4408 171.78 87.8824 171.78C86.4594 171.78 86.4594 170.429 86.4594 170.122C86.4594 169.546 86.5855 168.754 87.396 166.61C87.6122 166.052 87.7023 165.817 87.7023 165.457C87.7023 164.701 87.1619 164.016 86.2793 164.016C84.6221 164.016 83.9557 166.628 83.9557 166.772C83.9557 166.844 84.0277 166.934 84.1538 166.934C84.3159 166.934 84.3339 166.862 84.406 166.61C84.8563 165.025 85.5588 164.376 86.2252 164.376C86.4054 164.376 86.6936 164.394 86.6936 164.971C86.6936 165.061 86.6936 165.439 86.3873 166.232C85.5408 168.483 85.3606 169.222 85.3606 169.906C85.3606 171.798 86.9097 172.14 87.8283 172.14C88.1346 172.14 88.9451 172.14 89.6656 170.861Z" fill="black"/>
<path d="M54.8793 143.062C55.1855 143.062 55.5097 143.062 55.5097 142.701C55.5097 142.341 55.1855 142.341 54.8793 142.341H45.1345C44.8283 142.341 44.5041 142.341 44.5041 142.701C44.5041 143.062 44.8283 143.062 45.1345 143.062H54.8793Z" fill="#355E3B"/>
<path d="M58.0317 143.061C57.041 143.818 56.5547 144.557 56.4106 144.791C55.6 146.034 55.4559 147.168 55.4559 147.186C55.4559 147.403 55.6721 147.403 55.8162 147.403C56.1224 147.403 56.1404 147.366 56.2124 147.042C56.6267 145.277 57.6895 143.764 59.7249 142.935C59.941 142.863 59.9951 142.827 59.9951 142.701C59.9951 142.575 59.887 142.521 59.851 142.503C59.0584 142.197 56.8789 141.296 56.1944 138.27C56.1404 138.054 56.1224 138 55.8162 138C55.6721 138 55.4559 138 55.4559 138.216C55.4559 138.252 55.618 139.387 56.3746 140.594C56.7348 141.134 57.2572 141.765 58.0317 142.341H44.6484C44.3242 142.341 44 142.341 44 142.701C44 143.061 44.3242 143.061 44.6484 143.061H58.0317Z" fill="#355E3B"/>
<path d="M51.6656 153.861C52.0619 154.942 53.1787 155.14 53.8631 155.14C55.2321 155.14 56.0426 153.951 56.547 152.708C56.9613 151.663 57.6277 149.286 57.6277 148.223C57.6277 147.124 57.0693 147.016 56.9072 147.016C56.4749 147.016 56.0787 147.449 56.0787 147.809C56.0787 148.025 56.2047 148.151 56.2948 148.223C56.4569 148.385 56.9252 148.872 56.9252 149.808C56.9252 150.421 56.4209 152.114 56.0426 152.96C55.5383 154.059 54.8718 154.78 53.9352 154.78C52.9265 154.78 52.6023 154.023 52.6023 153.195C52.6023 152.672 52.7644 152.042 52.8364 151.735L53.5929 148.709C53.683 148.349 53.8451 147.719 53.8451 147.647C53.8451 147.376 53.629 147.196 53.3588 147.196C52.8364 147.196 52.7103 147.647 52.6023 148.079C52.4221 148.781 51.6656 151.826 51.5936 152.222C51.5215 152.528 51.5215 152.726 51.5215 153.122C51.5215 153.555 50.9451 154.239 50.9271 154.275C50.729 154.473 50.4408 154.78 49.8824 154.78C48.4594 154.78 48.4594 153.429 48.4594 153.122C48.4594 152.546 48.5855 151.754 49.396 149.61C49.6122 149.052 49.7022 148.817 49.7022 148.457C49.7022 147.701 49.1619 147.016 48.2793 147.016C46.6221 147.016 45.9557 149.628 45.9557 149.772C45.9557 149.844 46.0277 149.934 46.1538 149.934C46.3159 149.934 46.3339 149.862 46.406 149.61C46.8563 148.025 47.5588 147.376 48.2252 147.376C48.4054 147.376 48.6936 147.394 48.6936 147.971C48.6936 148.061 48.6935 148.439 48.3873 149.232C47.5408 151.483 47.3606 152.222 47.3606 152.906C47.3606 154.798 48.9097 155.14 49.8283 155.14C50.1345 155.14 50.9451 155.14 51.6656 153.861Z" fill="#355E3B"/>
<path d="M63.0632 149.212C63.0632 149.02 63.0632 148.755 62.787 148.755C62.5108 148.755 62.5108 149.02 62.5108 149.212V160.307C62.5108 160.5 62.5108 160.764 62.787 160.764C63.0632 160.764 63.0632 160.5 63.0632 160.307V149.212Z" fill="#355E3B"/>
<path d="M66.6074 149.212C66.6074 149.02 66.6074 148.755 66.3312 148.755C66.055 148.755 66.055 149.02 66.055 149.212V160.307C66.055 160.5 66.055 160.764 66.3312 160.764C66.6074 160.764 66.6074 160.5 66.6074 160.307V149.212Z" fill="#355E3B"/>
<path d="M71.2563 149.788C71.2683 149.764 71.3044 149.608 71.3044 149.596C71.3044 149.536 71.2563 149.428 71.1122 149.428L69.8994 149.524C69.4551 149.56 69.359 149.572 69.359 149.788C69.359 149.956 69.5271 149.956 69.6712 149.956C70.2476 149.956 70.2476 150.028 70.2476 150.136C70.2476 150.172 70.2476 150.196 70.1876 150.413L68.6986 156.369C68.6505 156.561 68.6505 156.741 68.6505 156.753C68.6505 157.497 69.263 157.882 69.8634 157.882C70.3797 157.882 70.6559 157.473 70.788 157.209C71.0042 156.813 71.1843 156.105 71.1843 156.044C71.1843 155.972 71.1483 155.888 70.9921 155.888C70.8841 155.888 70.848 155.948 70.848 155.96C70.824 155.996 70.764 156.213 70.728 156.345C70.5478 157.041 70.3197 157.546 69.8874 157.546C69.5992 157.546 69.5151 157.269 69.5151 156.981C69.5151 156.753 69.5511 156.621 69.5872 156.465L71.2563 149.788Z" fill="#355E3B"/>
<path d="M25.8793 207.062C26.1855 207.062 26.5097 207.062 26.5097 206.701C26.5097 206.341 26.1855 206.341 25.8793 206.341H16.1345C15.8283 206.341 15.5041 206.341 15.5041 206.701C15.5041 207.062 15.8283 207.062 16.1345 207.062H25.8793Z" fill="#EE4B2B"/>
<path d="M29.0317 207.061C28.041 207.818 27.5547 208.557 27.4106 208.791C26.6 210.034 26.4559 211.168 26.4559 211.186C26.4559 211.403 26.6721 211.403 26.8162 211.403C27.1224 211.403 27.1404 211.366 27.2124 211.042C27.6267 209.277 28.6895 207.764 30.7249 206.935C30.941 206.863 30.9951 206.827 30.9951 206.701C30.9951 206.575 30.887 206.521 30.851 206.503C30.0584 206.197 27.8789 205.296 27.1944 202.27C27.1404 202.054 27.1224 202 26.8162 202C26.6721 202 26.4559 202 26.4559 202.216C26.4559 202.252 26.618 203.387 27.3746 204.594C27.7348 205.134 28.2572 205.765 29.0317 206.341H15.6484C15.3242 206.341 15 206.341 15 206.701C15 207.061 15.3242 207.061 15.6484 207.061H29.0317Z" fill="#EE4B2B"/>
<path d="M24.1386 217.915C24.3728 218.924 25.2374 219.14 25.6697 219.14C26.2461 219.14 26.6784 218.762 26.9666 218.149C27.2728 217.501 27.507 216.438 27.507 216.384C27.507 216.294 27.4349 216.222 27.3268 216.222C27.1647 216.222 27.1467 216.312 27.0747 216.582C26.7504 217.825 26.4262 218.78 25.7057 218.78C25.1653 218.78 25.1653 218.185 25.1653 217.951C25.1653 217.537 25.2194 217.357 25.3995 216.6C25.5256 216.114 25.6517 215.627 25.7598 215.123L26.4983 212.187C26.6244 211.737 26.6244 211.701 26.6244 211.647C26.6244 211.376 26.4082 211.196 26.138 211.196C25.6157 211.196 25.4896 211.647 25.3815 212.097C25.2014 212.799 24.2287 216.672 24.1026 217.303C24.0846 217.303 23.3821 218.78 22.0672 218.78C21.1306 218.78 20.9504 217.969 20.9504 217.303C20.9504 216.276 21.4548 214.835 21.9231 213.628C22.1393 213.052 22.2293 212.817 22.2293 212.457C22.2293 211.683 21.6709 211.016 20.8063 211.016C19.1492 211.016 18.4827 213.628 18.4827 213.772C18.4827 213.844 18.5548 213.934 18.6809 213.934C18.843 213.934 18.861 213.862 18.933 213.61C19.3653 212.061 20.0678 211.376 20.7523 211.376C20.9324 211.376 21.2206 211.394 21.2206 211.971C21.2206 212.439 21.0225 212.962 20.7523 213.646C19.9597 215.79 19.8697 216.474 19.8697 217.014C19.8697 218.852 21.2566 219.14 21.9952 219.14C23.148 219.14 23.7784 218.347 24.1386 217.915Z" fill="#EE4B2B"/>
<path d="M43.0314 213.952L39.4289 210.368C39.2127 210.152 39.1767 210.116 39.0326 210.116C38.8525 210.116 38.6724 210.278 38.6724 210.476C38.6724 210.602 38.7084 210.638 38.9065 210.836L42.509 214.457L38.9065 218.077C38.7084 218.275 38.6724 218.311 38.6724 218.437C38.6724 218.635 38.8525 218.798 39.0326 218.798C39.1767 218.798 39.2127 218.762 39.4289 218.545L43.0134 214.961L46.7419 218.69C46.778 218.708 46.904 218.798 47.0121 218.798C47.2283 218.798 47.3724 218.635 47.3724 218.437C47.3724 218.401 47.3724 218.329 47.3183 218.239C47.3003 218.203 44.4363 215.375 43.5357 214.457L46.832 211.16C46.9221 211.052 47.1922 210.818 47.2823 210.71C47.3003 210.674 47.3724 210.602 47.3724 210.476C47.3724 210.278 47.2283 210.116 47.0121 210.116C46.868 210.116 46.796 210.188 46.5978 210.386L43.0314 213.952Z" fill="#EE4B2B"/>
<path d="M65.9072 207.062C66.2134 207.062 66.5376 207.062 66.5376 206.701C66.5376 206.341 66.2134 206.341 65.9072 206.341H56.1624C55.8562 206.341 55.532 206.341 55.532 206.701C55.532 207.062 55.8562 207.062 56.1624 207.062H65.9072Z" fill="#EE4B2B"/>
<path d="M69.0596 207.061C68.0689 207.818 67.5826 208.557 67.4385 208.791C66.6279 210.034 66.4838 211.168 66.4838 211.186C66.4838 211.403 66.7 211.403 66.8441 211.403C67.1503 211.403 67.1683 211.366 67.2404 211.042C67.6546 209.277 68.7174 207.764 70.7528 206.935C70.9689 206.863 71.023 206.827 71.023 206.701C71.023 206.575 70.9149 206.521 70.8789 206.503C70.0863 206.197 67.9068 205.296 67.2223 202.27C67.1683 202.054 67.1503 202 66.8441 202C66.7 202 66.4838 202 66.4838 202.216C66.4838 202.252 66.6459 203.387 67.4025 204.594C67.7627 205.134 68.2851 205.765 69.0596 206.341H55.6764C55.3521 206.341 55.0279 206.341 55.0279 206.701C55.0279 207.061 55.3521 207.061 55.6764 207.061H69.0596Z" fill="#EE4B2B"/>
<path d="M66.6886 212.223C66.6886 211.088 66.1122 211.016 65.9681 211.016C65.5358 211.016 65.1395 211.449 65.1395 211.809C65.1395 212.025 65.2656 212.151 65.3376 212.223C65.5178 212.385 65.9861 212.872 65.9861 213.808C65.9861 214.565 64.9053 218.78 62.7438 218.78C61.6451 218.78 61.4289 217.861 61.4289 217.195C61.4289 216.294 61.8432 215.033 62.3296 213.736C62.6178 212.998 62.6898 212.817 62.6898 212.457C62.6898 211.701 62.1494 211.016 61.2668 211.016C59.6097 211.016 58.9432 213.628 58.9432 213.772C58.9432 213.844 59.0153 213.934 59.1414 213.934C59.3035 213.934 59.3215 213.862 59.3935 213.61C59.8258 212.061 60.5283 211.376 61.2128 211.376C61.3749 211.376 61.6811 211.376 61.6811 211.971C61.6811 212.439 61.483 212.962 61.2128 213.646C60.3482 215.952 60.3482 216.51 60.3482 216.942C60.3482 217.339 60.4022 218.077 60.9606 218.581C61.6091 219.14 62.5097 219.14 62.6718 219.14C65.6619 219.14 66.6886 213.25 66.6886 212.223Z" fill="#EE4B2B"/>
<path d="M152.87 178.062C153.176 178.062 153.501 178.062 153.501 177.701C153.501 177.341 153.176 177.341 152.87 177.341H143.125C142.819 177.341 142.495 177.341 142.495 177.701C142.495 178.062 142.819 178.062 143.125 178.062H152.87Z" fill="black"/>
<path d="M156.023 178.061C155.032 178.818 154.546 179.557 154.402 179.791C153.591 181.034 153.447 182.168 153.447 182.186C153.447 182.403 153.663 182.403 153.807 182.403C154.113 182.403 154.131 182.366 154.203 182.042C154.618 180.277 155.68 178.764 157.716 177.935C157.932 177.863 157.986 177.827 157.986 177.701C157.986 177.575 157.878 177.521 157.842 177.503C157.049 177.197 154.87 176.296 154.185 173.27C154.131 173.054 154.113 173 153.807 173C153.663 173 153.447 173 153.447 173.216C153.447 173.252 153.609 174.387 154.365 175.594C154.726 176.134 155.248 176.765 156.023 177.341H142.639C142.315 177.341 141.991 177.341 141.991 177.701C141.991 178.061 142.315 178.061 142.639 178.061H156.023Z" fill="black"/>
<path d="M153.652 183.223C153.652 182.088 153.075 182.016 152.931 182.016C152.499 182.016 152.103 182.449 152.103 182.809C152.103 183.025 152.229 183.151 152.301 183.223C152.481 183.385 152.949 183.872 152.949 184.808C152.949 185.565 151.868 189.78 149.707 189.78C148.608 189.78 148.392 188.861 148.392 188.195C148.392 187.294 148.806 186.033 149.293 184.736C149.581 183.998 149.653 183.817 149.653 183.457C149.653 182.701 149.112 182.016 148.23 182.016C146.573 182.016 145.906 184.628 145.906 184.772C145.906 184.844 145.978 184.934 146.104 184.934C146.267 184.934 146.285 184.862 146.357 184.61C146.789 183.061 147.491 182.376 148.176 182.376C148.338 182.376 148.644 182.376 148.644 182.971C148.644 183.439 148.446 183.962 148.176 184.646C147.311 186.952 147.311 187.51 147.311 187.942C147.311 188.339 147.365 189.077 147.924 189.581C148.572 190.14 149.473 190.14 149.635 190.14C152.625 190.14 153.652 184.25 153.652 183.223Z" fill="black"/>
<path d="M168.879 259.062C169.185 259.062 169.51 259.062 169.51 258.701C169.51 258.341 169.185 258.341 168.879 258.341H159.135C158.828 258.341 158.504 258.341 158.504 258.701C158.504 259.062 158.828 259.062 159.135 259.062H168.879Z" fill="black"/>
<path d="M172.032 259.061C171.041 259.818 170.555 260.557 170.411 260.791C169.6 262.034 169.456 263.168 169.456 263.186C169.456 263.403 169.672 263.403 169.816 263.403C170.122 263.403 170.14 263.366 170.212 263.042C170.627 261.277 171.689 259.764 173.725 258.935C173.941 258.863 173.995 258.827 173.995 258.701C173.995 258.575 173.887 258.521 173.851 258.503C173.058 258.197 170.879 257.296 170.194 254.27C170.14 254.054 170.122 254 169.816 254C169.672 254 169.456 254 169.456 254.216C169.456 254.252 169.618 255.387 170.375 256.594C170.735 257.134 171.257 257.765 172.032 258.341H158.648C158.324 258.341 158 258.341 158 258.701C158 259.061 158.324 259.061 158.648 259.061H172.032Z" fill="black"/>
<path d="M167.139 269.915C167.373 270.924 168.237 271.14 168.67 271.14C169.246 271.14 169.678 270.762 169.967 270.149C170.273 269.501 170.507 268.438 170.507 268.384C170.507 268.294 170.435 268.222 170.327 268.222C170.165 268.222 170.147 268.312 170.075 268.582C169.75 269.825 169.426 270.78 168.706 270.78C168.165 270.78 168.165 270.185 168.165 269.951C168.165 269.537 168.219 269.357 168.4 268.6C168.526 268.114 168.652 267.627 168.76 267.123L169.498 264.187C169.624 263.737 169.624 263.701 169.624 263.647C169.624 263.376 169.408 263.196 169.138 263.196C168.616 263.196 168.49 263.647 168.382 264.097C168.201 264.799 167.229 268.672 167.103 269.303C167.085 269.303 166.382 270.78 165.067 270.78C164.131 270.78 163.95 269.969 163.95 269.303C163.95 268.276 164.455 266.835 164.923 265.628C165.139 265.052 165.229 264.817 165.229 264.457C165.229 263.683 164.671 263.016 163.806 263.016C162.149 263.016 161.483 265.628 161.483 265.772C161.483 265.844 161.555 265.934 161.681 265.934C161.843 265.934 161.861 265.862 161.933 265.61C162.365 264.061 163.068 263.376 163.752 263.376C163.932 263.376 164.221 263.394 164.221 263.971C164.221 264.439 164.022 264.962 163.752 265.646C162.96 267.79 162.87 268.474 162.87 269.014C162.87 270.852 164.257 271.14 164.995 271.14C166.148 271.14 166.778 270.347 167.139 269.915Z" fill="black"/>
</svg>
